<svg width="70" height="70" viewBox="0 0 70 70" fill="none" xmlns="http://www.w3.org/2000/svg">
<path d="M56.7567 31.6608C56.5059 31.6608 56.2653 31.5612 56.0879 31.3838C55.9105 31.2064 55.8108 30.9658 55.8108 30.7149V27.9622C55.8108 27.7113 55.9105 27.4707 56.0879 27.2933C56.2653 27.1159 56.5059 27.0162 56.7567 27.0162C57.0076 27.0162 57.2482 27.1159 57.4256 27.2933C57.603 27.4707 57.7027 27.7113 57.7027 27.9622V30.7149C57.7027 30.9658 57.603 31.2064 57.4256 31.3838C57.2482 31.5612 57.0076 31.6608 56.7567 31.6608Z" fill="#3D6A66"/>
<path d="M56.7568 68.2595H13.2433C12.9924 68.2595 12.7518 68.1598 12.5744 67.9824C12.397 67.805 12.2974 67.5644 12.2974 67.3135V12.4486C12.2974 12.1978 12.397 11.9571 12.5744 11.7797C12.7518 11.6023 12.9924 11.5027 13.2433 11.5027H22.4095C22.6604 11.5027 22.901 11.6023 23.0784 11.7797C23.2558 11.9571 23.3555 12.1978 23.3555 12.4486C23.3555 12.6995 23.2558 12.9401 23.0784 13.1175C22.901 13.2949 22.6604 13.3946 22.4095 13.3946H14.1893V66.3676H55.8109V46.7676C55.8109 46.5167 55.9105 46.2761 56.0879 46.0987C56.2653 45.9213 56.5059 45.8216 56.7568 45.8216C57.0077 45.8216 57.2483 45.9213 57.4257 46.0987C57.6031 46.2761 57.7028 46.5167 57.7028 46.7676V67.3135C57.7028 67.5644 57.6031 67.805 57.4257 67.9824C57.2483 68.1598 57.0077 68.2595 56.7568 68.2595Z" fill="#3D6A66"/>
<path d="M56.7567 41.0919C56.5059 41.0919 56.2653 40.9922 56.0879 40.8149C55.9105 40.6375 55.8108 40.3968 55.8108 40.146V37.3365C55.8108 37.0856 55.9105 36.845 56.0879 36.6676C56.2653 36.4902 56.5059 36.3906 56.7567 36.3906C57.0076 36.3906 57.2482 36.4902 57.4256 36.6676C57.603 36.845 57.7027 37.0856 57.7027 37.3365V40.146C57.7027 40.3968 57.603 40.6375 57.4256 40.8149C57.2482 40.9922 57.0076 41.0919 56.7567 41.0919Z" fill="#3D6A66"/>
<path d="M56.7567 22.2865C56.5058 22.2865 56.2652 22.1868 56.0878 22.0094C55.9104 21.832 55.8107 21.5914 55.8107 21.3405V13.3946H47.5905C47.3396 13.3946 47.099 13.2949 46.9216 13.1175C46.7442 12.9401 46.6445 12.6995 46.6445 12.4486C46.6445 12.1978 46.7442 11.9571 46.9216 11.7797C47.099 11.6023 47.3396 11.5027 47.5905 11.5027H56.7567C57.0076 11.5027 57.2482 11.6023 57.4256 11.7797C57.603 11.9571 57.7026 12.1978 57.7026 12.4486V21.3405C57.7026 21.5914 57.603 21.832 57.4256 22.0094C57.2482 22.1868 57.0076 22.2865 56.7567 22.2865Z" fill="#3D6A66"/>
<path d="M47.5907 16.3573H22.4096C22.1587 16.3573 21.9181 16.2576 21.7407 16.0802C21.5633 15.9028 21.4636 15.6622 21.4636 15.4113V9.31945C21.4636 9.06857 21.5633 8.82797 21.7407 8.65057C21.9181 8.47317 22.1587 8.37351 22.4096 8.37351H27.6501C27.8372 6.55438 28.6923 4.86927 30.05 3.64411C31.4076 2.41895 33.1714 1.74078 35.0001 1.74078C36.8288 1.74078 38.5926 2.41895 39.9503 3.64411C41.3079 4.86927 42.163 6.55438 42.3501 8.37351H47.5907C47.8415 8.37351 48.0821 8.47317 48.2595 8.65057C48.4369 8.82797 48.5366 9.06857 48.5366 9.31945V15.4113C48.5366 15.6622 48.4369 15.9028 48.2595 16.0802C48.0821 16.2576 47.8415 16.3573 47.5907 16.3573ZM23.3555 14.4654H46.6447V10.2654H41.442C41.1911 10.2654 40.9505 10.1657 40.7731 9.98834C40.5957 9.81094 40.4961 9.57034 40.4961 9.31945V9.12459C40.4961 7.66697 39.917 6.26906 38.8863 5.23837C37.8556 4.20768 36.4577 3.62864 35.0001 3.62864C33.5425 3.62864 32.1446 4.20768 31.1139 5.23837C30.0832 6.26906 29.5042 7.66697 29.5042 9.12459V9.31945C29.5042 9.57034 29.4045 9.81094 29.2271 9.98834C29.0497 10.1657 28.8091 10.2654 28.5582 10.2654H23.3555V14.4654Z" fill="#3D6A66"/>
<path d="M25.8604 31.5559H20.3379C19.8362 31.5559 19.355 31.3565 19.0002 31.0017C18.6454 30.6469 18.446 30.1657 18.446 29.664V24.1415C18.446 23.6398 18.6454 23.1586 19.0002 22.8038C19.355 22.449 19.8362 22.2496 20.3379 22.2496H25.8604C26.3621 22.2496 26.8433 22.449 27.1981 22.8038C27.5529 23.1586 27.7523 23.6398 27.7523 24.1415V29.664C27.7523 30.1657 27.5529 30.6469 27.1981 31.0017C26.8433 31.3565 26.3621 31.5559 25.8604 31.5559ZM20.3379 24.1415V29.664H25.8604V24.1415H20.3379Z" fill="#3D6A66"/>
<path d="M25.8604 46.0165H20.3379C19.8362 46.0165 19.355 45.8171 19.0002 45.4623C18.6454 45.1075 18.446 44.6263 18.446 44.1246V38.6031C18.446 38.1013 18.6454 37.6201 19.0002 37.2653C19.355 36.9105 19.8362 36.7112 20.3379 36.7112H25.8604C26.3621 36.7112 26.8433 36.9105 27.1981 37.2653C27.5529 37.6201 27.7523 38.1013 27.7523 38.6031V44.1246C27.7523 44.6263 27.5529 45.1075 27.1981 45.4623C26.8433 45.8171 26.3621 46.0165 25.8604 46.0165ZM20.3379 38.6031V44.1246H25.8604V38.6031H20.3379Z" fill="#3D6A66"/>
<path d="M25.8604 60.4781H20.3379C19.8362 60.4781 19.355 60.2788 19.0002 59.924C18.6454 59.5692 18.446 59.088 18.446 58.5862V53.0676C18.446 52.5658 18.6454 52.0846 19.0002 51.7298C19.355 51.375 19.8362 51.1757 20.3379 51.1757H25.8604C26.3621 51.1757 26.8433 51.375 27.1981 51.7298C27.5529 52.0846 27.7523 52.5658 27.7523 53.0676V58.59C27.7513 59.0911 27.5515 59.5713 27.1968 59.9253C26.8421 60.2793 26.3615 60.4781 25.8604 60.4781ZM20.3379 53.0676V58.59H25.8604V53.0676H20.3379Z" fill="#3D6A66"/>
<path d="M51.3214 27.1752H32.4025C32.1516 27.1752 31.911 27.0755 31.7336 26.8981C31.5562 26.7207 31.4565 26.4801 31.4565 26.2292C31.4565 25.9783 31.5562 25.7377 31.7336 25.5603C31.911 25.3829 32.1516 25.2833 32.4025 25.2833H51.3214C51.5723 25.2833 51.8129 25.3829 51.9903 25.5603C52.1677 25.7377 52.2673 25.9783 52.2673 26.2292C52.2673 26.4801 52.1677 26.7207 51.9903 26.8981C51.8129 27.0755 51.5723 27.1752 51.3214 27.1752Z" fill="#F27039"/>
<path d="M51.3214 41.6358H32.4025C32.1516 41.6358 31.911 41.5361 31.7336 41.3587C31.5562 41.1813 31.4565 40.9407 31.4565 40.6898C31.4565 40.439 31.5562 40.1984 31.7336 40.021C31.911 39.8436 32.1516 39.7439 32.4025 39.7439H51.3214C51.5723 39.7439 51.8129 39.8436 51.9903 40.021C52.1677 40.1984 52.2673 40.439 52.2673 40.6898C52.2673 40.9407 52.1677 41.1813 51.9903 41.3587C51.8129 41.5361 51.5723 41.6358 51.3214 41.6358Z" fill="#F27039"/>
<path d="M51.3214 56.0946H32.4025C32.1516 56.0946 31.911 55.9949 31.7336 55.8175C31.5562 55.6401 31.4565 55.3995 31.4565 55.1486C31.4565 54.8978 31.5562 54.6572 31.7336 54.4798C31.911 54.3024 32.1516 54.2027 32.4025 54.2027H51.3214C51.5723 54.2027 51.8129 54.3024 51.9903 54.4798C52.1677 54.6572 52.2673 54.8978 52.2673 55.1486C52.2673 55.3995 52.1677 55.6401 51.9903 55.8175C51.8129 55.9949 51.5723 56.0946 51.3214 56.0946Z" fill="#F27039"/>
<path d="M22 27.5L23 28.5L25 25" stroke="#3D6A66"/>
<path d="M22 41.5L23 42.5L25 39" stroke="#3D6A66"/>
<path d="M22 56.5L23 57.5L25 54" stroke="#3D6A66"/>
</svg>
