<svg width="70" height="70" viewBox="0 0 70 70" fill="none" xmlns="http://www.w3.org/2000/svg">
<g clip-path="url(#clip0)">
<path d="M70.0001 46.6332V17.0738L64.7184 8.65576H15.1786V53.3095H16.9229L15.1782 56.8502V61.344H31.2479V56.8504L29.5032 53.3096H50.4033L48.6585 56.8504V61.3442H64.7282V56.8504L62.9822 53.3069H64.6428L70.0001 46.6332ZM29.1972 57.328V59.2934H17.2291V57.328L19.2092 53.3095H27.2171L29.1972 57.328ZM62.6776 59.2934H50.7094V57.328L52.6895 53.3095C54.0297 53.3095 54.0184 53.3089 60.6972 53.3089L62.6775 57.3279V59.2934H62.6776ZM55.2851 51.2561V16.7495H53.2343V51.2581L17.2294 51.2587V10.7065H53.2343V14.6987H55.2851V10.7065H63.584L67.9493 17.664V45.912L63.6595 51.2561H55.2851Z" fill="#3D6A66"/>
<path d="M6.90977 18.5543H0V43.4112H6.90977V49.4268H12.1023V47.376H8.96055V38.2815H6.90977V41.3604H2.05078V20.6051H6.90977V36.2307H8.96055V14.5895H12.1023V12.5387H6.90977V18.5543Z" fill="#3D6A66"/>
<path d="M20.8369 22.6635H49.6263V15.531H20.8369V22.6635ZM22.8877 17.5818H47.5756V20.6127H22.8877V17.5818Z" fill="#3D6A66"/>
<path d="M20.8369 34.5488H49.6263V27.4165H20.8369V34.5488ZM22.8877 29.4673H47.5756V32.4981H22.8877V29.4673Z" fill="#3D6A66"/>
<path d="M20.8369 46.4342H49.6263V39.3018H20.8369V46.4342ZM22.8877 41.3525H47.5756V44.3835H22.8877V41.3525Z" fill="#3D6A66"/>
<path d="M65.8142 42.0663H63.7634V29.5107H65.8142V42.0663ZM65.8142 27.46H63.7634V25.4092H65.8142V27.46ZM65.8142 23.3584H63.7634V21.3076H65.8142V23.3584Z" fill="#3D6A66"/>
</g>
<defs>
<clipPath id="clip0">
<rect width="70" height="70" fill="white"/>
</clipPath>
</defs>
</svg>
