<svg width="66" height="66" viewBox="0 0 66 66" fill="none" xmlns="http://www.w3.org/2000/svg">
<path d="M60.8438 6.44531C60.8438 7.15732 60.2667 7.73438 59.5547 7.73438C58.8427 7.73438 58.2656 7.15732 58.2656 6.44531C58.2656 5.73331 58.8427 5.15625 59.5547 5.15625C60.2667 5.15625 60.8438 5.73331 60.8438 6.44531Z" fill="#3D6A66"/>
<path d="M60.8438 59.5547C60.8438 60.2667 60.2667 60.8438 59.5547 60.8438C58.8427 60.8438 58.2656 60.2667 58.2656 59.5547C58.2656 58.8427 58.8427 58.2656 59.5547 58.2656C60.2667 58.2656 60.8438 58.8427 60.8438 59.5547Z" fill="#3D6A66"/>
<path d="M33 8.50781C33.7014 8.50781 34.2709 7.94838 34.2891 7.25098C34.2891 7.24091 34.2891 7.22882 34.2891 7.21875C34.2891 6.50725 33.7115 5.92969 33 5.92969C32.2885 5.92969 31.7109 6.50725 31.7109 7.21875V7.25098C31.7291 7.94838 32.2986 8.50781 33 8.50781Z" fill="#3D6A66"/>
<path d="M7.73438 6.44531C7.73438 7.15732 7.15732 7.73438 6.44531 7.73438C5.73331 7.73438 5.15625 7.15732 5.15625 6.44531C5.15625 5.73331 5.73331 5.15625 6.44531 5.15625C7.15732 5.15625 7.73438 5.73331 7.73438 6.44531Z" fill="#3D6A66"/>
<path d="M7.73438 59.5547C7.73438 60.2667 7.15732 60.8438 6.44531 60.8438C5.73331 60.8438 5.15625 60.2667 5.15625 59.5547C5.15625 58.8427 5.73331 58.2656 6.44531 58.2656C7.15732 58.2656 7.73438 58.8427 7.73438 59.5547Z" fill="#3D6A66"/>
<path d="M62.1328 0H3.86719C1.7347 0 0 1.7347 0 3.86719V62.1328C0 64.2653 1.7347 66 3.86719 66H62.1328C64.2653 66 66 64.2653 66 62.1328V3.86719C66 1.7347 64.2653 0 62.1328 0ZM63.4219 62.1328C63.4219 62.8438 62.8438 63.4219 62.1328 63.4219H3.86719C3.15619 63.4219 2.57812 62.8438 2.57812 62.1328V3.86719C2.57812 3.15619 3.15619 2.57812 3.86719 2.57812H62.1328C62.8438 2.57812 63.4219 3.15619 63.4219 3.86719V62.1328Z" fill="#3D6A66"/>
<path d="M39.4453 17.5312C39.4453 13.9773 36.554 11.0859 33 11.0859C29.446 11.0859 26.5547 13.9773 26.5547 17.5312C26.5547 19.3908 27.0915 19.8511 29.6792 27.4757C28.7733 28.0185 28.0185 28.7733 27.4757 29.6792C20.0202 27.1489 19.3984 26.5547 17.5312 26.5547C13.9773 26.5547 11.0859 29.446 11.0859 33C11.0859 36.554 13.9773 39.4453 17.5312 39.4453C19.3908 39.4453 19.8511 38.9085 27.4757 36.3208C28.0185 37.2267 28.7733 37.9815 29.6792 38.5243C27.1489 45.9798 26.5547 46.6016 26.5547 48.4688C26.5547 52.0227 29.446 54.9141 33 54.9141C36.554 54.9141 39.4453 52.0227 39.4453 48.4688C39.4453 46.6092 38.9085 46.1489 36.3208 38.5243C37.2267 37.9815 37.9815 37.2267 38.5243 36.3208C45.9798 38.8511 46.6016 39.4453 48.4688 39.4453C52.0227 39.4453 54.9141 36.554 54.9141 33C54.9141 29.446 52.0227 26.5547 48.4688 26.5547C46.6092 26.5547 46.1489 27.0915 38.5238 29.6792C37.981 28.7733 37.2267 28.0185 36.3208 27.4757C38.8511 20.0202 39.4453 19.3984 39.4453 17.5312ZM36.8672 33C36.8672 35.1854 35.0539 36.9357 32.8711 36.8642C30.7779 36.7957 29.1328 35.0701 29.1328 33C29.1328 30.8549 30.8796 29.1328 33 29.1328C35.1365 29.1328 36.8672 30.8685 36.8672 33ZM17.5312 36.8672C15.3988 36.8672 13.6641 35.1325 13.6641 33C13.6641 30.8675 15.3988 29.1328 17.5312 29.1328C18.6884 29.1328 18.6934 29.3801 26.6166 32.1097C26.5758 32.4033 26.5547 32.7004 26.5547 33C26.5547 33.2996 26.5758 33.5967 26.6166 33.8903C18.6813 36.624 18.6879 36.8672 17.5312 36.8672ZM36.8672 48.4688C36.8672 50.6012 35.1325 52.3359 33 52.3359C30.8675 52.3359 29.1328 50.6012 29.1328 48.4688C29.1328 47.3116 29.3801 47.3066 32.1097 39.3834C32.4033 39.4237 32.7004 39.4453 33 39.4453C33.2996 39.4453 33.5967 39.4237 33.8903 39.3834C36.624 47.3187 36.8672 47.3121 36.8672 48.4688ZM48.4688 29.1328C50.6012 29.1328 52.3359 30.8675 52.3359 33C52.3359 35.1325 50.6012 36.8672 48.4688 36.8672C47.3116 36.8672 47.3066 36.6199 39.3834 33.8903C39.4237 33.5967 39.4453 33.2996 39.4453 33C39.4453 32.7004 39.4237 32.4033 39.3834 32.1097C47.3187 29.376 47.3121 29.1328 48.4688 29.1328ZM33.8903 26.6166C33.5967 26.5763 33.2996 26.5547 33 26.5547C32.7004 26.5547 32.4033 26.5763 32.1097 26.6166C29.376 18.6813 29.1328 18.6879 29.1328 17.5312C29.1328 15.3988 30.8675 13.6641 33 13.6641C35.1325 13.6641 36.8672 15.3988 36.8672 17.5312C36.8672 18.6884 36.6199 18.6934 33.8903 26.6166Z" fill="#3D6A66"/>
<path d="M38.402 6.46903C37.7051 6.31948 37.0203 6.7631 36.8712 7.45899C36.7222 8.15539 37.1653 8.8407 37.8617 8.98975C49.4199 11.4667 57.4922 21.3401 57.4922 33.0001C57.4922 46.505 46.5049 57.4922 33 57.4922C19.4951 57.4922 8.50781 46.505 8.50781 33.0001C8.50781 21.3401 16.5801 11.4667 28.1383 8.98975C28.8342 8.8407 29.2778 8.15539 29.1288 7.45899C28.9797 6.7631 28.2939 6.31948 27.598 6.46853C14.9909 9.17052 5.92969 19.8526 5.92969 33.0001C5.92969 47.9265 18.0736 60.0704 33 60.0704C47.9264 60.0704 60.0703 47.9265 60.0703 33.0001C60.0703 19.7101 50.8631 9.1393 38.402 6.46903Z" fill="#3D6A66"/>
</svg>
