<svg width="68" height="68" viewBox="0 0 68 68" fill="none" xmlns="http://www.w3.org/2000/svg">
<path d="M52.3936 19.4883H50.1641V48.23H52.3936V19.4883Z" fill="#3D6A66"/>
<path d="M16.7212 19.4883H14.4917V48.23H16.7212V19.4883Z" fill="#3D6A66"/>
<path d="M21.1802 5.11768H18.9507V7.32861H21.1802V5.11768Z" fill="#3D6A66"/>
<path d="M47.9343 5.11768H45.7048V7.32861H47.9343V5.11768Z" fill="#3D6A66"/>
<path d="M42.3605 19.4883H24.5245C23.0467 19.49 21.6301 20.0729 20.5852 21.1091C19.5403 22.1453 18.9525 23.5502 18.9507 25.0155V42.7027C18.9525 44.1681 19.5403 45.573 20.5852 46.6091C21.6301 47.6453 23.0467 48.2282 24.5245 48.23H42.3605C43.8382 48.2282 45.2549 47.6453 46.2998 46.6091C47.3447 45.573 47.9325 44.1681 47.9343 42.7027V25.0155C47.9325 23.5502 47.3447 22.1453 46.2998 21.1091C45.2549 20.0729 43.8382 19.49 42.3605 19.4883ZM45.7048 42.7027C45.7048 43.5823 45.3524 44.4258 44.7253 45.0477C44.0981 45.6697 43.2475 46.0191 42.3605 46.0191H24.5245C23.6375 46.0191 22.7869 45.6697 22.1597 45.0477C21.5325 44.4258 21.1802 43.5823 21.1802 42.7027V25.0155C21.1802 24.136 21.5325 23.2925 22.1597 22.6705C22.7869 22.0486 23.6375 21.6992 24.5245 21.6992H42.3605C43.2475 21.6992 44.0981 22.0486 44.7253 22.6705C45.3524 23.2925 45.7048 24.136 45.7048 25.0155V42.7027Z" fill="#3D6A66"/>
<path d="M67.3757 60.5114L55.9384 54.8294C56.1205 54.7994 56.2919 54.7237 56.4363 54.6095C56.5806 54.4954 56.6932 54.3466 56.7633 54.1772L60.1967 46.0189V49.3353C60.1967 49.6285 60.3142 49.9096 60.5232 50.117C60.7323 50.3243 61.0158 50.4407 61.3115 50.4407H65.7705C66.0661 50.4407 66.3497 50.3243 66.5587 50.117C66.7678 49.9096 66.8852 49.6285 66.8852 49.3353V18.3827C66.8852 18.0895 66.7678 17.8084 66.5587 17.6011C66.3497 17.3937 66.0661 17.2773 65.7705 17.2773H61.3115C61.0158 17.2773 60.7323 17.3937 60.5232 17.6011C60.3142 17.8084 60.1967 18.0895 60.1967 18.3827V21.6991L56.7633 13.5409C56.6813 13.3379 56.5397 13.164 56.3568 13.0418C56.1739 12.9196 55.9582 12.8547 55.7377 12.8555H53.3967L52.3823 3.8903C52.3606 3.63958 52.25 3.40459 52.0702 3.22703L49.8407 1.01614C49.6281 0.812518 49.3447 0.697739 49.0492 0.695557H17.8361C17.5405 0.697739 17.2572 0.812518 17.0446 1.01614L14.8151 3.22703C14.6353 3.40459 14.5247 3.63958 14.503 3.8903L13.4885 12.8555H11.1475C10.927 12.8547 10.7113 12.9196 10.5285 13.0418C10.3456 13.164 10.204 13.3379 10.122 13.5409L6.68852 21.6991V18.3827C6.68852 18.0895 6.57108 17.8084 6.36202 17.6011C6.15296 17.3937 5.86942 17.2773 5.57377 17.2773H1.11475C0.819103 17.2773 0.535561 17.3937 0.326504 17.6011C0.117447 17.8084 0 18.0895 0 18.3827V49.3353C0 49.6285 0.117447 49.9096 0.326504 50.117C0.535561 50.3243 0.819103 50.4407 1.11475 50.4407H5.57377C5.86942 50.4407 6.15296 50.3243 6.36202 50.117C6.57108 49.9096 6.68852 49.6285 6.68852 49.3353V46.0189L10.122 54.1772C10.204 54.3802 10.3456 54.554 10.5285 54.6763C10.7113 54.7985 10.927 54.8634 11.1475 54.8625H11.9948L0.624262 60.5114C0.438341 60.6017 0.28146 60.7416 0.1712 60.9154C0.0609403 61.0891 0.00165909 61.2899 0 61.4952V65.917C0 66.2102 0.117447 66.4914 0.326504 66.6987C0.535561 66.906 0.819103 67.0225 1.11475 67.0225H66.8852C67.1809 67.0225 67.4644 66.906 67.6735 66.6987C67.8826 66.4914 68 66.2102 68 65.917V61.4952C67.9983 61.2899 67.9391 61.0891 67.8288 60.9154C67.7185 60.7416 67.5617 60.6017 67.3757 60.5114ZM61.3115 28.3318C61.4951 28.3308 61.6756 28.2849 61.837 28.1981C61.9984 28.1114 62.1357 27.9864 62.2367 27.8343C62.3558 27.6538 62.4179 27.4421 62.4151 27.2263H62.4262V19.4882H64.6557V48.2298H62.4262V40.4917H62.4151C62.4179 40.276 62.3558 40.0643 62.2367 39.8837C62.1357 39.7316 61.9984 39.6067 61.837 39.5199C61.6756 39.4331 61.4951 39.3872 61.3115 39.3862H56.8525V28.3318H61.3115ZM16.6767 4.52041L18.2931 2.90645H48.5921L50.2085 4.52041L51.1449 12.8555H15.7403L16.6767 4.52041ZM5.57377 39.3862C5.39016 39.3872 5.20963 39.4331 5.04822 39.5199C4.88681 39.6067 4.74951 39.7316 4.64852 39.8837C4.5294 40.0643 4.4673 40.276 4.47016 40.4917H4.45902V48.2298H2.22951V19.4882H4.45902V27.2263H4.47016C4.4673 27.4421 4.5294 27.6538 4.64852 27.8343C4.74951 27.9864 4.88681 28.1114 5.04822 28.1981C5.20963 28.2849 5.39016 28.3308 5.57377 28.3318H10.0328V39.3862H5.57377ZM11.8944 52.6516L7.2459 41.5971H11.1475C11.4432 41.5971 11.7267 41.4807 11.9358 41.2734C12.1448 41.0661 12.2623 40.7849 12.2623 40.4917V27.2263C12.2623 26.9331 12.1448 26.652 11.9358 26.4446C11.7267 26.2373 11.4432 26.1209 11.1475 26.1209H7.2459L11.8944 15.0664H54.9908L59.6393 26.1209H55.7377C55.4421 26.1209 55.1585 26.2373 54.9495 26.4446C54.7404 26.652 54.623 26.9331 54.623 27.2263V40.4917C54.623 40.7849 54.7404 41.0661 54.9495 41.2734C55.1585 41.4807 55.4421 41.5971 55.7377 41.5971H59.6393L54.9908 52.6516H11.8944ZM16.9889 54.8625H51.0111L62.1587 60.3898H5.84131L16.9889 54.8625ZM65.7705 64.8116H2.22951V62.6007H65.7705V64.8116Z" fill="#3D6A66"/>
<path d="M37.9017 30.5429H34.5574V26.1211C34.5577 25.8719 34.473 25.6299 34.3171 25.4344C34.1612 25.2389 33.9432 25.1014 33.6986 25.0442C33.454 24.987 33.1971 25.0134 32.9695 25.1192C32.7419 25.225 32.5571 25.4039 32.445 25.627L27.986 34.4705C27.901 34.639 27.861 34.8263 27.8695 35.0146C27.8781 35.2029 27.9351 35.3858 28.0351 35.5461C28.1351 35.7064 28.2747 35.8386 28.4407 35.9303C28.6067 36.022 28.7936 36.0701 28.9837 36.07H32.3279V41.5972C32.3277 41.8506 32.4153 42.0964 32.576 42.2934C32.7368 42.4904 32.9609 42.6267 33.2108 42.6794C33.2872 42.6947 33.3648 42.7025 33.4427 42.7026C33.6584 42.7027 33.8694 42.6406 34.0503 42.5241C34.2311 42.4075 34.374 42.2415 34.4616 42.046L38.9206 32.0971C38.996 31.9288 39.0278 31.7445 39.0131 31.5609C38.9984 31.3773 38.9377 31.2002 38.8365 31.0458C38.7352 30.8914 38.5967 30.7645 38.4335 30.6767C38.2702 30.5888 38.0874 30.5428 37.9017 30.5429ZM34.5574 36.3884V34.9646C34.5574 34.6714 34.44 34.3902 34.2309 34.1829C34.0219 33.9756 33.7383 33.8592 33.4427 33.8592H30.7874L32.3279 30.8037V31.6483C32.3279 31.9415 32.4454 32.2226 32.6544 32.43C32.8635 32.6373 33.147 32.7537 33.4427 32.7537H36.1861L34.5574 36.3884Z" fill="#3D6A66"/>
</svg>
