<svg width="68" height="68" viewBox="0 0 68 68" fill="none" xmlns="http://www.w3.org/2000/svg">
<path d="M64.1337 29.4371C63.1695 23.0474 60.1439 17.0454 55.5494 12.4509C53.9764 10.8779 52.2377 9.49033 50.3758 8.30466V2.27646C50.3758 1.02117 49.3546 0 48.0993 0H19.9006C18.6454 0 17.6242 1.02117 17.6242 2.27646V8.30466C15.7626 9.49018 14.0242 10.8777 12.4515 12.4502C7.85657 17.0448 4.83064 23.0472 3.86631 29.4371C1.67577 29.8009 0 31.708 0 34C0 36.292 1.67577 38.1991 3.86631 38.5629C4.8305 44.9527 7.85628 50.9548 12.4509 55.5494C13.6217 56.7202 14.8845 57.7882 16.2212 58.7473H14.0259C12.7706 58.7473 11.7495 59.7685 11.7495 61.0238V65.7235C11.7495 66.9788 12.7706 68 14.0259 68H53.9741C55.2294 68 56.2505 66.9788 56.2505 65.7235V61.0238C56.2505 59.7685 55.2294 58.7473 53.9741 58.7473H51.7787C53.1153 57.7882 54.3783 56.7201 55.5491 55.5494C60.1437 50.9548 63.1695 44.9527 64.1337 38.5629C66.3242 38.1991 68 36.292 68 34C68 31.708 66.3242 29.8009 64.1337 29.4371ZM53.9916 14.0087C58.1603 18.1774 60.9375 23.5939 61.8944 29.3736H56.9687C56.1358 25.2026 54.2014 21.3867 51.3247 18.2331L52.2261 17.3318C52.6562 16.9016 52.6562 16.2041 52.2261 15.7741C51.7959 15.3439 51.0984 15.3439 50.6684 15.7741L49.767 16.6754C46.6133 13.7986 42.7974 11.8642 38.6263 11.0313V6.10561C44.4062 7.06245 49.8228 9.83988 53.9916 14.0087ZM24.1722 25.7298C23.2635 26.808 22.5286 28.037 22.011 29.3736H13.2866C14.0781 25.7993 15.7685 22.5262 18.2368 19.7945L24.1722 25.7298ZM19.7945 18.2366C22.5262 15.7685 25.7993 14.0779 29.3736 13.2864V22.0108C28.037 22.5284 26.808 23.2633 25.7298 24.172L19.7945 18.2366ZM24.1722 42.2701L18.2368 48.2055C15.7685 45.4738 14.0781 42.2007 13.2866 38.6263H22.011C22.5286 39.963 23.2635 41.192 24.1722 42.2701ZM25.7298 43.8278C26.808 44.7365 28.037 45.4714 29.3736 45.989V54.7134C25.7993 53.9219 22.5262 52.2315 19.7945 49.7632L25.7298 43.8278ZM23.3521 34C23.3521 28.1286 28.1286 23.3521 34 23.3521C39.8713 23.3521 44.6479 28.1286 44.6479 34C44.6479 39.8713 39.8713 44.6479 34 44.6479C28.1286 44.6479 23.3521 39.8713 23.3521 34ZM38.6263 22.011V13.2866C42.2007 14.0781 45.4738 15.7685 48.2055 18.2368L42.27 24.1723C41.192 23.2635 39.963 22.5286 38.6263 22.011ZM38.6263 45.989C39.963 45.4714 41.192 44.7365 42.2701 43.8278L48.2057 49.7634C45.4739 52.2315 42.2008 53.9221 38.6265 54.7136V45.989H38.6263ZM43.8278 42.2701C44.7365 41.192 45.4714 39.963 45.989 38.6263H54.7134C53.9219 42.2007 52.2315 45.4738 49.7632 48.2055L43.8278 42.2701ZM43.8278 25.7298L49.7634 19.7943C52.2316 22.5261 53.9221 25.7992 54.7136 29.3735H45.9891C45.4714 28.037 44.7365 26.808 43.8278 25.7298ZM48.0993 2.20302C48.1399 2.20302 48.1728 2.23592 48.1728 2.27646V7.02676C45.1754 5.45072 41.923 4.37344 38.5629 3.86631C38.463 3.26503 38.2474 2.70267 37.9389 2.20302H48.0993ZM31.5767 4.62635C31.5767 3.29014 32.6638 2.20302 34 2.20302C35.3362 2.20302 36.4233 3.29014 36.4233 4.62635V21.3792C35.6382 21.2288 34.8283 21.149 34 21.149C33.1717 21.149 32.3618 21.2288 31.5767 21.3792V4.62635ZM19.8272 2.27646C19.8272 2.23592 19.8601 2.20302 19.9006 2.20302H30.0611C29.7526 2.70267 29.537 3.26503 29.4371 3.86631C26.077 4.37344 22.8245 5.45072 19.8272 7.02676V2.27646ZM14.0092 14.008C18.1777 9.83958 23.5942 7.06245 29.3736 6.10561V11.0313C25.2026 11.8642 21.3867 13.7986 18.2331 16.6753L17.3318 15.7739C16.9016 15.3438 16.2041 15.3438 15.7741 15.7739C15.3439 16.2041 15.3439 16.9016 15.7741 17.3316L16.6754 18.233C13.7987 21.3867 11.8643 25.2026 11.0314 29.3736H6.10561C7.06245 23.5936 9.84017 18.1769 14.0092 14.008ZM2.20302 34C2.20302 32.6638 3.29014 31.5767 4.62635 31.5767H21.3792C21.2288 32.3618 21.149 33.1717 21.149 34C21.149 34.8283 21.2288 35.6382 21.3792 36.4233H4.62635C3.29014 36.4233 2.20302 35.3362 2.20302 34ZM14.0087 53.9916C9.83988 49.8228 7.06245 44.4062 6.10561 38.6263H11.0313C11.8642 42.7974 13.7986 46.6133 16.6753 49.7669L15.7739 50.6682C15.3438 51.0984 15.3438 51.7959 15.7739 52.2259C15.989 52.4409 16.2709 52.5486 16.5528 52.5486C16.8346 52.5486 17.1166 52.4411 17.3316 52.2259L18.233 51.3246C21.3867 54.2014 25.2026 56.1357 29.3736 56.9687V61.8944C23.5939 60.9375 18.1774 58.1603 14.0087 53.9916ZM14.0259 65.797C13.9854 65.797 13.9525 65.7641 13.9525 65.7235V61.0238C13.9525 60.9832 13.9854 60.9503 14.0259 60.9503H19.7836C22.7929 62.5388 26.0607 63.6242 29.4371 64.1337C29.537 64.735 29.7526 65.2973 30.0611 65.797H14.0259ZM36.4233 63.3736C36.4233 64.7099 35.3362 65.797 34 65.797C32.6638 65.797 31.5767 64.7099 31.5767 63.3736V46.6208C32.3618 46.7712 33.1717 46.851 34 46.851C34.8283 46.851 35.6382 46.7712 36.4233 46.6208V63.3736ZM53.9741 60.9503C54.0146 60.9503 54.0475 60.9832 54.0475 61.0238V65.7235C54.0475 65.7641 54.0146 65.797 53.9741 65.797H37.9389C38.2474 65.2973 38.463 64.735 38.5629 64.1337C41.9394 63.6242 45.2071 62.5388 48.2164 60.9503H53.9741ZM53.9913 53.9916C49.8226 58.1603 44.4061 60.9375 38.6263 61.8944V56.9687C42.7974 56.1358 46.6133 54.2014 49.7669 51.3247L50.6682 52.2261C50.8832 52.4411 51.1652 52.5487 51.4471 52.5487C51.7289 52.5487 52.0109 52.4412 52.2259 52.2261C52.6561 51.7959 52.6561 51.0984 52.2259 50.6684L51.3246 49.767C54.2014 46.6133 56.1357 42.7974 56.9687 38.6263H61.8944C60.9375 44.4062 58.1601 49.8228 53.9913 53.9916ZM63.3736 36.4233H46.6208C46.7712 35.6382 46.851 34.8283 46.851 34C46.851 33.1717 46.7712 32.3618 46.6208 31.5767H63.3736C64.7099 31.5767 65.797 32.6638 65.797 34C65.797 35.3362 64.7099 36.4233 63.3736 36.4233Z" fill="#3D6A66"/>
<path d="M34.0001 25.8486C29.5055 25.8486 25.8489 29.5052 25.8489 33.9998C25.8489 38.4944 29.5055 42.151 34.0001 42.151C38.4947 42.151 42.1513 38.4944 42.1513 33.9998C42.1513 29.5052 38.4947 25.8486 34.0001 25.8486ZM34.0001 39.948C30.7202 39.948 28.0519 37.2797 28.0519 33.9998C28.0519 30.72 30.7202 28.0517 34.0001 28.0517C37.2799 28.0517 39.9482 30.72 39.9482 33.9998C39.9482 37.2797 37.2799 39.948 34.0001 39.948Z" fill="#3D6A66"/>
<path d="M34.0001 29.3738C31.4492 29.3738 29.3738 31.4492 29.3738 34.0001C29.3738 36.5511 31.4492 38.6265 34.0001 38.6265C36.5511 38.6265 38.6265 36.5511 38.6265 34.0001C38.6265 31.4492 36.5511 29.3738 34.0001 29.3738ZM34.0001 36.4235C32.6639 36.4235 31.5768 35.3363 31.5768 34.0001C31.5768 32.6639 32.6639 31.5768 34.0001 31.5768C35.3363 31.5768 36.4235 32.6639 36.4235 34.0001C36.4235 35.3363 35.3363 36.4235 34.0001 36.4235Z" fill="#3D6A66"/>
</svg>
