<svg width="23" height="23" viewBox="0 0 23 23" fill="none" xmlns="http://www.w3.org/2000/svg">
<g opacity="0.7">
<path d="M16.7741 0H6.22588C2.79287 0 0 2.79287 0 6.22588V16.7743C0 20.2071 2.79287 23 6.22588 23H16.7743C20.2071 23 23 20.2071 23 16.7743V6.22588C23 2.79287 20.2071 0 16.7741 0V0ZM21.6516 16.7743C21.6516 19.4636 19.4636 21.6516 16.7741 21.6516H6.22588C3.53636 21.6516 1.34836 19.4636 1.34836 16.7743V6.22588C1.34836 3.53636 3.53636 1.34836 6.22588 1.34836H16.7743C19.4636 1.34836 21.6516 3.53636 21.6516 6.22588V16.7743Z" fill="#9F9F9F"/>
<path d="M11.5001 5.21114C8.03231 5.21114 5.21118 8.03226 5.21118 11.5C5.21118 14.9678 8.03231 17.7889 11.5001 17.7889C14.9678 17.7889 17.7889 14.9678 17.7889 11.5C17.7889 8.03226 14.9678 5.21114 11.5001 5.21114ZM11.5001 16.4405C8.77597 16.4405 6.55954 14.2243 6.55954 11.5C6.55954 8.77593 8.77597 6.5595 11.5001 6.5595C14.2243 6.5595 16.4406 8.77593 16.4406 11.5C16.4406 14.2243 14.2243 16.4405 11.5001 16.4405Z" fill="#9F9F9F"/>
<path d="M17.9393 2.97757C16.9146 2.97757 16.0811 3.81126 16.0811 4.83586C16.0811 5.86064 16.9146 6.69432 17.9393 6.69432C18.9641 6.69432 19.7978 5.86064 19.7978 4.83586C19.7978 3.81108 18.9641 2.97757 17.9393 2.97757ZM17.9393 5.34579C17.6582 5.34579 17.4294 5.11697 17.4294 4.83586C17.4294 4.55457 17.6582 4.32593 17.9393 4.32593C18.2206 4.32593 18.4495 4.55457 18.4495 4.83586C18.4495 5.11697 18.2206 5.34579 17.9393 5.34579Z" fill="#9F9F9F"/>
</g>
</svg>
