<svg width="70" height="70" viewBox="0 0 70 70" fill="none" xmlns="http://www.w3.org/2000/svg">
<path d="M52.8226 56.9109C52.6176 56.9112 52.418 56.8448 52.2539 56.7218C52.0899 56.5988 51.9702 56.4258 51.913 56.2289C51.8558 56.032 51.8642 55.8218 51.9368 55.63C52.0094 55.4383 52.1423 55.2753 52.3156 55.1656L54.689 53.6625C54.7939 53.5949 54.9111 53.5486 55.034 53.5265C55.1569 53.5044 55.2829 53.5068 55.4048 53.5336C55.5267 53.5604 55.6421 53.6111 55.7444 53.6827C55.8466 53.7543 55.9337 53.8455 56.0006 53.9509C56.0674 54.0563 56.1127 54.174 56.1339 54.297C56.1551 54.42 56.1517 54.546 56.124 54.6677C56.0962 54.7894 56.0447 54.9045 55.9722 55.0062C55.8998 55.1079 55.808 55.1942 55.7021 55.2602L53.3277 56.7643C53.1766 56.8599 53.0015 56.9108 52.8226 56.9109Z" fill="#3D6A66"/>
<path d="M35.1145 66.4054C33.3998 66.4055 31.713 65.971 30.2117 65.1426L20.5167 59.8311C19.4078 59.2257 18.1718 58.8903 16.9091 58.8521C15.6463 58.814 14.3923 59.0742 13.249 59.6117L11.464 60.463C10.8198 60.7664 10.086 60.8201 9.40457 60.6137C8.72311 60.4074 8.1424 59.9556 7.77476 59.3458C5.03962 55 3.10459 50.1996 2.06125 45.1718C1.92863 44.5122 2.03173 43.8269 2.35258 43.2355C2.67342 42.6442 3.19166 42.1841 3.81693 41.9357L12.9926 38.3231C15.831 37.1655 18.9188 36.7548 21.9611 37.1303C23.6688 37.2878 25.3258 37.7947 26.8294 38.6194C28.333 39.4441 29.651 40.569 30.7017 41.9244C30.7963 42.0294 34.1827 45.8027 42.1958 45.203L43.1749 45.1727C44.3786 45.1385 45.5523 45.5513 46.4695 46.3314C47.3868 47.1116 47.9826 48.2038 48.1421 49.3973C48.1619 49.5241 48.1742 49.6726 48.1856 49.8211V50.0434C48.1934 51.3299 47.6909 52.5671 46.7882 53.4838C45.8855 54.4005 44.6563 54.922 43.3698 54.934C38.5161 55.0144 29.7765 54.8441 25.8367 52.7583C25.6204 52.6381 25.4599 52.438 25.3895 52.2008C25.319 51.9637 25.3443 51.7084 25.4599 51.4896C25.5754 51.2709 25.7721 51.1061 26.0076 51.0306C26.2432 50.9552 26.499 50.975 26.7202 51.0858C29.3244 52.4612 35.3727 53.1735 43.3367 53.0383C44.126 53.0315 44.8806 52.7121 45.4348 52.15C45.9891 51.5879 46.298 50.829 46.2937 50.0396V49.8883C46.2937 49.8618 46.2833 49.7644 46.2681 49.6669C46.1738 48.9339 45.8109 48.2619 45.2496 47.781C44.6883 47.3001 43.9686 47.0445 43.2298 47.0637L42.2952 47.0921C33.2898 47.7608 29.3821 43.2894 29.2203 43.0983C28.3225 41.9308 27.1907 40.9637 25.8975 40.2588C24.6043 39.554 23.1782 39.127 21.7104 39.0052C18.9881 38.6734 16.2262 39.0443 13.6879 40.0826L4.5122 43.6971C4.29871 43.7838 4.12256 43.9428 4.01463 44.1464C3.9067 44.35 3.87388 44.5851 3.92193 44.8104C4.92101 49.616 6.77209 54.2039 9.3876 58.3573C9.51219 58.568 9.71042 58.725 9.944 58.798C10.1776 58.871 10.4299 58.8549 10.6523 58.7527L12.4392 57.9014C13.8531 57.2373 15.4036 56.9159 16.9649 56.963C18.5263 57.0102 20.0545 57.4247 21.4257 58.1729L31.1217 63.4881C32.298 64.1375 33.6149 64.4901 34.9584 64.5155C36.3018 64.5409 37.6311 64.2383 38.8311 63.6338C38.9422 63.5769 39.0634 63.5424 39.1878 63.5325C39.3122 63.5226 39.4373 63.5375 39.5559 63.5761C39.6746 63.6148 39.7844 63.6766 39.8791 63.7579C39.9738 63.8391 40.0514 63.9384 40.1076 64.0498C40.1637 64.1613 40.1973 64.2827 40.2063 64.4072C40.2153 64.5316 40.1996 64.6567 40.1601 64.775C40.1206 64.8934 40.058 65.0028 39.9761 65.0969C39.8941 65.191 39.7943 65.2679 39.6825 65.3233C38.2653 66.036 36.7008 66.4066 35.1145 66.4054Z" fill="#3D6A66"/>
<path d="M44.8861 61.9245C44.6813 61.9244 44.4821 61.8579 44.3183 61.7349C44.1546 61.612 44.0352 61.4392 43.978 61.2426C43.9209 61.0459 43.9291 60.8361 44.0014 60.6445C44.0737 60.4529 44.2062 60.29 44.379 60.1802L46.7061 58.7045C46.811 58.6344 46.9288 58.586 47.0527 58.5621C47.1766 58.5383 47.304 58.5394 47.4274 58.5655C47.5509 58.5916 47.6678 58.6422 47.7714 58.7142C47.875 58.7862 47.9632 58.8782 48.0307 58.9848C48.0982 59.0913 48.1437 59.2103 48.1646 59.3348C48.1854 59.4592 48.1811 59.5866 48.152 59.7093C48.1229 59.8321 48.0695 59.9478 47.995 60.0496C47.9205 60.1514 47.8264 60.2373 47.7182 60.3022L45.3912 61.7779C45.2402 61.8738 45.065 61.9247 44.8861 61.9245Z" fill="#3D6A66"/>
<path d="M60.8063 51.8501C60.6015 51.8501 60.4023 51.7836 60.2386 51.6606C60.0749 51.5376 59.9554 51.3649 59.8983 51.1682C59.8411 50.9716 59.8493 50.7617 59.9216 50.5702C59.9939 50.3786 60.1265 50.2156 60.2993 50.1058L64.7821 47.268C65.4123 46.8773 65.8639 46.2549 66.04 45.5346C66.2161 44.8144 66.1025 44.0538 65.7236 43.4164C65.3448 42.7791 64.7309 42.3158 64.0141 42.1263C63.2973 41.9368 62.5347 42.0361 61.8904 42.403L47.6633 50.3489L47.5687 50.3972C47.4575 50.4538 47.3361 50.4879 47.2117 50.4975C47.0872 50.507 46.9621 50.4919 46.8435 50.4528C46.7249 50.4138 46.6152 50.3516 46.5208 50.27C46.4263 50.1884 46.3489 50.0888 46.2931 49.9772C46.2373 49.8655 46.2042 49.7439 46.1956 49.6193C46.187 49.4948 46.2032 49.3698 46.2431 49.2515C46.2831 49.1332 46.3461 49.024 46.4285 48.9302C46.5108 48.8364 46.611 48.7598 46.7231 48.7049L60.9681 40.7514C62.0427 40.146 63.3115 39.985 64.5032 40.303C65.6949 40.6209 66.7149 41.3925 67.3451 42.4527C67.9753 43.513 68.1657 44.7777 67.8755 45.9764C67.5853 47.1752 66.8377 48.2129 65.7924 48.8676L61.3114 51.7054C61.1604 51.801 60.9851 51.8512 60.8063 51.8501Z" fill="#3D6A66"/>
<path d="M45.6106 40.9121H41.4163C41.0555 40.9122 40.7073 40.7794 40.4384 40.5389C40.1694 40.2984 39.9986 39.9672 39.9586 39.6086L39.7618 37.8605C38.1254 37.4719 36.5611 36.8256 35.1276 35.9459L33.7522 37.0413C33.4707 37.2669 33.1158 37.3805 32.7556 37.3605C32.3955 37.3404 32.0554 37.188 31.8007 36.9325L28.8352 33.9594C28.5801 33.7045 28.428 33.3646 28.4077 33.0046C28.3875 32.6446 28.5006 32.2898 28.7255 32.0079L29.8218 30.6335C28.941 29.1997 28.2935 27.6352 27.9034 25.9983L26.1544 25.8006C25.7959 25.7606 25.4648 25.5897 25.2245 25.3207C24.9841 25.0518 24.8514 24.7036 24.8518 24.3429V20.1543C24.8515 19.7934 24.9843 19.4451 25.2248 19.1762C25.4654 18.9072 25.7967 18.7364 26.1553 18.6966L27.9034 18.4998C28.2936 16.863 28.9411 15.2985 29.8218 13.8647L28.7255 12.4864C28.5006 12.2046 28.3875 11.8497 28.4077 11.4897C28.428 11.1297 28.5801 10.7898 28.8352 10.5349L31.8007 7.56941C32.0555 7.31368 32.3957 7.16111 32.7561 7.14103C33.1165 7.12095 33.4716 7.23478 33.7532 7.46062L35.1276 8.55603C36.561 7.67454 38.1257 7.02697 39.7628 6.63765L39.9595 4.8886C40.0019 4.53199 40.1736 4.20331 40.4421 3.96482C40.7105 3.72633 41.0572 3.59458 41.4163 3.59454H45.6106C45.9712 3.59459 46.3191 3.72742 46.588 3.96768C46.8569 4.20795 47.0278 4.53881 47.0683 4.89711L47.2651 6.64616C48.9022 7.03548 50.4668 7.68305 51.9002 8.56454L53.2747 7.46346C53.5563 7.238 53.9112 7.1245 54.2714 7.14475C54.6316 7.16501 54.9716 7.31758 55.2261 7.57319L58.1917 10.5387C58.4467 10.7936 58.5989 11.1335 58.6191 11.4935C58.6394 11.8535 58.5263 12.2084 58.3014 12.4902L57.2051 13.8647C58.0858 15.2985 58.7333 16.863 59.1234 18.4998L60.8725 18.6966C61.231 18.7366 61.5621 18.9075 61.8024 19.1764C62.0427 19.4454 62.1754 19.7936 62.1751 20.1543V24.3477C62.1754 24.7085 62.0426 25.0568 61.802 25.3258C61.5615 25.5947 61.2302 25.7655 60.8715 25.8054L59.1234 26.0031C58.7334 27.6399 58.0859 29.2045 57.2051 30.6382L58.3014 32.0126C58.5263 32.2945 58.6394 32.6493 58.6191 33.0093C58.5989 33.3693 58.4467 33.7093 58.1917 33.9641L55.2261 36.9297C54.971 37.1847 54.6308 37.3367 54.2707 37.3568C53.9105 37.3768 53.5556 37.2635 53.2737 37.0385L51.8992 35.9459C50.4656 36.8267 48.901 37.4739 47.2641 37.8633L47.0674 39.6124C47.0265 39.9701 46.8554 40.3003 46.5867 40.54C46.3181 40.7796 45.9706 40.9121 45.6106 40.9121ZM41.7965 39.0202H45.2303L45.4611 36.9732C45.4836 36.7736 45.5691 36.5863 45.7052 36.4385C45.8412 36.2907 46.0208 36.1901 46.2179 36.1512C48.0822 35.7929 49.8542 35.0594 51.4263 33.9954C51.5932 33.8826 51.7918 33.8262 51.9931 33.8342C52.1944 33.8422 52.3878 33.9142 52.5453 34.0398L54.1534 35.3225L56.5807 32.8943L55.298 31.2862C55.1724 31.1287 55.1004 30.9352 55.0924 30.7339C55.0844 30.5326 55.1409 30.3341 55.2536 30.1671C56.3179 28.5951 57.0513 26.8231 57.4094 24.9587C57.4483 24.7617 57.5489 24.5821 57.6967 24.446C57.8445 24.31 58.0318 24.2245 58.2314 24.202L60.2794 23.9712V20.5374L58.2314 20.3056C58.0318 20.2831 57.8445 20.1976 57.6967 20.0616C57.5489 19.9255 57.4483 19.7459 57.4094 19.5489C57.0514 17.6848 56.3179 15.9131 55.2536 14.3414C55.1409 14.1745 55.0844 13.9759 55.0924 13.7746C55.1004 13.5733 55.1724 13.3799 55.298 13.2224L56.5807 11.6143L54.1572 9.17562L52.5491 10.4583C52.3916 10.5839 52.1982 10.656 51.9969 10.664C51.7956 10.672 51.597 10.6155 51.4301 10.5028C49.858 9.43882 48.0859 8.70568 46.2217 8.34792C46.0245 8.30896 45.8448 8.20818 45.7087 8.0602C45.5726 7.91222 45.4872 7.72474 45.4649 7.52495L45.2303 5.48644H41.7965L41.5657 7.53346C41.5434 7.73325 41.458 7.92073 41.3219 8.06871C41.1859 8.21669 41.0062 8.31747 40.809 8.35643C38.9447 8.71419 37.1727 9.44733 35.6006 10.5113C35.4336 10.624 35.2351 10.6805 35.0338 10.6725C34.8325 10.6645 34.639 10.5924 34.4815 10.4668L32.8696 9.17562L30.4423 11.6039L31.7251 13.212C31.8506 13.3695 31.9227 13.5629 31.9307 13.7642C31.9387 13.9655 31.8822 14.1641 31.7695 14.331C30.7051 15.9026 29.9717 17.6744 29.6137 19.5385C29.5748 19.7355 29.4741 19.9151 29.3264 20.0512C29.1786 20.1872 28.9913 20.2727 28.7917 20.2952L26.7437 20.527V23.9608L28.7917 24.1916C28.9913 24.2141 29.1786 24.2996 29.3264 24.4356C29.4741 24.5717 29.5748 24.7512 29.6137 24.9483C29.9717 26.8127 30.7052 28.5847 31.7695 30.1567C31.8822 30.3237 31.9387 30.5222 31.9307 30.7235C31.9227 30.9248 31.8506 31.1183 31.7251 31.2758L30.4423 32.8839L32.8696 35.3121L34.4778 34.0294C34.6352 33.9038 34.8287 33.8318 35.03 33.8238C35.2313 33.8158 35.4299 33.8722 35.5968 33.9849C37.1689 35.049 38.9409 35.7825 40.8052 36.1408C41.0023 36.1797 41.1818 36.2803 41.3179 36.4281C41.454 36.5759 41.5394 36.7632 41.5619 36.9628L41.7965 39.0202Z" fill="#3D6A66"/>
<path d="M43.5135 33.3436C41.3195 33.3436 39.1748 32.693 37.3505 31.4741C35.5263 30.2552 34.1044 28.5227 33.2648 26.4957C32.4252 24.4687 32.2055 22.2382 32.6336 20.0864C33.0616 17.9345 34.1181 15.9579 35.6695 14.4065C37.2209 12.8551 39.1975 11.7986 41.3494 11.3706C43.5012 10.9425 45.7317 11.1622 47.7587 12.0018C49.7857 12.8414 51.5182 14.2633 52.7371 16.0875C53.956 17.9118 54.6066 20.0565 54.6066 22.2505C54.6031 25.1915 53.4333 28.0111 51.3537 30.0907C49.2741 32.1703 46.4545 33.3401 43.5135 33.3436ZM43.5135 13.054C41.6937 13.054 39.9147 13.5937 38.4015 14.6048C36.8884 15.6159 35.709 17.053 35.0126 18.7343C34.3162 20.4157 34.1341 22.2658 34.4892 24.0507C34.8443 25.8356 35.7207 27.4751 37.0076 28.7618C38.2945 30.0486 39.9341 30.9249 41.719 31.2798C43.504 31.6347 45.3541 31.4524 47.0353 30.7558C48.7166 30.0592 50.1536 28.8797 51.1645 27.3665C52.1755 25.8532 52.7149 24.0742 52.7148 22.2543C52.7117 19.815 51.7413 17.4765 50.0164 15.7517C48.2915 14.027 45.9528 13.0568 43.5135 13.054Z" fill="#F27039"/>
</svg>
