<svg width="70" height="70" viewBox="0 0 70 70" fill="none" xmlns="http://www.w3.org/2000/svg">
<path d="M10.4054 45.8216C10.1545 45.8216 9.91393 45.722 9.73653 45.5446C9.55913 45.3672 9.45947 45.1266 9.45947 44.8757V42.0662C9.45947 41.8154 9.55913 41.5748 9.73653 41.3974C9.91393 41.22 10.1545 41.1203 10.4054 41.1203C10.6563 41.1203 10.8969 41.22 11.0743 41.3974C11.2517 41.5748 11.3514 41.8154 11.3514 42.0662V44.8757C11.3514 45.1266 11.2517 45.3672 11.0743 45.5446C10.8969 45.722 10.6563 45.8216 10.4054 45.8216Z" fill="#3D6A66"/>
<path d="M59.5946 68.1081H10.4054C10.1545 68.1081 9.91393 68.0084 9.73653 67.831C9.55913 67.6536 9.45947 67.413 9.45947 67.1621V51.4973C9.45947 51.2464 9.55913 51.0058 9.73653 50.8284C9.91393 50.651 10.1545 50.5513 10.4054 50.5513C10.6563 50.5513 10.8969 50.651 11.0743 50.8284C11.2517 51.0058 11.3514 51.2464 11.3514 51.4973V66.2162H58.6487V18.5925L43.8314 3.78374H11.3514V26.0702C11.3514 26.3211 11.2517 26.5617 11.0743 26.7391C10.8969 26.9165 10.6563 27.0162 10.4054 27.0162C10.1545 27.0162 9.91393 26.9165 9.73653 26.7391C9.55913 26.5617 9.45947 26.3211 9.45947 26.0702V2.83779C9.45947 2.58691 9.55913 2.34631 9.73653 2.16891C9.91393 1.99151 10.1545 1.89185 10.4054 1.89185H44.223C44.4737 1.89165 44.7143 1.991 44.8918 2.16806L60.2634 17.5312C60.4408 17.7085 60.5405 17.9491 60.5406 18.2V67.1621C60.5406 67.413 60.4409 67.6536 60.2635 67.831C60.0861 68.0084 59.8455 68.1081 59.5946 68.1081Z" fill="#3D6A66"/>
<path d="M10.4054 36.3905C10.1545 36.3905 9.91393 36.2908 9.73653 36.1134C9.55913 35.936 9.45947 35.6954 9.45947 35.4446V32.6919C9.45947 32.441 9.55913 32.2004 9.73653 32.023C9.91393 31.8456 10.1545 31.7459 10.4054 31.7459C10.6563 31.7459 10.8969 31.8456 11.0743 32.023C11.2517 32.2004 11.3514 32.441 11.3514 32.6919V35.4446C11.3514 35.6954 11.2517 35.936 11.0743 36.1134C10.8969 36.2908 10.6563 36.3905 10.4054 36.3905Z" fill="#3D6A66"/>
<path d="M59.5947 19.1459H44.223C43.9722 19.1459 43.7316 19.0462 43.5542 18.8688C43.3768 18.6914 43.2771 18.4508 43.2771 18.2V2.83779C43.2771 2.58691 43.3768 2.34631 43.5542 2.16891C43.7316 1.99151 43.9722 1.89185 44.223 1.89185C44.4739 1.89185 44.7145 1.99151 44.8919 2.16891C45.0693 2.34631 45.169 2.58691 45.169 2.83779V17.254H59.5947C59.8456 17.254 60.0862 17.3537 60.2636 17.5311C60.441 17.7085 60.5406 17.9491 60.5406 18.2C60.5406 18.4508 60.441 18.6914 60.2636 18.8688C60.0862 19.0462 59.8456 19.1459 59.5947 19.1459Z" fill="#3D6A66"/>
<path d="M37.838 13.2432H16.0812C15.8303 13.2432 15.5897 13.1435 15.4123 12.9661C15.2349 12.7888 15.1353 12.5481 15.1353 12.2973C15.1353 12.0464 15.2349 11.8058 15.4123 11.6284C15.5897 11.451 15.8303 11.3513 16.0812 11.3513H37.838C38.0888 11.3513 38.3295 11.451 38.5069 11.6284C38.6843 11.8058 38.7839 12.0464 38.7839 12.2973C38.7839 12.5481 38.6843 12.7888 38.5069 12.9661C38.3295 13.1435 38.0888 13.2432 37.838 13.2432Z" fill="#3D6A66"/>
<path d="M37.838 19.8649H16.0812C15.8303 19.8649 15.5897 19.7652 15.4123 19.5878C15.2349 19.4104 15.1353 19.1698 15.1353 18.9189C15.1353 18.668 15.2349 18.4274 15.4123 18.25C15.5897 18.0726 15.8303 17.973 16.0812 17.973H37.838C38.0888 17.973 38.3295 18.0726 38.5069 18.25C38.6843 18.4274 38.7839 18.668 38.7839 18.9189C38.7839 19.1698 38.6843 19.4104 38.5069 19.5878C38.3295 19.7652 38.0888 19.8649 37.838 19.8649Z" fill="#3D6A66"/>
<path d="M35.0001 60.1887C34.8291 60.1889 34.6613 60.1425 34.5148 60.0544C26.2094 55.0872 21.998 48.3379 21.998 39.9937V32.4507C21.9981 32.2529 22.0602 32.0601 22.1756 31.8994C22.291 31.7387 22.4539 31.6182 22.6413 31.5549L34.6974 27.4873C34.8936 27.4202 35.1066 27.4202 35.3028 27.4873L47.3589 31.5549C47.5463 31.6182 47.7091 31.7387 47.8245 31.8994C47.9399 32.0601 48.002 32.2529 48.0021 32.4507V39.9937C48.0021 48.3388 43.7908 55.0872 35.4853 60.0544C35.3388 60.1425 35.171 60.1889 35.0001 60.1887ZM23.8899 33.1346V39.9984C23.8899 47.4714 27.6274 53.5699 35.0001 58.1398C42.3728 53.5699 46.1102 47.4685 46.1102 39.9984V33.1299L35.0001 29.3773L23.8899 33.1346Z" fill="#F27039"/>
<path d="M32.5822 47.0211C32.3315 47.0213 32.091 46.9219 31.9135 46.7449L28.9252 43.7557C28.7529 43.5773 28.6575 43.3383 28.6597 43.0903C28.6619 42.8423 28.7613 42.605 28.9367 42.4296C29.1121 42.2542 29.3494 42.1547 29.5974 42.1526C29.8454 42.1504 30.0844 42.2458 30.2628 42.4181L32.5822 44.7376L39.7374 37.5824C39.8253 37.4946 39.9296 37.4249 40.0444 37.3774C40.1592 37.3299 40.2822 37.3055 40.4065 37.3055C40.5307 37.3056 40.6538 37.3301 40.7685 37.3777C40.8833 37.4253 40.9876 37.495 41.0754 37.5829C41.1632 37.6708 41.2329 37.7751 41.2804 37.8899C41.3279 38.0047 41.3523 38.1278 41.3523 38.252C41.3523 38.3763 41.3277 38.4993 41.2801 38.6141C41.2326 38.7288 41.1628 38.8331 41.0749 38.9209L33.251 46.7449C33.0735 46.9219 32.833 47.0213 32.5822 47.0211Z" fill="#3D6A66"/>
</svg>
