<svg width="70" height="70" viewBox="0 0 70 70" fill="none" xmlns="http://www.w3.org/2000/svg">
<path d="M38.8064 68.1081H31.1935C30.7284 68.1082 30.2797 67.9371 29.9328 67.6274C29.5859 67.3177 29.3652 66.8911 29.3129 66.429L28.8939 62.7095C25.6337 62 22.5264 60.7142 19.7182 58.9125L16.7943 61.2443C16.4318 61.533 15.9759 61.6786 15.5131 61.6535C15.0503 61.6284 14.6129 61.4343 14.2837 61.1081L8.89185 55.7162C8.56309 55.3873 8.367 54.9488 8.341 54.4845C8.315 54.0202 8.46092 53.5626 8.7509 53.199L11.0817 50.2751C9.28074 47.4666 7.99524 44.3594 7.28563 41.0994L3.56617 40.6804C3.10609 40.6271 2.68153 40.4069 2.37294 40.0615C2.06435 39.7162 1.89317 39.2696 1.89185 38.8064V31.1935C1.89168 30.7284 2.06279 30.2797 2.3725 29.9328C2.68222 29.5859 3.10883 29.3652 3.5709 29.3129L7.29036 28.8939C7.99997 25.6339 9.28547 22.5267 11.0864 19.7182L8.75563 16.7981C8.46584 16.4353 8.31958 15.9786 8.3447 15.5149C8.36981 15.0513 8.56456 14.6131 8.89185 14.2837L14.2837 8.89752C14.6125 8.56863 15.0509 8.37236 15.5152 8.34619C15.9795 8.32002 16.4372 8.46577 16.8009 8.75563L19.7248 11.0874C22.533 9.28574 25.6403 7.99989 28.9005 7.29036L29.3186 3.57185C29.3706 3.11058 29.5903 2.68452 29.9361 2.37474C30.2818 2.06497 30.7293 1.8931 31.1935 1.89185H38.8064C39.2715 1.89168 39.7203 2.06279 40.0671 2.3725C40.414 2.68222 40.6347 3.10883 40.687 3.5709L41.106 7.29036C44.3662 7.99989 47.4735 9.28574 50.2817 11.0874L53.2056 8.75563C53.5681 8.4669 54.024 8.32127 54.4868 8.34638C54.9496 8.37149 55.387 8.56558 55.7162 8.89185L61.1081 14.2837C61.4368 14.6126 61.6329 15.0511 61.6589 15.5154C61.6849 15.9797 61.539 16.4373 61.249 16.8009L58.9135 19.722C60.7144 22.5304 61.9999 25.6377 62.7095 28.8977L66.429 29.3167C66.8904 29.369 67.3165 29.5891 67.6262 29.9352C67.9358 30.2812 68.1073 30.7291 68.1081 31.1935V38.8064C68.1082 39.2715 67.9371 39.7203 67.6274 40.0671C67.3177 40.414 66.8911 40.6347 66.429 40.687L62.7095 41.106C61.9999 44.366 60.7144 47.4732 58.9135 50.2817L61.2443 53.2056C61.533 53.5681 61.6786 54.024 61.6535 54.4868C61.6284 54.9496 61.4343 55.387 61.1081 55.7162L55.7162 61.1024C55.3874 61.4313 54.949 61.6275 54.4847 61.6537C54.0204 61.6799 53.5627 61.5341 53.199 61.2443L50.2751 58.9125C47.4669 60.7142 44.3596 62 41.0994 62.7095L40.6813 66.4281C40.6293 66.8893 40.4096 67.3154 40.0639 67.6252C39.7182 67.9349 39.2706 68.1068 38.8064 68.1081ZM19.6681 56.7993C19.8569 56.7994 20.0414 56.8561 20.1978 56.962C23.139 58.9516 26.4538 60.3229 29.941 60.9927C30.1383 61.0316 30.3179 61.1324 30.454 61.2804C30.5901 61.4284 30.6755 61.6158 30.6978 61.8156L31.1935 66.2162H38.8064L39.3021 61.8156C39.3244 61.6158 39.4098 61.4284 39.5459 61.2804C39.682 61.1324 39.8617 61.0316 40.0589 60.9927C43.5461 60.3229 46.8609 58.9516 49.8021 56.962C49.9691 56.8493 50.1677 56.7928 50.3689 56.8008C50.5702 56.8088 50.7637 56.8808 50.9212 57.0064L54.3805 59.7648L59.7658 54.3814L57.0064 50.9221C56.8806 50.7645 56.8085 50.5709 56.8005 50.3694C56.7925 50.1679 56.8491 49.9692 56.962 49.8021C58.9516 46.8608 60.3232 43.5461 60.9936 40.0589C61.0325 39.8618 61.1332 39.6822 61.281 39.5462C61.4287 39.4101 61.616 39.3246 61.8156 39.3021L66.2162 38.8064V31.1935L61.8156 30.6968C61.616 30.6743 61.4287 30.5889 61.281 30.4528C61.1332 30.3167 61.0325 30.1372 60.9936 29.9401C60.3226 26.4545 58.951 23.1415 56.962 20.2016C56.8491 20.0345 56.7925 19.8358 56.8005 19.6343C56.8085 19.4328 56.8806 19.2391 57.0064 19.0816L59.7648 15.6223L54.3814 10.2351L50.9212 12.9935C50.7637 13.1191 50.5702 13.1911 50.3689 13.1991C50.1677 13.2071 49.9691 13.1506 49.8021 13.0379C46.8609 11.0483 43.5461 9.67701 40.0589 9.00725C39.8617 8.96829 39.682 8.86751 39.5459 8.71953C39.4098 8.57155 39.3244 8.38407 39.3021 8.18428L38.8064 3.78374H31.1935L30.6978 8.18428C30.6755 8.38407 30.5901 8.57155 30.454 8.71953C30.3179 8.86751 30.1383 8.96829 29.941 9.00725C26.4538 9.67701 23.139 11.0483 20.1978 13.0379C20.0308 13.1506 19.8323 13.2071 19.631 13.1991C19.4297 13.1911 19.2362 13.1191 19.0787 12.9935L15.6194 10.2351L10.2341 15.6185L12.9935 19.0778C13.1193 19.2354 13.1915 19.429 13.1994 19.6305C13.2074 19.832 13.1509 20.0307 13.0379 20.1978C11.0489 23.1377 9.67731 26.4508 9.00631 29.9363C8.96739 30.1334 8.86675 30.313 8.71896 30.449C8.57117 30.5851 8.3839 30.6706 8.18428 30.6931L3.78374 31.1935V38.8064L8.18428 39.3031C8.3839 39.3256 8.57117 39.4111 8.71896 39.5471C8.86675 39.6832 8.96739 39.8627 9.00631 40.0598C9.6767 43.547 11.0483 46.8617 13.0379 49.8031C13.1509 49.9701 13.2074 50.1689 13.1994 50.3704C13.1915 50.5718 13.1193 50.7655 12.9935 50.9231L10.2351 54.3814L15.6185 59.7648L19.0787 57.0064C19.2461 56.8726 19.4538 56.7996 19.6681 56.7993Z" fill="#3D6A66"/>
<path d="M38.3856 55.5175C38.1479 55.5178 37.9187 55.4286 37.7437 55.2675C37.5688 55.1065 37.4609 54.8855 37.4416 54.6485C37.4223 54.4115 37.4929 54.1759 37.6395 53.9886C37.786 53.8014 37.9977 53.6762 38.2324 53.6379C39.1441 53.4877 40.0427 53.2663 40.9198 52.9758C41.0378 52.937 41.1623 52.9218 41.2862 52.9311C41.4101 52.9404 41.531 52.974 41.6419 53.03C41.7527 53.086 41.8515 53.1632 41.9326 53.2574C42.0136 53.3516 42.0753 53.4608 42.1141 53.5788C42.1529 53.6968 42.1681 53.8213 42.1588 53.9452C42.1495 54.0691 42.1159 54.1899 42.0599 54.3008C42.0039 54.4117 41.9266 54.5105 41.8324 54.5915C41.7383 54.6726 41.6291 54.7343 41.511 54.7731C40.5416 55.0949 39.5485 55.3407 38.5408 55.5081C38.4894 55.5154 38.4375 55.5186 38.3856 55.5175Z" fill="#3D6A66"/>
<path d="M30.328 55.2528C30.2528 55.2529 30.1779 55.244 30.1048 55.2263C26.3085 54.3075 22.8475 52.339 20.1174 49.5458C17.3873 46.7526 15.4984 43.2475 14.6666 39.4313C13.8348 35.615 14.0938 31.6418 15.4139 27.9658C16.7339 24.2898 19.0619 21.0595 22.1314 18.6443C25.201 16.2291 28.8883 14.7265 32.7716 14.3083C36.655 13.89 40.5776 14.5731 44.0911 16.2793C47.6045 17.9855 50.5669 20.6461 52.6394 23.9567C54.7119 27.2672 55.811 31.0943 55.8108 35.0001C55.8196 37.8486 55.2353 40.6677 54.0949 43.278C54.0478 43.3956 53.9776 43.5026 53.8883 43.5925C53.7991 43.6824 53.6928 43.7535 53.5756 43.8016C53.4584 43.8496 53.3327 43.8736 53.206 43.8722C53.0794 43.8708 52.9543 43.8439 52.8382 43.7932C52.7221 43.7425 52.6174 43.669 52.5303 43.5771C52.4431 43.4852 52.3753 43.3767 52.3309 43.258C52.2865 43.1394 52.2663 43.0131 52.2717 42.8865C52.277 42.76 52.3077 42.6358 52.3619 42.5213C53.3971 40.1494 53.9274 37.588 53.9189 35.0001C53.919 31.4494 52.9199 27.9704 51.0358 24.9608C49.1518 21.9512 46.4588 19.5326 43.2648 17.9815C40.0709 16.4303 36.5049 15.8093 32.9746 16.1895C29.4444 16.5696 26.0923 17.9355 23.3018 20.131C20.5113 22.3265 18.3949 25.263 17.1947 28.6047C15.9945 31.9463 15.7589 35.5583 16.5149 39.0276C17.2708 42.4969 18.9878 45.6834 21.4695 48.2228C23.9512 50.7621 27.0974 52.5519 30.5484 53.3874C30.7733 53.4417 30.9704 53.5766 31.1026 53.7665C31.2347 53.9564 31.2927 54.1881 31.2655 54.4178C31.2384 54.6476 31.128 54.8594 30.9552 55.0133C30.7825 55.1671 30.5593 55.2523 30.328 55.2528Z" fill="#3D6A66"/>
<path d="M47.0902 51.7054C46.8917 51.7054 46.6982 51.643 46.5371 51.5269C46.3761 51.4108 46.2556 51.247 46.1928 51.0586C46.13 50.8703 46.1281 50.6669 46.1873 50.4774C46.2465 50.2879 46.3638 50.1219 46.5227 50.0027C47.236 49.4625 47.9061 48.8676 48.5271 48.2234C48.702 48.0487 48.9382 47.9494 49.1854 47.9467C49.4326 47.9439 49.671 48.0381 49.8496 48.2089C50.0282 48.3798 50.1329 48.6137 50.1412 48.8608C50.1495 49.1078 50.0608 49.3483 49.894 49.5307C49.204 50.2503 48.4585 50.9145 47.6644 51.5172C47.4988 51.641 47.2971 51.7072 47.0902 51.7054Z" fill="#3D6A66"/>
<path d="M35.0001 22.0405C34.7493 22.0405 34.5087 21.9409 34.3313 21.7635C34.1539 21.5861 34.0542 21.3455 34.0542 21.0946V20.1013C34.0542 19.8505 34.1539 19.6099 34.3313 19.4325C34.5087 19.2551 34.7493 19.1554 35.0001 19.1554C35.251 19.1554 35.4916 19.2551 35.669 19.4325C35.8464 19.6099 35.9461 19.8505 35.9461 20.1013V21.0946C35.9461 21.3455 35.8464 21.5861 35.669 21.7635C35.4916 21.9409 35.251 22.0405 35.0001 22.0405Z" fill="#F27039"/>
<path d="M25.167 26.1137C24.9161 26.1137 24.6756 26.014 24.4982 25.8366L23.7963 25.1337C23.624 24.9553 23.5286 24.7164 23.5308 24.4684C23.533 24.2203 23.6324 23.9831 23.8078 23.8077C23.9832 23.6323 24.2205 23.5328 24.4685 23.5307C24.7165 23.5285 24.9555 23.6239 25.1339 23.7962L25.8358 24.499C25.968 24.6313 26.0581 24.7998 26.0946 24.9833C26.131 25.1668 26.1123 25.3569 26.0407 25.5298C25.9691 25.7026 25.8479 25.8503 25.6924 25.9543C25.5369 26.0582 25.354 26.1137 25.167 26.1137Z" fill="#F27039"/>
<path d="M21.0945 35.946H20.1012C19.8503 35.946 19.6097 35.8463 19.4323 35.6689C19.2549 35.4915 19.1553 35.2509 19.1553 35C19.1553 34.7491 19.2549 34.5085 19.4323 34.3311C19.6097 34.1537 19.8503 34.0541 20.1012 34.0541H21.0945C21.3453 34.0541 21.586 34.1537 21.7634 34.3311C21.9407 34.5085 22.0404 34.7491 22.0404 35C22.0404 35.2509 21.9407 35.4915 21.7634 35.6689C21.586 35.8463 21.3453 35.946 21.0945 35.946Z" fill="#F27039"/>
<path d="M24.465 46.481C24.278 46.4809 24.0951 46.4254 23.9396 46.3215C23.7841 46.2175 23.6629 46.0698 23.5913 45.897C23.5197 45.7242 23.501 45.534 23.5375 45.3505C23.5739 45.1671 23.664 44.9985 23.7962 44.8662L24.4981 44.1643C24.5844 44.0705 24.6888 43.995 24.805 43.9425C24.9212 43.89 25.0469 43.8615 25.1743 43.8587C25.3018 43.856 25.4286 43.8791 25.5469 43.9266C25.6653 43.9741 25.7728 44.045 25.863 44.1351C25.9532 44.2252 26.0243 44.3326 26.072 44.4509C26.1197 44.5692 26.1429 44.6959 26.1404 44.8234C26.1378 44.9509 26.1095 45.0766 26.0572 45.1928C26.0048 45.3091 25.9295 45.4136 25.8357 45.5L25.1338 46.2019C25.0464 46.2904 24.9422 46.3606 24.8274 46.4085C24.7126 46.4564 24.5894 46.4811 24.465 46.481Z" fill="#F27039"/>
<path d="M35.0001 50.8446C34.7493 50.8446 34.5087 50.7449 34.3313 50.5675C34.1539 50.3901 34.0542 50.1495 34.0542 49.8987V48.9054C34.0542 48.6545 34.1539 48.4139 34.3313 48.2365C34.5087 48.0591 34.7493 47.9595 35.0001 47.9595C35.251 47.9595 35.4916 48.0591 35.669 48.2365C35.8464 48.4139 35.9461 48.6545 35.9461 48.9054V49.8987C35.9461 50.1495 35.8464 50.3901 35.669 50.5675C35.4916 50.7449 35.251 50.8446 35.0001 50.8446Z" fill="#F27039"/>
<path d="M45.5349 46.481C45.284 46.4809 45.0435 46.3812 44.8661 46.2038L44.1642 45.501C44.0703 45.4147 43.9949 45.3103 43.9423 45.1941C43.8898 45.0779 43.8613 44.9523 43.8586 44.8248C43.8559 44.6973 43.879 44.5706 43.9265 44.4522C43.9739 44.3339 44.0449 44.2264 44.135 44.1361C44.2251 44.0459 44.3325 43.9748 44.4508 43.9271C44.5691 43.8795 44.6958 43.8562 44.8233 43.8588C44.9508 43.8613 45.0764 43.8896 45.1927 43.942C45.309 43.9943 45.4135 44.0697 45.4999 44.1634L46.2018 44.8663C46.334 44.9986 46.4241 45.1671 46.4606 45.3506C46.4971 45.534 46.4783 45.7242 46.4068 45.897C46.3352 46.0698 46.214 46.2176 46.0584 46.3215C45.9029 46.4255 45.7201 46.481 45.533 46.481H45.5349Z" fill="#F27039"/>
<path d="M49.8987 35.946H48.9054C48.6545 35.946 48.4139 35.8463 48.2365 35.6689C48.0591 35.4915 47.9595 35.2509 47.9595 35C47.9595 34.7491 48.0591 34.5085 48.2365 34.3311C48.4139 34.1537 48.6545 34.0541 48.9054 34.0541H49.8987C50.1495 34.0541 50.3902 34.1537 50.5676 34.3311C50.745 34.5085 50.8446 34.7491 50.8446 35C50.8446 35.2509 50.745 35.4915 50.5676 35.6689C50.3902 35.8463 50.1495 35.946 49.8987 35.946Z" fill="#F27039"/>
<path d="M44.8378 26.1129C44.6508 26.1129 44.4679 26.0574 44.3124 25.9534C44.1569 25.8495 44.0357 25.7018 43.9641 25.5289C43.8925 25.3561 43.8738 25.1659 43.9103 24.9825C43.9467 24.799 44.0368 24.6305 44.1691 24.4982L44.8709 23.7963C44.9582 23.7059 45.0626 23.6339 45.178 23.5843C45.2934 23.5347 45.4175 23.5086 45.5431 23.5075C45.6687 23.5065 45.7933 23.5304 45.9096 23.5779C46.0258 23.6255 46.1314 23.6958 46.2202 23.7846C46.3091 23.8734 46.3793 23.979 46.4269 24.0953C46.4744 24.2115 46.4984 24.3361 46.4973 24.4617C46.4962 24.5873 46.4701 24.7114 46.4205 24.8268C46.3709 24.9422 46.2989 25.0466 46.2085 25.1339L45.5066 25.8358C45.3293 26.0132 45.0887 26.1129 44.8378 26.1129Z" fill="#F27039"/>
<path d="M35 38.553C34.2973 38.553 33.6104 38.3447 33.0261 37.9542C32.4418 37.5638 31.9864 37.0089 31.7175 36.3597C31.4486 35.7105 31.3782 34.9961 31.5153 34.3069C31.6524 33.6177 31.9908 32.9846 32.4877 32.4877C32.9846 31.9908 33.6176 31.6524 34.3068 31.5154C34.9961 31.3783 35.7104 31.4486 36.3597 31.7175C37.0089 31.9865 37.5638 32.4418 37.9542 33.0261C38.3446 33.6104 38.553 34.2973 38.553 35.0001C38.5517 35.942 38.177 36.845 37.5109 37.511C36.8449 38.177 35.9419 38.5518 35 38.553ZM35 33.339C34.6715 33.339 34.3503 33.4364 34.0771 33.6189C33.804 33.8014 33.5911 34.0609 33.4654 34.3644C33.3396 34.6679 33.3067 35.0019 33.3708 35.3241C33.4349 35.6463 33.5931 35.9423 33.8254 36.1746C34.0577 36.4069 34.3537 36.5651 34.6759 36.6292C34.9982 36.6933 35.3321 36.6604 35.6357 36.5347C35.9392 36.409 36.1986 36.1961 36.3811 35.9229C36.5637 35.6497 36.6611 35.3286 36.6611 35.0001C36.6603 34.5597 36.4851 34.1377 36.1737 33.8263C35.8624 33.515 35.4403 33.3397 35 33.339Z" fill="#F27039"/>
<path d="M33.1564 34.1023C32.9056 34.1023 32.665 34.0026 32.4876 33.8252L29.0699 30.4084C28.8924 30.2309 28.7927 29.9902 28.7927 29.7391C28.7927 29.4881 28.8924 29.2474 29.0699 29.0699C29.2474 28.8924 29.4882 28.7927 29.7392 28.7927C29.9902 28.7927 30.231 28.8924 30.4085 29.0699L33.8252 32.4876C33.9575 32.6199 34.0475 32.7884 34.084 32.9719C34.1205 33.1553 34.1018 33.3455 34.0302 33.5183C33.9586 33.6912 33.8374 33.8389 33.6819 33.9428C33.5263 34.0468 33.3435 34.1023 33.1564 34.1023Z" fill="#F27039"/>
<path d="M44.8379 35.946H37.6071C37.3562 35.946 37.1156 35.8463 36.9382 35.6689C36.7608 35.4915 36.6611 35.2509 36.6611 35C36.6611 34.7491 36.7608 34.5085 36.9382 34.3311C37.1156 34.1537 37.3562 34.0541 37.6071 34.0541H44.8379C45.0888 34.0541 45.3294 34.1537 45.5068 34.3311C45.6842 34.5085 45.7838 34.7491 45.7838 35C45.7838 35.2509 45.6842 35.4915 45.5068 35.6689C45.3294 35.8463 45.0888 35.946 44.8379 35.946Z" fill="#F27039"/>
</svg>
