<svg width="68" height="68" viewBox="0 0 68 68" fill="none" xmlns="http://www.w3.org/2000/svg">
<path d="M58.0416 9.95841C51.6197 3.53666 43.0816 0 34 0C24.9184 0 16.3803 3.53666 9.95841 9.95841C3.53666 16.3803 0 24.9184 0 34C0 43.0816 3.53666 51.6197 9.95841 58.0416C16.3803 64.4633 24.9184 68 34 68C39.3249 68 44.4229 66.8039 49.1523 64.4447C49.6446 64.1992 49.8447 63.601 49.5991 63.1088C49.3534 62.6164 48.7555 62.4167 48.263 62.662C43.8123 64.8821 39.0134 66.0078 34 66.0078C25.4506 66.0078 17.4128 62.6783 11.3672 56.6328C5.32153 50.5873 1.99219 42.5494 1.99219 34C1.99219 25.4506 5.32166 17.4128 11.3672 11.3672C17.4126 5.32153 25.4506 1.99219 34 1.99219C42.5494 1.99219 50.5873 5.32166 56.6328 11.3672C62.6783 17.4126 66.0078 25.4506 66.0078 34C66.0078 44.7913 60.6233 54.7858 51.6043 60.735C51.1452 61.038 51.0185 61.6558 51.3213 62.1151C51.6244 62.5743 52.2422 62.7009 52.7013 62.3981C62.2808 56.079 68 45.4629 68 34C68 24.9184 64.4633 16.3803 58.0416 9.95841Z" fill="#3D6A66"/>
<path d="M63.9025 33.9999C63.9025 26.0127 60.792 18.5035 55.1443 12.8556C49.4966 7.20775 41.9873 4.09741 34.0001 4.09741C26.0129 4.09741 18.5037 7.20775 12.8558 12.8556C7.20799 18.5035 4.09766 26.0127 4.09766 33.9999C4.09766 41.9871 7.20799 49.4963 12.8558 55.1442C18.5037 60.792 26.0129 63.9024 34.0001 63.9024C41.9873 63.9024 49.4966 60.792 55.1443 55.1442C60.792 49.4963 63.9025 41.9871 63.9025 33.9999ZM22.4118 53.7354C20.1656 55.9817 16.5107 55.9815 14.2646 53.7354C12.0185 51.4892 12.0185 47.8344 14.2646 45.5882C15.3879 44.465 16.8628 43.9036 18.3382 43.9036C19.8132 43.9036 21.2889 44.4652 22.4118 45.5882C24.658 47.8344 24.658 51.4893 22.4118 53.7354ZM19.6038 33.9999C19.6038 26.0617 26.0619 19.6035 34.0001 19.6035C41.9383 19.6035 48.3965 26.0617 48.3965 33.9999C48.3965 41.9381 41.9383 48.3962 34.0001 48.3962C26.0619 48.3962 19.6038 41.9381 19.6038 33.9999ZM53.7357 22.4116C51.4897 24.6576 47.8348 24.6578 45.5885 22.4116C43.3424 20.1653 43.3424 16.5106 45.5885 14.2643C46.7117 13.1411 48.1868 12.5797 49.6622 12.5797C51.1371 12.5797 52.6127 13.1414 53.7357 14.2643C55.9818 16.5105 55.9818 20.1653 53.7357 22.4116ZM45.5885 45.5882C47.8345 43.3422 51.4894 43.3419 53.7357 45.5882C55.9818 47.8344 55.9818 51.4892 53.7357 53.7354C51.4894 55.9817 47.8345 55.9814 45.5885 53.7354C43.3424 51.4893 43.3424 47.8344 45.5885 45.5882ZM55.1444 44.1796C53.28 42.315 50.6947 41.6023 48.2775 42.0378C48.9166 40.9071 49.4255 39.6936 49.7832 38.4172C51.1849 40.4312 53.5151 41.7529 56.1494 41.7529C58.1291 41.7529 59.9366 41.0055 61.3081 39.78C60.5869 43.1914 59.2403 46.3747 57.3949 49.2044C57.2879 47.3742 56.5396 45.5748 55.1444 44.1796ZM56.1494 39.7608C52.9728 39.7608 50.3885 37.1765 50.3885 33.9999C50.3885 30.8233 52.9728 28.239 56.1494 28.239C59.326 28.239 61.9103 30.8233 61.9103 33.9999C61.9103 37.1765 59.326 39.7608 56.1494 39.7608ZM56.1494 26.2468C53.5151 26.2468 51.1849 27.5686 49.7832 29.5825C49.4255 28.3063 48.9166 27.0927 48.2775 25.9621C48.735 26.0445 49.1984 26.0874 49.662 26.0874C51.6473 26.0874 53.6327 25.3317 55.1443 23.8202C56.5388 22.4257 57.2889 20.6274 57.3968 18.7982C59.2403 21.626 60.5845 24.8071 61.3058 28.2158C59.9347 26.9919 58.1276 26.2468 56.1494 26.2468ZM44.1797 12.8556C42.3154 14.72 41.6026 17.3052 42.0379 19.7225C40.9072 19.0833 39.6937 18.5745 38.4175 18.2168C40.4314 16.8151 41.7532 14.4849 41.7532 11.8506C41.7532 9.8721 41.0081 8.06439 39.784 6.6931C43.1925 7.41427 46.3731 8.75926 49.2009 10.6027C47.372 10.7107 45.5742 11.4613 44.1797 12.8556ZM39.761 11.8506C39.761 15.0271 37.1767 17.6115 34.0001 17.6115C30.8236 17.6115 28.2392 15.0272 28.2392 11.8506C28.2392 8.674 30.8235 6.08973 34.0001 6.08973C37.1767 6.0896 39.761 8.674 39.761 11.8506ZM29.5828 18.2168C28.3083 18.574 27.0965 19.082 25.9672 19.7197C26.0481 19.2681 26.0915 18.8065 26.0915 18.338C26.0915 16.2672 25.2851 14.3201 23.8206 12.8557C22.4662 11.5014 20.6991 10.7112 18.8032 10.5999C21.6302 8.75754 24.8103 7.41387 28.2176 6.69323C26.9932 8.06465 26.2471 9.87183 26.2471 11.8506C26.2471 14.4848 27.5688 16.815 29.5828 18.2168ZM11.494 21.9854C11.7528 22.471 12.3563 22.6545 12.8415 22.3959C13.3269 22.1372 13.5107 21.5338 13.252 21.0484C12.0518 18.7966 12.4587 16.0705 14.2647 14.2645C15.3529 13.1763 16.7996 12.577 18.3383 12.577C19.8771 12.577 21.3237 13.1763 22.4118 14.2645C23.5 15.3526 24.0994 16.7993 24.0994 18.3381C24.0994 19.8769 23.5001 21.3235 22.4118 22.4116C20.6056 24.218 17.88 24.6244 15.6298 23.4232C15.1443 23.164 14.541 23.3475 14.282 23.8328C14.0229 24.3181 14.2063 24.9216 14.6916 25.1806C15.8525 25.8003 17.1069 26.1022 18.3498 26.1022C18.8078 26.1022 19.2642 26.0592 19.7138 25.9777C19.0788 27.104 18.5729 28.3122 18.217 29.5824C16.8153 27.5684 14.4851 26.2467 11.8507 26.2467C9.87221 26.2467 8.0649 26.992 6.69361 28.2162C7.41319 24.8148 8.7538 21.6401 10.5913 18.8168C10.6602 19.8976 10.9564 20.9768 11.494 21.9854ZM11.8509 28.239C15.0273 28.239 17.6117 30.8233 17.6117 33.9999C17.6117 37.1765 15.0275 39.7608 11.8509 39.7608C8.67424 39.7608 6.08998 37.1765 6.08998 33.9999C6.08998 30.8233 8.67424 28.239 11.8509 28.239ZM11.8509 41.7529C14.4852 41.7529 16.8154 40.4312 18.2171 38.4172C18.5747 39.6934 19.0837 40.9071 19.7228 42.0377C17.3057 41.6023 14.7204 42.3151 12.856 44.1794C11.4617 45.5737 10.7116 47.3713 10.6035 49.2003C8.75951 46.3718 7.41465 43.1901 6.69361 39.7805C8.06503 41.0055 9.87155 41.7529 11.8509 41.7529ZM23.8204 55.1442C25.6849 53.2797 26.3977 50.6945 25.9623 48.2774C27.0931 48.9165 28.3066 49.4254 29.5828 49.7831C27.5688 51.1848 26.2471 53.515 26.2471 56.1493C26.2471 58.1273 26.9916 59.9346 28.2152 61.3057C24.807 60.5844 21.6266 59.2396 18.7991 57.3961C20.628 57.2882 22.426 56.5386 23.8204 55.1442ZM28.2392 56.1492C28.2392 52.9727 30.8235 50.3883 34.0001 50.3883C37.1767 50.3883 39.761 52.9725 39.761 56.1492C39.761 59.3258 37.1767 61.91 34.0001 61.91C30.8236 61.9102 28.2392 59.3258 28.2392 56.1492ZM38.4175 49.7829C39.6937 49.4253 40.9072 48.9163 42.0379 48.2772C41.6026 50.6944 42.3154 53.2797 44.1797 55.1442C45.5745 56.5388 47.373 57.2886 49.2024 57.3963C46.3741 59.2404 43.1926 60.5856 39.7833 61.3069C41.0076 59.9355 41.7531 58.1279 41.7531 56.1493C41.7532 53.515 40.4314 51.1848 38.4175 49.7829Z" fill="#3D6A66"/>
<path d="M46.0573 33.9999C46.0573 27.3513 40.6484 21.9424 33.9999 21.9424C27.3514 21.9424 21.9424 27.3513 21.9424 33.9999C21.9424 40.6485 27.3513 46.0574 33.9999 46.0574C40.6485 46.0574 46.0573 40.6485 46.0573 33.9999ZM23.9346 33.9999C23.9346 28.4498 28.4498 23.9346 33.9999 23.9346C39.5499 23.9346 44.0651 28.4498 44.0651 33.9999C44.0651 39.55 39.5499 44.0652 33.9999 44.0652C28.4498 44.0652 23.9346 39.55 23.9346 33.9999Z" fill="#3D6A66"/>
</svg>
