<svg width="200" height="193" viewBox="0 0 200 193" fill="none" xmlns="http://www.w3.org/2000/svg">
<g clip-path="url(#clip0)">
<g opacity="0.15">
<path d="M0 142.407C0 143.991 1.33122 145.276 2.97324 145.276H44.5986V139.538H2.97324C1.33122 139.538 0 140.822 0 142.407Z" fill="#FFD06A"/>
<path d="M2.97324 47.7236C1.33122 47.7236 0 49.0083 0 50.5928C0 52.1774 1.33122 53.462 2.97324 53.462H44.5986V47.7236H2.97324Z" fill="#FFD06A"/>
<path d="M0 119.454C0 121.038 1.33122 122.323 2.97324 122.323H44.5986V116.584H2.97324C1.33122 116.584 0 117.869 0 119.454Z" fill="#FFD06A"/>
<path d="M0 73.5465C0 75.131 1.33122 76.4157 2.97324 76.4157H44.5986V70.6773H2.97324C1.33122 70.6773 0 71.9619 0 73.5465Z" fill="#FFD06A"/>
<path d="M197.181 82.9132L181.555 78.2345V114.766L197.181 110.087C198.295 109.754 199.103 108.823 199.253 107.707C199.745 104.038 200 100.298 200 96.5005C200 92.7029 199.745 88.9626 199.253 85.2942C199.103 84.1776 198.295 83.2468 197.181 82.9132Z" fill="#7D8FE5"/>
<path d="M181.721 46.8958C182.264 45.8996 182.153 44.6903 181.441 43.799C179.102 40.8693 176.541 38.0507 173.759 35.3651C170.976 32.6799 168.055 30.209 165.019 27.9512C164.095 27.2641 162.842 27.1566 161.81 27.6811L147.332 35.0353L174.101 60.8671L181.721 46.8958Z" fill="#7D8FE5"/>
<path d="M91.4785 165.159L110.407 182.958C114.342 182.958 118.218 182.712 122.019 182.236C123.176 182.092 124.141 181.313 124.486 180.238L129.335 165.158H91.4785V165.159Z" fill="#95B0ED"/>
<path d="M122.019 10.7632C118.218 10.288 114.342 10.0421 110.407 10.0421L91.4785 27.8409H129.335L124.487 12.7616C124.141 11.6867 123.176 10.9074 122.019 10.7632Z" fill="#95B0ED"/>
<path d="M147.332 157.965L161.809 165.319C162.842 165.844 164.095 165.736 165.018 165.049C168.054 162.791 170.975 160.321 173.758 157.635C176.541 154.95 179.101 152.132 181.441 149.202C182.153 148.31 182.264 147.101 181.721 146.105L174.1 132.134L147.332 157.965Z" fill="#7D8FE5"/>
<path d="M110.406 21.5188V171.481C153.319 171.481 188.106 137.911 188.106 96.5C188.106 55.0889 153.319 21.5188 110.406 21.5188Z" fill="#95B0ED"/>
<path d="M20.8125 96.4999C20.8125 144.249 60.9251 182.958 110.406 182.958V10.0421C60.9251 10.0421 20.8125 48.7507 20.8125 96.4999Z" fill="#95B0ED"/>
<path d="M110.406 160.004V32.9953C146.75 32.9953 176.214 61.4273 176.214 96.4997C176.214 131.572 146.75 160.004 110.406 160.004Z" fill="#C4F3FF"/>
<path d="M164.321 96.4997C164.321 131.572 140.183 160.004 110.406 160.004C74.0619 160.004 44.5986 131.572 44.5986 96.4997C44.5986 61.4273 74.0619 32.9953 110.406 32.9953C140.183 32.9953 164.321 61.4273 164.321 96.4997Z" fill="white"/>
<path d="M56.4913 93.6308C54.8493 93.6308 53.5181 94.9155 53.5181 96.5C53.5181 98.0845 54.8493 99.3692 56.4913 99.3692H110.406V93.6308H56.4913Z" fill="#4E4CD3"/>
<path d="M104.46 96.5V50.2106C104.46 47.0415 107.123 44.4723 110.407 44.4723C113.691 44.4723 116.353 47.0415 116.353 50.2106V96.5H104.46Z" fill="#7D8FE5"/>
<path d="M110.406 90.7616H146.481C149.765 90.7616 152.428 93.3309 152.428 96.5C152.428 99.6691 149.765 102.238 146.481 102.238H110.406V90.7616Z" fill="#666DDC"/>
<path d="M110.406 107.977C116.974 107.977 122.299 102.839 122.299 96.5001C122.299 90.1617 116.974 85.0234 110.406 85.0234C103.837 85.0234 98.5127 90.1617 98.5127 96.5001C98.5127 102.839 103.837 107.977 110.406 107.977Z" fill="#95B0ED"/>
<path d="M110.407 99.3692C112.049 99.3692 113.38 98.0846 113.38 96.5C113.38 94.9154 112.049 93.6308 110.407 93.6308C108.765 93.6308 107.434 94.9154 107.434 96.5C107.434 98.0846 108.765 99.3692 110.407 99.3692Z" fill="#4E4CD3"/>
<path d="M110.406 151.397C112.048 151.397 113.38 150.112 113.38 148.528C113.38 146.943 112.048 145.659 110.406 145.659C108.764 145.659 107.433 146.943 107.433 148.528C107.433 150.112 108.764 151.397 110.406 151.397Z" fill="#4A36B5"/>
<path d="M83.4488 144.427C85.0909 144.427 86.422 143.142 86.422 141.557C86.422 139.973 85.0909 138.688 83.4488 138.688C81.8067 138.688 80.4756 139.973 80.4756 141.557C80.4756 143.142 81.8067 144.427 83.4488 144.427Z" fill="#4A36B5"/>
<path d="M137.364 54.3121C139.006 54.3121 140.337 53.0275 140.337 51.4429C140.337 49.8583 139.006 48.5737 137.364 48.5737C135.722 48.5737 134.391 49.8583 134.391 51.4429C134.391 53.0275 135.722 54.3121 137.364 54.3121Z" fill="#4A36B5"/>
<path d="M157.097 73.3555C158.739 73.3555 160.071 72.0709 160.071 70.4863C160.071 68.9017 158.739 67.6172 157.097 67.6172C155.455 67.6172 154.124 68.9017 154.124 70.4863C154.124 72.0709 155.455 73.3555 157.097 73.3555Z" fill="#4A36B5"/>
<path d="M63.7149 125.383C65.357 125.383 66.6882 124.099 66.6882 122.514C66.6882 120.929 65.357 119.645 63.7149 119.645C62.0729 119.645 60.7417 120.929 60.7417 122.514C60.7417 124.099 62.0729 125.383 63.7149 125.383Z" fill="#4A36B5"/>
<path d="M164.321 99.3691C165.963 99.3691 167.294 98.0846 167.294 96.5C167.294 94.9154 165.963 93.6308 164.321 93.6308C162.679 93.6308 161.348 94.9154 161.348 96.5C161.348 98.0846 162.679 99.3691 164.321 99.3691Z" fill="#4A36B5"/>
<path d="M157.097 125.383C158.739 125.383 160.071 124.099 160.071 122.514C160.071 120.929 158.739 119.645 157.097 119.645C155.455 119.645 154.124 120.929 154.124 122.514C154.124 124.099 155.455 125.383 157.097 125.383Z" fill="#4A36B5"/>
<path d="M63.7149 73.3555C65.357 73.3555 66.6882 72.0709 66.6882 70.4863C66.6882 68.9017 65.357 67.6172 63.7149 67.6172C62.0729 67.6172 60.7417 68.9017 60.7417 70.4863C60.7417 72.0709 62.0729 73.3555 63.7149 73.3555Z" fill="#4A36B5"/>
<path d="M137.364 144.427C139.006 144.427 140.337 143.142 140.337 141.557C140.337 139.973 139.006 138.688 137.364 138.688C135.722 138.688 134.391 139.973 134.391 141.557C134.391 143.142 135.722 144.427 137.364 144.427Z" fill="#4A36B5"/>
<path d="M83.4488 54.3121C85.0909 54.3121 86.422 53.0275 86.422 51.4429C86.422 49.8583 85.0909 48.5737 83.4488 48.5737C81.8067 48.5737 80.4756 49.8583 80.4756 51.4429C80.4756 53.0275 81.8067 54.3121 83.4488 54.3121Z" fill="#4A36B5"/>
<path d="M44.5986 99.3692H2.97324C1.33122 99.3692 0 98.0845 0 96.5C0 94.9155 1.33122 93.6308 2.97324 93.6308H44.5986C46.2406 93.6308 47.5719 94.9155 47.5719 96.5C47.5719 98.0845 46.2406 99.3692 44.5986 99.3692Z" fill="#FFD06A"/>
</g>
</g>
<defs>
<clipPath id="clip0">
<rect width="200" height="193" fill="white"/>
</clipPath>
</defs>
</svg>
