<svg width="77" height="77" viewBox="0 0 77 77" fill="none" xmlns="http://www.w3.org/2000/svg">
<path d="M68.5781 21.6562H42.1094V19.25H45.7188C46.0378 19.25 46.3439 19.1232 46.5695 18.8976C46.7951 18.672 46.9219 18.366 46.9219 18.0469V8.42188C46.9219 8.10279 46.7951 7.79677 46.5695 7.57114C46.3439 7.34551 46.0378 7.21875 45.7188 7.21875H43.3125V4.8125C43.3125 4.49341 43.1857 4.18739 42.9601 3.96176C42.7345 3.73613 42.4285 3.60938 42.1094 3.60938H37.2969C36.9778 3.60938 36.6718 3.73613 36.4461 3.96176C36.2205 4.18739 36.0938 4.49341 36.0938 4.8125V7.21875H33.6875V4.8125C33.6875 4.49341 33.5607 4.18739 33.3351 3.96176C33.1095 3.73613 32.8035 3.60938 32.4844 3.60938H27.6719C27.3528 3.60938 27.0468 3.73613 26.8211 3.96176C26.5955 4.18739 26.4688 4.49341 26.4688 4.8125V7.21875H24.0625C23.7434 7.21875 23.4374 7.34551 23.2118 7.57114C22.9861 7.79677 22.8594 8.10279 22.8594 8.42188V18.0469C22.8594 18.366 22.9861 18.672 23.2118 18.8976C23.4374 19.1232 23.7434 19.25 24.0625 19.25H27.6719V21.6562H15.6406C14.6834 21.6562 13.7653 22.0365 13.0884 22.7134C12.4115 23.3903 12.0312 24.3084 12.0312 25.2656V33.6875H3.60938C3.29029 33.6875 2.98427 33.8143 2.75864 34.0399C2.53301 34.2655 2.40625 34.5715 2.40625 34.8906V42.1094C2.40625 42.4285 2.53301 42.7345 2.75864 42.9601C2.98427 43.1857 3.29029 43.3125 3.60938 43.3125H12.0312V52.9375C12.0312 53.8948 12.4115 54.8128 13.0884 55.4897C13.7653 56.1666 14.6834 56.5469 15.6406 56.5469H25.2656V58.9531H20.4531C20.134 58.9531 19.828 59.0799 19.6024 59.3055C19.3768 59.5311 19.25 59.8372 19.25 60.1562V64.9688C19.25 65.2878 19.3768 65.5939 19.6024 65.8195C19.828 66.0451 20.134 66.1719 20.4531 66.1719H61.3594C61.6785 66.1719 61.9845 66.0451 62.2101 65.8195C62.4357 65.5939 62.5625 65.2878 62.5625 64.9688V60.1562C62.5625 59.8372 62.4357 59.5311 62.2101 59.3055C61.9845 59.0799 61.6785 58.9531 61.3594 58.9531H56.5469V56.5469H68.5781C70.173 56.545 71.702 55.9106 72.8297 54.7828C73.9574 53.6551 74.5918 52.1261 74.5938 50.5312V27.6719C74.5918 26.077 73.9574 24.548 72.8297 23.4203C71.702 22.2926 70.173 21.6582 68.5781 21.6562ZM60.1562 54.1406H22.8594V24.0625H60.1562V54.1406ZM38.5 6.01562H40.9062V7.21875H38.5V6.01562ZM28.875 6.01562H31.2812V7.21875H28.875V6.01562ZM25.2656 9.625H44.5156V16.8438H25.2656V9.625ZM30.0781 19.25H39.7031V21.6562H30.0781V19.25ZM4.8125 40.9062V36.0938H12.0312V40.9062H4.8125ZM19.25 54.1406H15.6406C15.3215 54.1406 15.0155 54.0139 14.7899 53.7882C14.5643 53.5626 14.4375 53.2566 14.4375 52.9375V25.2656C14.4375 24.9465 14.5643 24.6405 14.7899 24.4149C15.0155 24.1893 15.3215 24.0625 15.6406 24.0625H20.4531V54.1406H19.25ZM60.1562 63.7656H21.6562V61.3594H60.1562V63.7656ZM54.1406 58.9531H27.6719V56.5469H54.1406V58.9531ZM72.1875 50.5312C72.1875 51.4885 71.8072 52.4066 71.1303 53.0835C70.4534 53.7603 69.5354 54.1406 68.5781 54.1406H62.5625V24.0625H68.5781C69.5354 24.0625 70.4534 24.4428 71.1303 25.1197C71.8072 25.7966 72.1875 26.7146 72.1875 27.6719V50.5312Z" fill="#3D6A66"/>
<path d="M64.9688 27.6719H69.7812V30.0781H64.9688V27.6719Z" fill="#3D6A66"/>
<path d="M64.9688 32.4844H69.7812V34.8906H64.9688V32.4844Z" fill="#3D6A66"/>
<path d="M26.4688 26.4688V50.5312C26.4688 50.8503 26.5955 51.1564 26.8211 51.382C27.0468 51.6076 27.3528 51.7344 27.6719 51.7344H55.3438C55.6628 51.7344 55.9689 51.6076 56.1945 51.382C56.4201 51.1564 56.5469 50.8503 56.5469 50.5312V26.4688C56.5469 26.1497 56.4201 25.8436 56.1945 25.618C55.9689 25.3924 55.6628 25.2656 55.3438 25.2656H27.6719C27.3528 25.2656 27.0468 25.3924 26.8211 25.618C26.5955 25.8436 26.4688 26.1497 26.4688 26.4688ZM28.875 34.8906H54.1406V42.1094H28.875V34.8906ZM28.875 44.5156H54.1406V45.7188H28.875V44.5156ZM54.1406 32.4844H28.875V31.2812H54.1406V32.4844ZM28.875 49.3281V48.125H54.1406V49.3281H28.875ZM54.1406 27.6719V28.875H28.875V27.6719H54.1406Z" fill="#3D6A66"/>
</svg>
