<svg width="18" height="14" viewBox="0 0 18 14" fill="none" xmlns="http://www.w3.org/2000/svg">
<path d="M16.5 0H1.50001C0.672715 0 0 0.672715 0 1.50001V12C0 12.8273 0.672715 13.5 1.50001 13.5H16.5C17.3273 13.5 18 12.8273 18 12V1.50001C18 0.672715 17.3273 0 16.5 0ZM1.50001 0.749988H16.5C16.5553 0.749988 16.604 0.770133 16.6558 0.781524C15.3572 1.97005 11.0511 5.90938 9.54422 7.26708C9.4263 7.37329 9.23625 7.49999 9.00004 7.49999C8.76382 7.49999 8.57377 7.37329 8.45547 7.26673C6.9487 5.90924 2.64238 1.9697 1.34395 0.781594C1.39591 0.770203 1.44471 0.749988 1.50001 0.749988ZM0.749988 12V1.50001C0.749988 1.42654 0.772137 1.35988 0.791965 1.29273C1.7859 2.20243 4.7905 4.95109 6.73871 6.72272C4.79682 8.39078 1.79146 11.2401 0.789609 12.1955C0.771926 12.1317 0.749988 12.0693 0.749988 12ZM16.5 12.75H1.50001C1.44011 12.75 1.38684 12.7291 1.33091 12.7158C2.36616 11.7289 5.39065 8.86314 7.2984 7.23108C7.5471 7.45668 7.77428 7.66237 7.95336 7.82374C8.26246 8.10281 8.62425 8.25001 9 8.25001C9.37575 8.25001 9.73754 8.10278 10.0463 7.82409C10.2254 7.66266 10.4528 7.45678 10.7016 7.23108C12.6095 8.86296 15.6335 11.7285 16.6691 12.7158C16.6132 12.7291 16.56 12.75 16.5 12.75ZM17.25 12C17.25 12.0693 17.2281 12.1317 17.2104 12.1955C16.2082 11.2396 13.2032 8.3906 11.2613 6.72275C13.2096 4.95113 16.2137 2.20271 17.208 1.29266C17.2279 1.35981 17.25 1.4265 17.25 1.49998V12Z" fill="#9F9F9F"/>
</svg>
