<svg width="266" height="48" viewBox="0 0 266 48" fill="none" xmlns="http://www.w3.org/2000/svg">
<path d="M99.814 13.5352C101.106 13.5352 102.265 13.8329 103.291 14.4282C104.33 15.0109 105.14 15.8216 105.723 16.8602C106.306 17.8989 106.597 19.0706 106.597 20.3752C106.597 21.6799 106.306 22.8516 105.723 23.8902C105.14 24.9289 104.33 25.7459 103.291 26.3412C102.265 26.9239 101.106 27.2152 99.814 27.2152C98.6867 27.2152 97.6607 27.0252 96.736 26.6452C95.824 26.2652 95.064 25.7142 94.456 24.9922L96.014 23.4722C96.9893 24.5236 98.2117 25.0492 99.681 25.0492C100.821 25.0492 101.784 24.7009 102.569 24.0042C103.367 23.3076 103.855 22.3892 104.032 21.2492H98.085V19.2922H103.994C103.779 18.2156 103.278 17.3479 102.493 16.6892C101.72 16.0306 100.783 15.7012 99.681 15.7012C98.2117 15.7012 96.9893 16.2269 96.014 17.2782L94.456 15.7582C95.064 15.0362 95.824 14.4852 96.736 14.1052C97.6607 13.7252 98.6867 13.5352 99.814 13.5352ZM121.169 13.7252V27.0252H118.699V21.3252H111.821V27.0252H109.351V13.7252H111.821V19.2162H118.699V13.7252H121.169ZM134.875 24.9542V27.0252H124.9V13.7252H134.609V15.7962H127.37V19.2542H133.792V21.2872H127.37V24.9542H134.875ZM143.101 13.7252C144.253 13.7252 145.254 13.9152 146.103 14.2952C146.964 14.6752 147.623 15.2199 148.079 15.9292C148.535 16.6386 148.763 17.4809 148.763 18.4562C148.763 19.4189 148.535 20.2612 148.079 20.9832C147.623 21.6926 146.964 22.2372 146.103 22.6172C145.254 22.9972 144.253 23.1872 143.101 23.1872H140.099V27.0252H137.629V13.7252H143.101ZM142.987 21.0972C144.063 21.0972 144.88 20.8692 145.438 20.4132C145.995 19.9572 146.274 19.3049 146.274 18.4562C146.274 17.6076 145.995 16.9552 145.438 16.4992C144.88 16.0432 144.063 15.8152 142.987 15.8152H140.099V21.0972H142.987ZM160.124 15.8152H153.531L153.55 27.0252H151.118V13.7252H160.143L160.124 15.8152ZM166.848 27.2152C165.493 27.2152 164.27 26.9239 163.181 26.3412C162.092 25.7459 161.237 24.9289 160.616 23.8902C159.995 22.8389 159.685 21.6672 159.685 20.3752C159.685 19.0832 159.995 17.9179 160.616 16.8792C161.237 15.8279 162.092 15.0109 163.181 14.4282C164.27 13.8329 165.493 13.5352 166.848 13.5352C168.203 13.5352 169.426 13.8329 170.515 14.4282C171.604 15.0109 172.459 15.8216 173.08 16.8602C173.701 17.8989 174.011 19.0706 174.011 20.3752C174.011 21.6799 173.701 22.8516 173.08 23.8902C172.459 24.9289 171.604 25.7459 170.515 26.3412C169.426 26.9239 168.203 27.2152 166.848 27.2152ZM166.848 25.0492C167.735 25.0492 168.533 24.8529 169.242 24.4602C169.951 24.0549 170.509 23.4976 170.914 22.7882C171.319 22.0662 171.522 21.2619 171.522 20.3752C171.522 19.4886 171.319 18.6906 170.914 17.9812C170.509 17.2592 169.951 16.7019 169.242 16.3092C168.533 15.9039 167.735 15.7012 166.848 15.7012C165.961 15.7012 165.163 15.9039 164.454 16.3092C163.745 16.7019 163.187 17.2592 162.782 17.9812C162.377 18.6906 162.174 19.4886 162.174 20.3752C162.174 21.2619 162.377 22.0662 162.782 22.7882C163.187 23.4976 163.745 24.0549 164.454 24.4602C165.163 24.8529 165.961 25.0492 166.848 25.0492ZM182.86 27.2152C181.517 27.2152 180.301 26.9239 179.212 26.3412C178.135 25.7459 177.287 24.9289 176.666 23.8902C176.058 22.8516 175.754 21.6799 175.754 20.3752C175.754 19.0706 176.064 17.8989 176.685 16.8602C177.306 15.8216 178.154 15.0109 179.231 14.4282C180.32 13.8329 181.536 13.5352 182.879 13.5352C183.968 13.5352 184.963 13.7252 185.862 14.1052C186.761 14.4852 187.521 15.0362 188.142 15.7582L186.546 17.2592C185.583 16.2206 184.399 15.7012 182.993 15.7012C182.081 15.7012 181.264 15.9039 180.542 16.3092C179.82 16.7019 179.256 17.2529 178.851 17.9622C178.446 18.6716 178.243 19.4759 178.243 20.3752C178.243 21.2746 178.446 22.0789 178.851 22.7882C179.256 23.4976 179.82 24.0549 180.542 24.4602C181.264 24.8529 182.081 25.0492 182.993 25.0492C184.399 25.0492 185.583 24.5236 186.546 23.4722L188.142 24.9922C187.521 25.7142 186.755 26.2652 185.843 26.6452C184.944 27.0252 183.949 27.2152 182.86 27.2152ZM199.939 15.8152H195.531V27.0252H193.08V15.8152H188.691V13.7252H199.939V15.8152ZM210.217 23.9472H203.567L202.256 27.0252H199.71L205.695 13.7252H208.127L214.131 27.0252H211.547L210.217 23.9472ZM209.4 22.0092L206.892 16.1952L204.403 22.0092H209.4ZM216.19 13.7252H226.545V15.7582H218.622V19.0262H222.555C224.151 19.0262 225.36 19.3619 226.184 20.0332C227.02 20.6919 227.438 21.6482 227.438 22.9022C227.438 24.2196 226.982 25.2392 226.07 25.9612C225.158 26.6706 223.859 27.0252 222.175 27.0252H216.19V13.7252ZM222.042 25.1252C222.992 25.1252 223.714 24.9416 224.208 24.5742C224.702 24.2069 224.949 23.6749 224.949 22.9782C224.949 21.6102 223.98 20.9262 222.042 20.9262H218.622V25.1252H222.042Z" fill="#DDDDDD"/>
<path d="M98.56 36.4652C99.632 36.4652 100.472 36.7212 101.08 37.2332C101.688 37.7452 101.992 38.4492 101.992 39.3452C101.992 40.2412 101.688 40.9452 101.08 41.4572C100.472 41.9612 99.632 42.2132 98.56 42.2132H96.304V44.8652H95.416V36.4652H98.56ZM98.536 41.4332C99.368 41.4332 100.004 41.2532 100.444 40.8932C100.884 40.5252 101.104 40.0092 101.104 39.3452C101.104 38.6652 100.884 38.1452 100.444 37.7852C100.004 37.4172 99.368 37.2332 98.536 37.2332H96.304V41.4332H98.536ZM109.099 41.9732H103.819C103.867 42.6292 104.119 43.1612 104.575 43.5692C105.031 43.9692 105.607 44.1692 106.303 44.1692C106.695 44.1692 107.055 44.1012 107.383 43.9652C107.711 43.8212 107.995 43.6132 108.235 43.3412L108.715 43.8932C108.435 44.2292 108.083 44.4852 107.659 44.6612C107.243 44.8372 106.783 44.9252 106.279 44.9252C105.631 44.9252 105.055 44.7892 104.551 44.5172C104.055 44.2372 103.667 43.8532 103.387 43.3652C103.107 42.8772 102.967 42.3252 102.967 41.7092C102.967 41.0932 103.099 40.5412 103.363 40.0532C103.635 39.5652 104.003 39.1852 104.467 38.9132C104.939 38.6412 105.467 38.5052 106.051 38.5052C106.635 38.5052 107.159 38.6412 107.623 38.9132C108.087 39.1852 108.451 39.5652 108.715 40.0532C108.979 40.5332 109.111 41.0852 109.111 41.7092L109.099 41.9732ZM106.051 39.2372C105.443 39.2372 104.931 39.4332 104.515 39.8252C104.107 40.2092 103.875 40.7132 103.819 41.3372H108.295C108.239 40.7132 108.003 40.2092 107.587 39.8252C107.179 39.4332 106.667 39.2372 106.051 39.2372ZM118.053 38.5532V44.8652H117.273V39.8732L114.717 44.0972H114.333L111.777 39.8612V44.8652H110.997V38.5532H111.861L114.537 43.1012L117.261 38.5532H118.053ZM123.082 44.9252C122.474 44.9252 121.926 44.7892 121.438 44.5172C120.95 44.2372 120.566 43.8532 120.286 43.3652C120.006 42.8772 119.866 42.3252 119.866 41.7092C119.866 41.0932 120.006 40.5412 120.286 40.0532C120.566 39.5652 120.95 39.1852 121.438 38.9132C121.926 38.6412 122.474 38.5052 123.082 38.5052C123.69 38.5052 124.238 38.6412 124.726 38.9132C125.214 39.1852 125.594 39.5652 125.866 40.0532C126.146 40.5412 126.286 41.0932 126.286 41.7092C126.286 42.3252 126.146 42.8772 125.866 43.3652C125.594 43.8532 125.214 44.2372 124.726 44.5172C124.238 44.7892 123.69 44.9252 123.082 44.9252ZM123.082 44.1692C123.53 44.1692 123.93 44.0692 124.282 43.8692C124.642 43.6612 124.922 43.3692 125.122 42.9932C125.322 42.6172 125.422 42.1892 125.422 41.7092C125.422 41.2292 125.322 40.8012 125.122 40.4252C124.922 40.0492 124.642 39.7612 124.282 39.5612C123.93 39.3532 123.53 39.2492 123.082 39.2492C122.634 39.2492 122.23 39.3532 121.87 39.5612C121.518 39.7612 121.238 40.0492 121.03 40.4252C120.83 40.8012 120.73 41.2292 120.73 41.7092C120.73 42.1892 120.83 42.6172 121.03 42.9932C121.238 43.3692 121.518 43.6612 121.87 43.8692C122.23 44.0692 122.634 44.1692 123.082 44.1692ZM128.107 38.5532H128.959V41.3492H132.931V38.5532H133.783V44.8652H132.931V42.0812H128.959V44.8652H128.107V38.5532ZM140.644 39.3092H138.256V44.8652H137.404V39.3092H135.016V38.5532H140.644V39.3092ZM146.733 38.5052C147.365 38.5052 147.933 38.6452 148.437 38.9252C148.949 39.1972 149.349 39.5772 149.637 40.0652C149.933 40.5532 150.081 41.1012 150.081 41.7092C150.081 42.3172 149.933 42.8692 149.637 43.3652C149.349 43.8532 148.949 44.2372 148.437 44.5172C147.933 44.7972 147.365 44.9372 146.733 44.9372C146.205 44.9372 145.721 44.8572 145.281 44.6972C144.841 44.5292 144.469 44.2892 144.165 43.9772L144.669 43.4732C145.205 43.9772 145.881 44.2292 146.697 44.2292C147.153 44.2292 147.565 44.1332 147.933 43.9412C148.309 43.7492 148.613 43.4812 148.845 43.1372C149.085 42.7932 149.225 42.4092 149.265 41.9852H145.893V41.3372H149.253C149.165 40.7052 148.885 40.1932 148.413 39.8012C147.941 39.4012 147.369 39.2012 146.697 39.2012C145.881 39.2012 145.205 39.4532 144.669 39.9572L144.165 39.4652C144.469 39.1532 144.841 38.9172 145.281 38.7572C145.721 38.5892 146.205 38.5052 146.733 38.5052ZM156.997 38.5532V44.8652H156.145V39.3092H153.121L153.037 40.8692C152.973 42.1812 152.821 43.1892 152.581 43.8932C152.341 44.5972 151.913 44.9492 151.297 44.9492C151.129 44.9492 150.925 44.9172 150.685 44.8532L150.745 44.1212C150.889 44.1532 150.989 44.1692 151.045 44.1692C151.373 44.1692 151.621 44.0172 151.789 43.7132C151.957 43.4092 152.069 43.0332 152.125 42.5852C152.181 42.1372 152.229 41.5452 152.269 40.8092L152.377 38.5532H156.997ZM164.939 41.9732H159.659C159.707 42.6292 159.959 43.1612 160.415 43.5692C160.871 43.9692 161.447 44.1692 162.143 44.1692C162.535 44.1692 162.895 44.1012 163.223 43.9652C163.551 43.8212 163.835 43.6132 164.075 43.3412L164.555 43.8932C164.275 44.2292 163.923 44.4852 163.499 44.6612C163.083 44.8372 162.623 44.9252 162.119 44.9252C161.471 44.9252 160.895 44.7892 160.391 44.5172C159.895 44.2372 159.507 43.8532 159.227 43.3652C158.947 42.8772 158.807 42.3252 158.807 41.7092C158.807 41.0932 158.939 40.5412 159.203 40.0532C159.475 39.5652 159.843 39.1852 160.307 38.9132C160.779 38.6412 161.307 38.5052 161.891 38.5052C162.475 38.5052 162.999 38.6412 163.463 38.9132C163.927 39.1852 164.291 39.5652 164.555 40.0532C164.819 40.5332 164.951 41.0852 164.951 41.7092L164.939 41.9732ZM161.891 39.2372C161.283 39.2372 160.771 39.4332 160.355 39.8252C159.947 40.2092 159.715 40.7132 159.659 41.3372H164.135C164.079 40.7132 163.843 40.2092 163.427 39.8252C163.019 39.4332 162.507 39.2372 161.891 39.2372ZM169.129 42.0572H167.689V44.8652H166.837V38.5532H167.689V41.3252H169.141L171.361 38.5532H172.285L169.801 41.6132L172.465 44.8652H171.457L169.129 42.0572ZM178.121 39.3092H175.733V44.8652H174.881V39.3092H172.493V38.5532H178.121V39.3092ZM182.605 38.5052C183.197 38.5052 183.733 38.6412 184.213 38.9132C184.693 39.1772 185.069 39.5532 185.341 40.0412C185.613 40.5292 185.749 41.0852 185.749 41.7092C185.749 42.3412 185.613 42.9012 185.341 43.3892C185.069 43.8772 184.693 44.2572 184.213 44.5292C183.741 44.7932 183.205 44.9252 182.605 44.9252C182.093 44.9252 181.629 44.8212 181.213 44.6132C180.805 44.3972 180.469 44.0852 180.205 43.6772V47.1932H179.353V38.5532H180.169V39.8012C180.425 39.3852 180.761 39.0652 181.177 38.8412C181.601 38.6172 182.077 38.5052 182.605 38.5052ZM182.545 44.1692C182.985 44.1692 183.385 44.0692 183.745 43.8692C184.105 43.6612 184.385 43.3692 184.585 42.9932C184.793 42.6172 184.897 42.1892 184.897 41.7092C184.897 41.2292 184.793 40.8052 184.585 40.4372C184.385 40.0612 184.105 39.7692 183.745 39.5612C183.385 39.3532 182.985 39.2492 182.545 39.2492C182.097 39.2492 181.693 39.3532 181.333 39.5612C180.981 39.7692 180.701 40.0612 180.493 40.4372C180.293 40.8052 180.193 41.2292 180.193 41.7092C180.193 42.1892 180.293 42.6172 180.493 42.9932C180.701 43.3692 180.981 43.6612 181.333 43.8692C181.693 44.0692 182.097 44.1692 182.545 44.1692ZM190.183 44.9252C189.575 44.9252 189.027 44.7892 188.539 44.5172C188.051 44.2372 187.667 43.8532 187.387 43.3652C187.107 42.8772 186.967 42.3252 186.967 41.7092C186.967 41.0932 187.107 40.5412 187.387 40.0532C187.667 39.5652 188.051 39.1852 188.539 38.9132C189.027 38.6412 189.575 38.5052 190.183 38.5052C190.791 38.5052 191.339 38.6412 191.827 38.9132C192.315 39.1852 192.695 39.5652 192.967 40.0532C193.247 40.5412 193.387 41.0932 193.387 41.7092C193.387 42.3252 193.247 42.8772 192.967 43.3652C192.695 43.8532 192.315 44.2372 191.827 44.5172C191.339 44.7892 190.791 44.9252 190.183 44.9252ZM190.183 44.1692C190.631 44.1692 191.031 44.0692 191.383 43.8692C191.743 43.6612 192.023 43.3692 192.223 42.9932C192.423 42.6172 192.523 42.1892 192.523 41.7092C192.523 41.2292 192.423 40.8012 192.223 40.4252C192.023 40.0492 191.743 39.7612 191.383 39.5612C191.031 39.3532 190.631 39.2492 190.183 39.2492C189.735 39.2492 189.331 39.3532 188.971 39.5612C188.619 39.7612 188.339 40.0492 188.131 40.4252C187.931 40.8012 187.831 41.2292 187.831 41.7092C187.831 42.1892 187.931 42.6172 188.131 42.9932C188.339 43.3692 188.619 43.6612 188.971 43.8692C189.331 44.0692 189.735 44.1692 190.183 44.1692ZM201.329 44.1212V46.3892H200.525V44.8652H194.873V46.3892H194.069V44.1212H194.429C194.853 44.0972 195.141 43.7852 195.293 43.1852C195.445 42.5852 195.549 41.7452 195.605 40.6652L195.689 38.5532H200.345V44.1212H201.329ZM196.385 40.7132C196.345 41.6092 196.269 42.3492 196.157 42.9332C196.045 43.5092 195.845 43.9052 195.557 44.1212H199.493V39.3092H196.457L196.385 40.7132ZM207.009 41.6012C207.865 41.8012 208.293 42.3172 208.293 43.1492C208.293 43.7012 208.089 44.1252 207.681 44.4212C207.273 44.7172 206.665 44.8652 205.857 44.8652H202.989V38.5532H205.773C206.493 38.5532 207.057 38.6932 207.465 38.9732C207.873 39.2532 208.077 39.6532 208.077 40.1732C208.077 40.5172 207.981 40.8132 207.789 41.0612C207.605 41.3012 207.345 41.4812 207.009 41.6012ZM203.817 41.3612H205.713C206.201 41.3612 206.573 41.2692 206.829 41.0852C207.093 40.9012 207.225 40.6332 207.225 40.2812C207.225 39.9292 207.093 39.6652 206.829 39.4892C206.573 39.3132 206.201 39.2252 205.713 39.2252H203.817V41.3612ZM205.821 44.1932C206.365 44.1932 206.773 44.1052 207.045 43.9292C207.317 43.7532 207.453 43.4772 207.453 43.1012C207.453 42.7252 207.329 42.4492 207.081 42.2732C206.833 42.0892 206.441 41.9972 205.905 41.9972H203.817V44.1932H205.821ZM210.29 38.5532H211.142V43.5692L215.354 38.5532H216.11V44.8652H215.258V39.8492L211.058 44.8652H210.29V38.5532ZM223.016 39.3092H219.404V44.8652H218.552V38.5532H223.016V39.3092ZM226.419 38.5052C227.243 38.5052 227.875 38.7132 228.315 39.1292C228.755 39.5372 228.975 40.1452 228.975 40.9532V44.8652H228.159V43.8812C227.967 44.2092 227.683 44.4652 227.307 44.6492C226.939 44.8332 226.499 44.9252 225.987 44.9252C225.283 44.9252 224.723 44.7572 224.307 44.4212C223.891 44.0852 223.683 43.6412 223.683 43.0892C223.683 42.5532 223.875 42.1212 224.259 41.7932C224.651 41.4652 225.271 41.3012 226.119 41.3012H228.123V40.9172C228.123 40.3732 227.971 39.9612 227.667 39.6812C227.363 39.3932 226.919 39.2492 226.335 39.2492C225.935 39.2492 225.551 39.3172 225.183 39.4532C224.815 39.5812 224.499 39.7612 224.235 39.9932L223.851 39.3572C224.171 39.0852 224.555 38.8772 225.003 38.7332C225.451 38.5812 225.923 38.5052 226.419 38.5052ZM226.119 44.2532C226.599 44.2532 227.011 44.1452 227.355 43.9292C227.699 43.7052 227.955 43.3852 228.123 42.9692V41.9372H226.143C225.063 41.9372 224.523 42.3132 224.523 43.0652C224.523 43.4332 224.663 43.7252 224.943 43.9412C225.223 44.1492 225.615 44.2532 226.119 44.2532ZM235.683 39.3092H233.295V44.8652H232.443V39.3092H230.055V38.5532H235.683V39.3092ZM242.142 41.9732H236.862C236.91 42.6292 237.162 43.1612 237.618 43.5692C238.074 43.9692 238.65 44.1692 239.346 44.1692C239.738 44.1692 240.098 44.1012 240.426 43.9652C240.754 43.8212 241.038 43.6132 241.278 43.3412L241.758 43.8932C241.478 44.2292 241.126 44.4852 240.702 44.6612C240.286 44.8372 239.826 44.9252 239.322 44.9252C238.674 44.9252 238.098 44.7892 237.594 44.5172C237.098 44.2372 236.71 43.8532 236.43 43.3652C236.15 42.8772 236.01 42.3252 236.01 41.7092C236.01 41.0932 236.142 40.5412 236.406 40.0532C236.678 39.5652 237.046 39.1852 237.51 38.9132C237.982 38.6412 238.51 38.5052 239.094 38.5052C239.678 38.5052 240.202 38.6412 240.666 38.9132C241.13 39.1852 241.494 39.5652 241.758 40.0532C242.022 40.5332 242.154 41.0852 242.154 41.7092L242.142 41.9732ZM239.094 39.2372C238.486 39.2372 237.974 39.4332 237.558 39.8252C237.15 40.2092 236.918 40.7132 236.862 41.3372H241.338C241.282 40.7132 241.046 40.2092 240.63 39.8252C240.222 39.4332 239.71 39.2372 239.094 39.2372ZM249.071 38.5532V44.8652H248.219V39.3092H245.195L245.111 40.8692C245.047 42.1812 244.895 43.1892 244.655 43.8932C244.415 44.5972 243.987 44.9492 243.371 44.9492C243.203 44.9492 242.999 44.9172 242.759 44.8532L242.819 44.1212C242.963 44.1532 243.063 44.1692 243.119 44.1692C243.447 44.1692 243.695 44.0172 243.863 43.7132C244.031 43.4092 244.143 43.0332 244.199 42.5852C244.255 42.1372 244.303 41.5452 244.343 40.8092L244.451 38.5532H249.071ZM257.013 41.9732H251.733C251.781 42.6292 252.033 43.1612 252.489 43.5692C252.945 43.9692 253.521 44.1692 254.217 44.1692C254.609 44.1692 254.969 44.1012 255.297 43.9652C255.625 43.8212 255.909 43.6132 256.149 43.3412L256.629 43.8932C256.349 44.2292 255.997 44.4852 255.573 44.6612C255.157 44.8372 254.697 44.9252 254.193 44.9252C253.545 44.9252 252.969 44.7892 252.465 44.5172C251.969 44.2372 251.581 43.8532 251.301 43.3652C251.021 42.8772 250.881 42.3252 250.881 41.7092C250.881 41.0932 251.013 40.5412 251.277 40.0532C251.549 39.5652 251.917 39.1852 252.381 38.9132C252.853 38.6412 253.381 38.5052 253.965 38.5052C254.549 38.5052 255.073 38.6412 255.537 38.9132C256.001 39.1852 256.365 39.5652 256.629 40.0532C256.893 40.5332 257.025 41.0852 257.025 41.7092L257.013 41.9732ZM253.965 39.2372C253.357 39.2372 252.845 39.4332 252.429 39.8252C252.021 40.2092 251.789 40.7132 251.733 41.3372H256.209C256.153 40.7132 255.917 40.2092 255.501 39.8252C255.093 39.4332 254.581 39.2372 253.965 39.2372ZM258.911 38.5532H259.763V43.5692L263.975 38.5532H264.731V44.8652H263.879V39.8492L259.679 44.8652H258.911V38.5532ZM261.779 37.6412C261.235 37.6412 260.803 37.5052 260.483 37.2332C260.163 36.9612 259.999 36.5772 259.991 36.0812H260.603C260.611 36.3932 260.723 36.6452 260.939 36.8372C261.155 37.0212 261.435 37.1132 261.779 37.1132C262.123 37.1132 262.403 37.0212 262.619 36.8372C262.843 36.6452 262.959 36.3932 262.967 36.0812H263.579C263.571 36.5772 263.403 36.9612 263.075 37.2332C262.755 37.5052 262.323 37.6412 261.779 37.6412Z" fill="#DDDDDD"/>
<path fill-rule="evenodd" clip-rule="evenodd" d="M36.9941 0.0861221C35.7849 0.320819 34.6547 1.22198 34.1238 2.37462C33.5922 3.52907 33.7468 5.07354 34.5025 6.15431C34.8881 6.70596 35.8069 7.48417 36.1017 7.50877C36.1577 7.51341 35.9956 7.53857 35.7416 7.56462C35.3923 7.60043 35.2134 7.65564 35.0084 7.79086C34.607 8.05561 34.4874 8.24817 34.4429 8.70123L34.4041 9.09663L25.3749 9.12793C18.6263 9.15134 16.3029 9.17795 16.1763 9.23322C15.922 9.34428 15.6733 9.61316 15.5359 9.92523C15.4163 10.1971 15.4133 10.5854 15.4147 25.5017C15.4161 40.4675 15.4188 40.8052 15.5399 41.0682C15.6953 41.4057 15.8341 41.5628 16.1275 41.7333L16.359 41.8679L33.9609 41.869C43.6419 41.8697 52.9726 41.8699 54.6958 41.8696L57.8288 41.869L57.8126 25.5141L57.7964 9.15923L49.5545 9.14333L41.3125 9.12743L41.311 8.92422C41.3049 8.11251 40.7305 7.56925 39.8736 7.56481L39.495 7.56286L39.8464 7.38019C40.1623 7.21605 40.6362 6.85477 40.8241 6.63497C40.863 6.58946 40.9526 6.49105 41.0233 6.41624C41.3285 6.09327 41.7436 5.21696 41.8262 4.72134C41.9067 4.23867 41.9076 3.6914 41.829 3.22338C41.7691 2.86761 41.4715 2.05353 41.3785 1.99124C41.3528 1.97403 41.2945 1.88951 41.249 1.80343C41.1601 1.63541 41.1234 1.59265 40.7377 1.20871C40.0828 0.556643 39.4631 0.233426 38.5803 0.0834302C37.9211 -0.0285656 37.5819 -0.0279396 36.9941 0.0861221ZM38.9516 1.73401C39.5602 2.02962 39.8513 2.32735 40.1594 2.96903C40.3499 3.36606 40.3585 3.41764 40.3355 4.01919C40.3016 4.90576 40.1396 5.2132 39.3136 5.95817C39.2569 6.00932 39.0255 6.12701 38.7995 6.21973C38.4596 6.35908 38.2918 6.38825 37.8294 6.38832C37.3185 6.38832 37.2297 6.36897 36.7968 6.16345C36.2925 5.92393 35.8549 5.54612 35.6901 5.20801C35.6348 5.09445 35.5648 4.98652 35.5344 4.9683C35.4278 4.90407 35.3184 4.10658 35.3562 3.66799C35.4218 2.9053 35.9353 2.16121 36.6569 1.78328C37.1 1.55127 37.4056 1.49155 38.0198 1.51715C38.4571 1.53537 38.6214 1.57362 38.9516 1.73401ZM61.9254 9.04967L58.7282 9.06651L58.7131 12.3995C58.7048 14.2327 58.6996 15.9438 58.7016 16.202C58.7036 16.4602 58.7112 22.3564 58.7185 29.3046L58.7318 41.9377L62.7626 41.9177L66.7934 41.8976L67.3076 41.7231C68.3484 41.3698 68.8711 41.0675 69.5013 40.454C69.8956 40.0701 70.4244 39.3495 70.4244 39.196C70.4244 39.1512 70.4507 39.1145 70.483 39.1145C70.5152 39.1145 70.6041 38.9385 70.6805 38.7233C71.0122 37.7893 70.9979 38.3804 71 25.5298C71.0011 17.8481 70.9788 13.4032 70.9377 13.1567C70.9025 12.9451 70.8306 12.6916 70.7779 12.5933C70.7253 12.495 70.6821 12.3764 70.6818 12.3297C70.6813 12.2115 70.3942 11.6654 70.1224 11.2656C69.8926 10.9276 69.1178 10.1296 69.0193 10.1296C68.9901 10.1296 68.9157 10.0752 68.854 10.0088C68.7923 9.94239 68.6505 9.84297 68.5388 9.78794C68.4272 9.73292 68.2924 9.66249 68.2394 9.63144C67.9615 9.46873 67.5004 9.30259 67.1069 9.22333C66.5073 9.10257 65.6254 8.9994 65.3492 9.01775C65.2245 9.02607 63.6838 9.04041 61.9254 9.04967ZM11.5259 12.4191C11.2448 12.5615 11.0395 12.7623 10.9382 12.9939C10.8633 13.1653 10.8492 15.1493 10.8498 25.4886C10.8503 33.8807 10.8719 37.8374 10.9177 37.9619C10.9547 38.0621 11.1211 38.2426 11.2875 38.3629C11.454 38.4832 11.6107 38.6099 11.6359 38.6446C11.6635 38.6826 12.244 38.7152 13.0979 38.7266L14.5142 38.7457V25.5332V12.3207L13.1164 12.321C11.9758 12.3213 11.6832 12.3394 11.5259 12.4191ZM53.3943 13.8547V14.3239H37.1032H20.8121V13.8388V13.3536L37.1032 13.3695L53.3943 13.3854V13.8547ZM53.381 16.7498L53.3999 17.2036H37.106H20.8121V16.7759C20.8121 16.5406 20.8306 16.3301 20.8532 16.3081C20.8758 16.286 28.1996 16.2743 37.1282 16.282L53.3621 16.2959L53.381 16.7498ZM53.3392 19.6451C53.3266 19.8689 53.3025 20.0661 53.2857 20.0834C53.2688 20.1006 45.9554 20.1206 37.0336 20.1279L20.8121 20.1411V19.6739V19.2067L37.0871 19.2225L53.3621 19.2382L53.3392 19.6451ZM53.3943 22.5872V23.0883H37.1032H20.8121V22.591V22.0938L37.1032 22.09L53.3943 22.0861V22.5872ZM7.52541 22.5268C7.44585 22.558 7.37722 22.6407 7.37278 22.7107C7.36835 22.7806 7.35749 22.866 7.34868 22.9005C7.33988 22.9349 7.32902 22.9912 7.32458 23.0257C7.31931 23.0666 6.08408 23.0886 3.76593 23.0892C1.64276 23.0898 0.176561 23.1141 0.118916 23.1495C0.03685 23.2 0.019756 23.5321 0.00401116 25.3835C-0.00852043 26.8565 0.00818782 27.6116 0.0558722 27.7238L0.126242 27.8893L1.19323 27.9303C1.78003 27.9528 3.41138 27.9713 4.81846 27.9713C6.9933 27.9713 7.37156 27.9845 7.342 28.0595C7.32291 28.1081 7.35344 28.2348 7.40993 28.3413L7.51262 28.5347H8.69046H9.86831L9.90982 28.0557C9.96355 27.4366 9.96316 23.8654 9.90924 23.0726L9.86773 22.4623L8.76887 22.4662C8.16452 22.4684 7.60497 22.4957 7.52541 22.5268ZM53.3943 25.4963V25.968H37.1032H20.8121V25.5047V25.0414L37.1032 25.033L53.3943 25.0246V25.4963ZM39.2079 27.9711L53.3943 27.9713V28.4095V28.8477L41.682 28.8489C35.2404 28.8496 27.9166 28.856 25.407 28.8631L20.8442 28.876L20.8254 28.4255L20.8066 27.975L21.6287 27.9507C22.0809 27.9374 23.0292 27.9365 23.7362 27.9487C24.4431 27.9609 31.4053 27.971 39.2079 27.9711ZM53.3943 31.3205V31.79L46.7268 31.7936C43.0597 31.7955 35.7288 31.8026 30.4357 31.8092L20.8121 31.8213V31.3362V30.851H37.1032H53.3943V31.3205ZM53.3943 34.2321V34.7323H37.1032H20.8121V34.2321V33.7318H37.1032L53.3943 33.7318V34.2321ZM53.3943 37.1425V37.6121H37.1032H20.8121V37.1425V36.673H37.1032H53.3943V37.1425ZM20.8759 44.0445L20.8755 45.3435L20.3458 45.3475C19.8917 45.351 19.7793 45.3744 19.559 45.5116C18.9909 45.8651 18.8738 46.1625 18.8979 47.1902L18.9163 47.9728L19.5911 47.9827C21.6105 48.0125 58.4889 48.0008 58.5395 47.9703C58.6154 47.9246 58.6194 46.3957 58.5437 46.3501C58.513 46.3316 58.47 46.2295 58.4481 46.1232C58.4115 45.945 58.0944 45.5626 57.9831 45.5626C57.9567 45.5626 57.8837 45.5173 57.8209 45.462C57.7429 45.3931 57.533 45.3508 57.1572 45.3279L56.6075 45.2945V44.02V42.7455H38.7419H20.8764L20.8759 44.0445Z" fill="white"/>
</svg>
