<svg width="18" height="18" viewBox="0 0 18 18" fill="none" xmlns="http://www.w3.org/2000/svg">
<path d="M3.56589 18C3.3414 18 3.20633 17.9856 3.17169 17.9814C3.11267 17.9746 3.05535 17.9494 3.00922 17.9054C3.00725 17.9035 3.00527 17.9015 3.00339 17.8997L1.63404 16.5304C1.11587 16.0123 1.11587 15.1692 1.63404 14.6512L4.23249 12.0527C4.48353 11.8017 4.81711 11.6635 5.17206 11.6635C5.52702 11.6635 5.86069 11.8018 6.11163 12.0527L7.39505 13.3361C7.79368 13.3069 9.30629 13.0794 11.0558 11.33C12.8177 9.56815 12.9995 8.10702 13.0153 7.72393L11.7281 6.43637C11.2099 5.9183 11.2099 5.0753 11.7281 4.55714L14.3265 1.95868C14.8446 1.44051 15.6877 1.44051 16.2058 1.95868L17.575 3.32794C17.5769 3.32973 17.5786 3.33151 17.5803 3.3333C17.5804 3.3334 17.5803 3.3334 17.5807 3.33368C17.6239 3.37895 17.6491 3.43505 17.6564 3.49294C17.6864 3.71489 18.161 7.86258 12.8748 13.1487C8.42724 17.5963 4.75217 18 3.56589 18ZM7.40173 13.9022L3.8863 17.4176C5.23739 17.325 8.55892 16.6659 12.4754 12.7493C16.3935 8.83114 17.0221 5.53812 17.1005 4.20341L13.5804 7.72355C13.5653 8.1955 13.365 9.81947 11.4553 11.7292C9.53709 13.6475 7.87265 13.8773 7.40173 13.9022ZM5.17216 12.2285C4.97647 12.2285 4.78078 12.303 4.63187 12.452L2.03342 15.0505C1.88912 15.1947 1.80968 15.3867 1.80968 15.5907C1.80968 15.7948 1.88912 15.9867 2.03342 16.1311L3.20388 17.3016L6.88291 13.6226L5.71244 12.452C5.56354 12.303 5.36785 12.2285 5.17216 12.2285ZM15.2662 2.13413C15.0621 2.13413 14.8702 2.21357 14.7259 2.35787L12.1274 4.95633C11.9832 5.10072 11.9037 5.29255 11.9037 5.49661C11.9037 5.70068 11.9832 5.8926 12.1274 6.0369L13.2979 7.20736L16.977 3.52833L15.8066 2.35787C15.6622 2.21367 15.4703 2.13413 15.2662 2.13413ZM4.76911 9.05186C4.61314 9.05186 4.48673 8.92545 4.48673 8.76948C4.48673 6.23127 6.55168 4.16632 9.08989 4.16632C9.24586 4.16632 9.37227 4.29273 9.37227 4.4487C9.37227 4.60467 9.24586 4.73108 9.08989 4.73108C6.86314 4.73108 5.05149 6.54273 5.05149 8.76948C5.05149 8.92545 4.92498 9.05186 4.76911 9.05186ZM2.66058 9.05186C2.50461 9.05186 2.3782 8.92545 2.3782 8.76948C2.3782 5.06871 5.38903 2.05779 9.08989 2.05779C9.24586 2.05779 9.37227 2.18421 9.37227 2.34017C9.37227 2.49614 9.24586 2.62255 9.08989 2.62255C5.70049 2.62255 2.94296 5.37999 2.94296 8.76948C2.94296 8.92545 2.81655 9.05186 2.66058 9.05186ZM0.602692 9.05186C0.446724 9.05186 0.320312 8.92545 0.320312 8.76948C0.320313 3.93402 4.25433 0 9.08989 0C9.24586 0 9.37227 0.126412 9.37227 0.28238C9.37227 0.438347 9.24586 0.564759 9.08989 0.564759C4.5657 0.564759 0.885072 4.24539 0.885072 8.76948C0.885072 8.92545 0.75866 9.05186 0.602692 9.05186Z" fill="#9F9F9F"/>
</svg>
