<?xml version="1.0" encoding="UTF-8"?><!DOCTYPE svg PUBLIC "-//W3C//DTD SVG 1.1//EN" "http://www.w3.org/Graphics/SVG/1.1/DTD/svg11.dtd"><svg xmlns="http://www.w3.org/2000/svg" xmlns:xlink="http://www.w3.org/1999/xlink"><defs>
<clipPath id="clip0">
<rect width="70" height="70" fill="white"/>
</clipPath>
</defs><symbol id="arrow-down" viewBox="0 0 20 38">
<path d="M10 0V36.7533M10 36.7533L19 27.9325M10 36.7533L1 27.9325" stroke="white" stroke-opacity="0.5"/>
</symbol><symbol id="arrow-long" viewBox="0 0 115 17">
<path d="M0 8.5H114M114 8.5L101.786 1M114 8.5L101.786 16" stroke="white" stroke-opacity="0.5"/>
</symbol><symbol id="arrow-right" viewBox="0 0 26 14">
<path d="M25 7.39527H0M25 7.39527L19.2073 1.25574M25 7.39527L19.2073 13.5348" stroke="#F1520D"/>
</symbol><symbol id="bearing" viewBox="0 0 68 68">
<path d="M58.0416 9.95841C51.6197 3.53666 43.0816 0 34 0C24.9184 0 16.3803 3.53666 9.95841 9.95841C3.53666 16.3803 0 24.9184 0 34C0 43.0816 3.53666 51.6197 9.95841 58.0416C16.3803 64.4633 24.9184 68 34 68C39.3249 68 44.4229 66.8039 49.1523 64.4447C49.6446 64.1992 49.8447 63.601 49.5991 63.1088C49.3534 62.6164 48.7555 62.4167 48.263 62.662C43.8123 64.8821 39.0134 66.0078 34 66.0078C25.4506 66.0078 17.4128 62.6783 11.3672 56.6328C5.32153 50.5873 1.99219 42.5494 1.99219 34C1.99219 25.4506 5.32166 17.4128 11.3672 11.3672C17.4126 5.32153 25.4506 1.99219 34 1.99219C42.5494 1.99219 50.5873 5.32166 56.6328 11.3672C62.6783 17.4126 66.0078 25.4506 66.0078 34C66.0078 44.7913 60.6233 54.7858 51.6043 60.735C51.1452 61.038 51.0185 61.6558 51.3213 62.1151C51.6244 62.5743 52.2422 62.7009 52.7013 62.3981C62.2808 56.079 68 45.4629 68 34C68 24.9184 64.4633 16.3803 58.0416 9.95841Z" fill="#3D6A66"/>
<path d="M63.9025 33.9999C63.9025 26.0127 60.792 18.5035 55.1443 12.8556C49.4966 7.20775 41.9873 4.09741 34.0001 4.09741C26.0129 4.09741 18.5037 7.20775 12.8558 12.8556C7.20799 18.5035 4.09766 26.0127 4.09766 33.9999C4.09766 41.9871 7.20799 49.4963 12.8558 55.1442C18.5037 60.792 26.0129 63.9024 34.0001 63.9024C41.9873 63.9024 49.4966 60.792 55.1443 55.1442C60.792 49.4963 63.9025 41.9871 63.9025 33.9999ZM22.4118 53.7354C20.1656 55.9817 16.5107 55.9815 14.2646 53.7354C12.0185 51.4892 12.0185 47.8344 14.2646 45.5882C15.3879 44.465 16.8628 43.9036 18.3382 43.9036C19.8132 43.9036 21.2889 44.4652 22.4118 45.5882C24.658 47.8344 24.658 51.4893 22.4118 53.7354ZM19.6038 33.9999C19.6038 26.0617 26.0619 19.6035 34.0001 19.6035C41.9383 19.6035 48.3965 26.0617 48.3965 33.9999C48.3965 41.9381 41.9383 48.3962 34.0001 48.3962C26.0619 48.3962 19.6038 41.9381 19.6038 33.9999ZM53.7357 22.4116C51.4897 24.6576 47.8348 24.6578 45.5885 22.4116C43.3424 20.1653 43.3424 16.5106 45.5885 14.2643C46.7117 13.1411 48.1868 12.5797 49.6622 12.5797C51.1371 12.5797 52.6127 13.1414 53.7357 14.2643C55.9818 16.5105 55.9818 20.1653 53.7357 22.4116ZM45.5885 45.5882C47.8345 43.3422 51.4894 43.3419 53.7357 45.5882C55.9818 47.8344 55.9818 51.4892 53.7357 53.7354C51.4894 55.9817 47.8345 55.9814 45.5885 53.7354C43.3424 51.4893 43.3424 47.8344 45.5885 45.5882ZM55.1444 44.1796C53.28 42.315 50.6947 41.6023 48.2775 42.0378C48.9166 40.9071 49.4255 39.6936 49.7832 38.4172C51.1849 40.4312 53.5151 41.7529 56.1494 41.7529C58.1291 41.7529 59.9366 41.0055 61.3081 39.78C60.5869 43.1914 59.2403 46.3747 57.3949 49.2044C57.2879 47.3742 56.5396 45.5748 55.1444 44.1796ZM56.1494 39.7608C52.9728 39.7608 50.3885 37.1765 50.3885 33.9999C50.3885 30.8233 52.9728 28.239 56.1494 28.239C59.326 28.239 61.9103 30.8233 61.9103 33.9999C61.9103 37.1765 59.326 39.7608 56.1494 39.7608ZM56.1494 26.2468C53.5151 26.2468 51.1849 27.5686 49.7832 29.5825C49.4255 28.3063 48.9166 27.0927 48.2775 25.9621C48.735 26.0445 49.1984 26.0874 49.662 26.0874C51.6473 26.0874 53.6327 25.3317 55.1443 23.8202C56.5388 22.4257 57.2889 20.6274 57.3968 18.7982C59.2403 21.626 60.5845 24.8071 61.3058 28.2158C59.9347 26.9919 58.1276 26.2468 56.1494 26.2468ZM44.1797 12.8556C42.3154 14.72 41.6026 17.3052 42.0379 19.7225C40.9072 19.0833 39.6937 18.5745 38.4175 18.2168C40.4314 16.8151 41.7532 14.4849 41.7532 11.8506C41.7532 9.8721 41.0081 8.06439 39.784 6.6931C43.1925 7.41427 46.3731 8.75926 49.2009 10.6027C47.372 10.7107 45.5742 11.4613 44.1797 12.8556ZM39.761 11.8506C39.761 15.0271 37.1767 17.6115 34.0001 17.6115C30.8236 17.6115 28.2392 15.0272 28.2392 11.8506C28.2392 8.674 30.8235 6.08973 34.0001 6.08973C37.1767 6.0896 39.761 8.674 39.761 11.8506ZM29.5828 18.2168C28.3083 18.574 27.0965 19.082 25.9672 19.7197C26.0481 19.2681 26.0915 18.8065 26.0915 18.338C26.0915 16.2672 25.2851 14.3201 23.8206 12.8557C22.4662 11.5014 20.6991 10.7112 18.8032 10.5999C21.6302 8.75754 24.8103 7.41387 28.2176 6.69323C26.9932 8.06465 26.2471 9.87183 26.2471 11.8506C26.2471 14.4848 27.5688 16.815 29.5828 18.2168ZM11.494 21.9854C11.7528 22.471 12.3563 22.6545 12.8415 22.3959C13.3269 22.1372 13.5107 21.5338 13.252 21.0484C12.0518 18.7966 12.4587 16.0705 14.2647 14.2645C15.3529 13.1763 16.7996 12.577 18.3383 12.577C19.8771 12.577 21.3237 13.1763 22.4118 14.2645C23.5 15.3526 24.0994 16.7993 24.0994 18.3381C24.0994 19.8769 23.5001 21.3235 22.4118 22.4116C20.6056 24.218 17.88 24.6244 15.6298 23.4232C15.1443 23.164 14.541 23.3475 14.282 23.8328C14.0229 24.3181 14.2063 24.9216 14.6916 25.1806C15.8525 25.8003 17.1069 26.1022 18.3498 26.1022C18.8078 26.1022 19.2642 26.0592 19.7138 25.9777C19.0788 27.104 18.5729 28.3122 18.217 29.5824C16.8153 27.5684 14.4851 26.2467 11.8507 26.2467C9.87221 26.2467 8.0649 26.992 6.69361 28.2162C7.41319 24.8148 8.7538 21.6401 10.5913 18.8168C10.6602 19.8976 10.9564 20.9768 11.494 21.9854ZM11.8509 28.239C15.0273 28.239 17.6117 30.8233 17.6117 33.9999C17.6117 37.1765 15.0275 39.7608 11.8509 39.7608C8.67424 39.7608 6.08998 37.1765 6.08998 33.9999C6.08998 30.8233 8.67424 28.239 11.8509 28.239ZM11.8509 41.7529C14.4852 41.7529 16.8154 40.4312 18.2171 38.4172C18.5747 39.6934 19.0837 40.9071 19.7228 42.0377C17.3057 41.6023 14.7204 42.3151 12.856 44.1794C11.4617 45.5737 10.7116 47.3713 10.6035 49.2003C8.75951 46.3718 7.41465 43.1901 6.69361 39.7805C8.06503 41.0055 9.87155 41.7529 11.8509 41.7529ZM23.8204 55.1442C25.6849 53.2797 26.3977 50.6945 25.9623 48.2774C27.0931 48.9165 28.3066 49.4254 29.5828 49.7831C27.5688 51.1848 26.2471 53.515 26.2471 56.1493C26.2471 58.1273 26.9916 59.9346 28.2152 61.3057C24.807 60.5844 21.6266 59.2396 18.7991 57.3961C20.628 57.2882 22.426 56.5386 23.8204 55.1442ZM28.2392 56.1492C28.2392 52.9727 30.8235 50.3883 34.0001 50.3883C37.1767 50.3883 39.761 52.9725 39.761 56.1492C39.761 59.3258 37.1767 61.91 34.0001 61.91C30.8236 61.9102 28.2392 59.3258 28.2392 56.1492ZM38.4175 49.7829C39.6937 49.4253 40.9072 48.9163 42.0379 48.2772C41.6026 50.6944 42.3154 53.2797 44.1797 55.1442C45.5745 56.5388 47.373 57.2886 49.2024 57.3963C46.3741 59.2404 43.1926 60.5856 39.7833 61.3069C41.0076 59.9355 41.7531 58.1279 41.7531 56.1493C41.7532 53.515 40.4314 51.1848 38.4175 49.7829Z" fill="#3D6A66"/>
<path d="M46.0573 33.9999C46.0573 27.3513 40.6484 21.9424 33.9999 21.9424C27.3514 21.9424 21.9424 27.3513 21.9424 33.9999C21.9424 40.6485 27.3513 46.0574 33.9999 46.0574C40.6485 46.0574 46.0573 40.6485 46.0573 33.9999ZM23.9346 33.9999C23.9346 28.4498 28.4498 23.9346 33.9999 23.9346C39.5499 23.9346 44.0651 28.4498 44.0651 33.9999C44.0651 39.55 39.5499 44.0652 33.9999 44.0652C28.4498 44.0652 23.9346 39.55 23.9346 33.9999Z" fill="#3D6A66"/>
</symbol><symbol id="clipboard" viewBox="0 0 70 70">
<path d="M56.7567 31.6608C56.5059 31.6608 56.2653 31.5612 56.0879 31.3838C55.9105 31.2064 55.8108 30.9658 55.8108 30.7149V27.9622C55.8108 27.7113 55.9105 27.4707 56.0879 27.2933C56.2653 27.1159 56.5059 27.0162 56.7567 27.0162C57.0076 27.0162 57.2482 27.1159 57.4256 27.2933C57.603 27.4707 57.7027 27.7113 57.7027 27.9622V30.7149C57.7027 30.9658 57.603 31.2064 57.4256 31.3838C57.2482 31.5612 57.0076 31.6608 56.7567 31.6608Z" fill="#3D6A66"/>
<path d="M56.7568 68.2595H13.2433C12.9924 68.2595 12.7518 68.1598 12.5744 67.9824C12.397 67.805 12.2974 67.5644 12.2974 67.3135V12.4486C12.2974 12.1978 12.397 11.9571 12.5744 11.7797C12.7518 11.6023 12.9924 11.5027 13.2433 11.5027H22.4095C22.6604 11.5027 22.901 11.6023 23.0784 11.7797C23.2558 11.9571 23.3555 12.1978 23.3555 12.4486C23.3555 12.6995 23.2558 12.9401 23.0784 13.1175C22.901 13.2949 22.6604 13.3946 22.4095 13.3946H14.1893V66.3676H55.8109V46.7676C55.8109 46.5167 55.9105 46.2761 56.0879 46.0987C56.2653 45.9213 56.5059 45.8216 56.7568 45.8216C57.0077 45.8216 57.2483 45.9213 57.4257 46.0987C57.6031 46.2761 57.7028 46.5167 57.7028 46.7676V67.3135C57.7028 67.5644 57.6031 67.805 57.4257 67.9824C57.2483 68.1598 57.0077 68.2595 56.7568 68.2595Z" fill="#3D6A66"/>
<path d="M56.7567 41.0919C56.5059 41.0919 56.2653 40.9922 56.0879 40.8149C55.9105 40.6375 55.8108 40.3968 55.8108 40.146V37.3365C55.8108 37.0856 55.9105 36.845 56.0879 36.6676C56.2653 36.4902 56.5059 36.3906 56.7567 36.3906C57.0076 36.3906 57.2482 36.4902 57.4256 36.6676C57.603 36.845 57.7027 37.0856 57.7027 37.3365V40.146C57.7027 40.3968 57.603 40.6375 57.4256 40.8149C57.2482 40.9922 57.0076 41.0919 56.7567 41.0919Z" fill="#3D6A66"/>
<path d="M56.7567 22.2865C56.5058 22.2865 56.2652 22.1868 56.0878 22.0094C55.9104 21.832 55.8107 21.5914 55.8107 21.3405V13.3946H47.5905C47.3396 13.3946 47.099 13.2949 46.9216 13.1175C46.7442 12.9401 46.6445 12.6995 46.6445 12.4486C46.6445 12.1978 46.7442 11.9571 46.9216 11.7797C47.099 11.6023 47.3396 11.5027 47.5905 11.5027H56.7567C57.0076 11.5027 57.2482 11.6023 57.4256 11.7797C57.603 11.9571 57.7026 12.1978 57.7026 12.4486V21.3405C57.7026 21.5914 57.603 21.832 57.4256 22.0094C57.2482 22.1868 57.0076 22.2865 56.7567 22.2865Z" fill="#3D6A66"/>
<path d="M47.5907 16.3573H22.4096C22.1587 16.3573 21.9181 16.2576 21.7407 16.0802C21.5633 15.9028 21.4636 15.6622 21.4636 15.4113V9.31945C21.4636 9.06857 21.5633 8.82797 21.7407 8.65057C21.9181 8.47317 22.1587 8.37351 22.4096 8.37351H27.6501C27.8372 6.55438 28.6923 4.86927 30.05 3.64411C31.4076 2.41895 33.1714 1.74078 35.0001 1.74078C36.8288 1.74078 38.5926 2.41895 39.9503 3.64411C41.3079 4.86927 42.163 6.55438 42.3501 8.37351H47.5907C47.8415 8.37351 48.0821 8.47317 48.2595 8.65057C48.4369 8.82797 48.5366 9.06857 48.5366 9.31945V15.4113C48.5366 15.6622 48.4369 15.9028 48.2595 16.0802C48.0821 16.2576 47.8415 16.3573 47.5907 16.3573ZM23.3555 14.4654H46.6447V10.2654H41.442C41.1911 10.2654 40.9505 10.1657 40.7731 9.98834C40.5957 9.81094 40.4961 9.57034 40.4961 9.31945V9.12459C40.4961 7.66697 39.917 6.26906 38.8863 5.23837C37.8556 4.20768 36.4577 3.62864 35.0001 3.62864C33.5425 3.62864 32.1446 4.20768 31.1139 5.23837C30.0832 6.26906 29.5042 7.66697 29.5042 9.12459V9.31945C29.5042 9.57034 29.4045 9.81094 29.2271 9.98834C29.0497 10.1657 28.8091 10.2654 28.5582 10.2654H23.3555V14.4654Z" fill="#3D6A66"/>
<path d="M25.8604 31.5559H20.3379C19.8362 31.5559 19.355 31.3565 19.0002 31.0017C18.6454 30.6469 18.446 30.1657 18.446 29.664V24.1415C18.446 23.6398 18.6454 23.1586 19.0002 22.8038C19.355 22.449 19.8362 22.2496 20.3379 22.2496H25.8604C26.3621 22.2496 26.8433 22.449 27.1981 22.8038C27.5529 23.1586 27.7523 23.6398 27.7523 24.1415V29.664C27.7523 30.1657 27.5529 30.6469 27.1981 31.0017C26.8433 31.3565 26.3621 31.5559 25.8604 31.5559ZM20.3379 24.1415V29.664H25.8604V24.1415H20.3379Z" fill="#3D6A66"/>
<path d="M25.8604 46.0165H20.3379C19.8362 46.0165 19.355 45.8171 19.0002 45.4623C18.6454 45.1075 18.446 44.6263 18.446 44.1246V38.6031C18.446 38.1013 18.6454 37.6201 19.0002 37.2653C19.355 36.9105 19.8362 36.7112 20.3379 36.7112H25.8604C26.3621 36.7112 26.8433 36.9105 27.1981 37.2653C27.5529 37.6201 27.7523 38.1013 27.7523 38.6031V44.1246C27.7523 44.6263 27.5529 45.1075 27.1981 45.4623C26.8433 45.8171 26.3621 46.0165 25.8604 46.0165ZM20.3379 38.6031V44.1246H25.8604V38.6031H20.3379Z" fill="#3D6A66"/>
<path d="M25.8604 60.4781H20.3379C19.8362 60.4781 19.355 60.2788 19.0002 59.924C18.6454 59.5692 18.446 59.088 18.446 58.5862V53.0676C18.446 52.5658 18.6454 52.0846 19.0002 51.7298C19.355 51.375 19.8362 51.1757 20.3379 51.1757H25.8604C26.3621 51.1757 26.8433 51.375 27.1981 51.7298C27.5529 52.0846 27.7523 52.5658 27.7523 53.0676V58.59C27.7513 59.0911 27.5515 59.5713 27.1968 59.9253C26.8421 60.2793 26.3615 60.4781 25.8604 60.4781ZM20.3379 53.0676V58.59H25.8604V53.0676H20.3379Z" fill="#3D6A66"/>
<path d="M51.3214 27.1752H32.4025C32.1516 27.1752 31.911 27.0755 31.7336 26.8981C31.5562 26.7207 31.4565 26.4801 31.4565 26.2292C31.4565 25.9783 31.5562 25.7377 31.7336 25.5603C31.911 25.3829 32.1516 25.2833 32.4025 25.2833H51.3214C51.5723 25.2833 51.8129 25.3829 51.9903 25.5603C52.1677 25.7377 52.2673 25.9783 52.2673 26.2292C52.2673 26.4801 52.1677 26.7207 51.9903 26.8981C51.8129 27.0755 51.5723 27.1752 51.3214 27.1752Z" fill="#F27039"/>
<path d="M51.3214 41.6358H32.4025C32.1516 41.6358 31.911 41.5361 31.7336 41.3587C31.5562 41.1813 31.4565 40.9407 31.4565 40.6898C31.4565 40.439 31.5562 40.1984 31.7336 40.021C31.911 39.8436 32.1516 39.7439 32.4025 39.7439H51.3214C51.5723 39.7439 51.8129 39.8436 51.9903 40.021C52.1677 40.1984 52.2673 40.439 52.2673 40.6898C52.2673 40.9407 52.1677 41.1813 51.9903 41.3587C51.8129 41.5361 51.5723 41.6358 51.3214 41.6358Z" fill="#F27039"/>
<path d="M51.3214 56.0946H32.4025C32.1516 56.0946 31.911 55.9949 31.7336 55.8175C31.5562 55.6401 31.4565 55.3995 31.4565 55.1486C31.4565 54.8978 31.5562 54.6572 31.7336 54.4798C31.911 54.3024 32.1516 54.2027 32.4025 54.2027H51.3214C51.5723 54.2027 51.8129 54.3024 51.9903 54.4798C52.1677 54.6572 52.2673 54.8978 52.2673 55.1486C52.2673 55.3995 52.1677 55.6401 51.9903 55.8175C51.8129 55.9949 51.5723 56.0946 51.3214 56.0946Z" fill="#F27039"/>
<path d="M22 27.5L23 28.5L25 25" stroke="#3D6A66"/>
<path d="M22 41.5L23 42.5L25 39" stroke="#3D6A66"/>
<path d="M22 56.5L23 57.5L25 54" stroke="#3D6A66"/>
</symbol><symbol id="electric-motor-2" viewBox="0 0 70 70">
<g clip-path="url(#clip0)">
<path d="M70.0001 46.6332V17.0738L64.7184 8.65576H15.1786V53.3095H16.9229L15.1782 56.8502V61.344H31.2479V56.8504L29.5032 53.3096H50.4033L48.6585 56.8504V61.3442H64.7282V56.8504L62.9822 53.3069H64.6428L70.0001 46.6332ZM29.1972 57.328V59.2934H17.2291V57.328L19.2092 53.3095H27.2171L29.1972 57.328ZM62.6776 59.2934H50.7094V57.328L52.6895 53.3095C54.0297 53.3095 54.0184 53.3089 60.6972 53.3089L62.6775 57.3279V59.2934H62.6776ZM55.2851 51.2561V16.7495H53.2343V51.2581L17.2294 51.2587V10.7065H53.2343V14.6987H55.2851V10.7065H63.584L67.9493 17.664V45.912L63.6595 51.2561H55.2851Z" fill="#3D6A66"/>
<path d="M6.90977 18.5543H0V43.4112H6.90977V49.4268H12.1023V47.376H8.96055V38.2815H6.90977V41.3604H2.05078V20.6051H6.90977V36.2307H8.96055V14.5895H12.1023V12.5387H6.90977V18.5543Z" fill="#3D6A66"/>
<path d="M20.8369 22.6635H49.6263V15.531H20.8369V22.6635ZM22.8877 17.5818H47.5756V20.6127H22.8877V17.5818Z" fill="#3D6A66"/>
<path d="M20.8369 34.5488H49.6263V27.4165H20.8369V34.5488ZM22.8877 29.4673H47.5756V32.4981H22.8877V29.4673Z" fill="#3D6A66"/>
<path d="M20.8369 46.4342H49.6263V39.3018H20.8369V46.4342ZM22.8877 41.3525H47.5756V44.3835H22.8877V41.3525Z" fill="#3D6A66"/>
<path d="M65.8142 42.0663H63.7634V29.5107H65.8142V42.0663ZM65.8142 27.46H63.7634V25.4092H65.8142V27.46ZM65.8142 23.3584H63.7634V21.3076H65.8142V23.3584Z" fill="#3D6A66"/>
</g>

</symbol><symbol id="electric-motor" viewBox="0 0 77 77">
<path d="M68.5781 21.6562H42.1094V19.25H45.7188C46.0378 19.25 46.3439 19.1232 46.5695 18.8976C46.7951 18.672 46.9219 18.366 46.9219 18.0469V8.42188C46.9219 8.10279 46.7951 7.79677 46.5695 7.57114C46.3439 7.34551 46.0378 7.21875 45.7188 7.21875H43.3125V4.8125C43.3125 4.49341 43.1857 4.18739 42.9601 3.96176C42.7345 3.73613 42.4285 3.60938 42.1094 3.60938H37.2969C36.9778 3.60938 36.6718 3.73613 36.4461 3.96176C36.2205 4.18739 36.0938 4.49341 36.0938 4.8125V7.21875H33.6875V4.8125C33.6875 4.49341 33.5607 4.18739 33.3351 3.96176C33.1095 3.73613 32.8035 3.60938 32.4844 3.60938H27.6719C27.3528 3.60938 27.0468 3.73613 26.8211 3.96176C26.5955 4.18739 26.4688 4.49341 26.4688 4.8125V7.21875H24.0625C23.7434 7.21875 23.4374 7.34551 23.2118 7.57114C22.9861 7.79677 22.8594 8.10279 22.8594 8.42188V18.0469C22.8594 18.366 22.9861 18.672 23.2118 18.8976C23.4374 19.1232 23.7434 19.25 24.0625 19.25H27.6719V21.6562H15.6406C14.6834 21.6562 13.7653 22.0365 13.0884 22.7134C12.4115 23.3903 12.0312 24.3084 12.0312 25.2656V33.6875H3.60938C3.29029 33.6875 2.98427 33.8143 2.75864 34.0399C2.53301 34.2655 2.40625 34.5715 2.40625 34.8906V42.1094C2.40625 42.4285 2.53301 42.7345 2.75864 42.9601C2.98427 43.1857 3.29029 43.3125 3.60938 43.3125H12.0312V52.9375C12.0312 53.8948 12.4115 54.8128 13.0884 55.4897C13.7653 56.1666 14.6834 56.5469 15.6406 56.5469H25.2656V58.9531H20.4531C20.134 58.9531 19.828 59.0799 19.6024 59.3055C19.3768 59.5311 19.25 59.8372 19.25 60.1562V64.9688C19.25 65.2878 19.3768 65.5939 19.6024 65.8195C19.828 66.0451 20.134 66.1719 20.4531 66.1719H61.3594C61.6785 66.1719 61.9845 66.0451 62.2101 65.8195C62.4357 65.5939 62.5625 65.2878 62.5625 64.9688V60.1562C62.5625 59.8372 62.4357 59.5311 62.2101 59.3055C61.9845 59.0799 61.6785 58.9531 61.3594 58.9531H56.5469V56.5469H68.5781C70.173 56.545 71.702 55.9106 72.8297 54.7828C73.9574 53.6551 74.5918 52.1261 74.5938 50.5312V27.6719C74.5918 26.077 73.9574 24.548 72.8297 23.4203C71.702 22.2926 70.173 21.6582 68.5781 21.6562ZM60.1562 54.1406H22.8594V24.0625H60.1562V54.1406ZM38.5 6.01562H40.9062V7.21875H38.5V6.01562ZM28.875 6.01562H31.2812V7.21875H28.875V6.01562ZM25.2656 9.625H44.5156V16.8438H25.2656V9.625ZM30.0781 19.25H39.7031V21.6562H30.0781V19.25ZM4.8125 40.9062V36.0938H12.0312V40.9062H4.8125ZM19.25 54.1406H15.6406C15.3215 54.1406 15.0155 54.0139 14.7899 53.7882C14.5643 53.5626 14.4375 53.2566 14.4375 52.9375V25.2656C14.4375 24.9465 14.5643 24.6405 14.7899 24.4149C15.0155 24.1893 15.3215 24.0625 15.6406 24.0625H20.4531V54.1406H19.25ZM60.1562 63.7656H21.6562V61.3594H60.1562V63.7656ZM54.1406 58.9531H27.6719V56.5469H54.1406V58.9531ZM72.1875 50.5312C72.1875 51.4885 71.8072 52.4066 71.1303 53.0835C70.4534 53.7603 69.5354 54.1406 68.5781 54.1406H62.5625V24.0625H68.5781C69.5354 24.0625 70.4534 24.4428 71.1303 25.1197C71.8072 25.7966 72.1875 26.7146 72.1875 27.6719V50.5312Z" fill="#3D6A66"/>
<path d="M64.9688 27.6719H69.7812V30.0781H64.9688V27.6719Z" fill="#3D6A66"/>
<path d="M64.9688 32.4844H69.7812V34.8906H64.9688V32.4844Z" fill="#3D6A66"/>
<path d="M26.4688 26.4688V50.5312C26.4688 50.8503 26.5955 51.1564 26.8211 51.382C27.0468 51.6076 27.3528 51.7344 27.6719 51.7344H55.3438C55.6628 51.7344 55.9689 51.6076 56.1945 51.382C56.4201 51.1564 56.5469 50.8503 56.5469 50.5312V26.4688C56.5469 26.1497 56.4201 25.8436 56.1945 25.618C55.9689 25.3924 55.6628 25.2656 55.3438 25.2656H27.6719C27.3528 25.2656 27.0468 25.3924 26.8211 25.618C26.5955 25.8436 26.4688 26.1497 26.4688 26.4688ZM28.875 34.8906H54.1406V42.1094H28.875V34.8906ZM28.875 44.5156H54.1406V45.7188H28.875V44.5156ZM54.1406 32.4844H28.875V31.2812H54.1406V32.4844ZM28.875 49.3281V48.125H54.1406V49.3281H28.875ZM54.1406 27.6719V28.875H28.875V27.6719H54.1406Z" fill="#3D6A66"/>
</symbol><symbol id="envelope" viewBox="0 0 18 14">
<path d="M16.5 0H1.50001C0.672715 0 0 0.672715 0 1.50001V12C0 12.8273 0.672715 13.5 1.50001 13.5H16.5C17.3273 13.5 18 12.8273 18 12V1.50001C18 0.672715 17.3273 0 16.5 0ZM1.50001 0.749988H16.5C16.5553 0.749988 16.604 0.770133 16.6558 0.781524C15.3572 1.97005 11.0511 5.90938 9.54422 7.26708C9.4263 7.37329 9.23625 7.49999 9.00004 7.49999C8.76382 7.49999 8.57377 7.37329 8.45547 7.26673C6.9487 5.90924 2.64238 1.9697 1.34395 0.781594C1.39591 0.770203 1.44471 0.749988 1.50001 0.749988ZM0.749988 12V1.50001C0.749988 1.42654 0.772137 1.35988 0.791965 1.29273C1.7859 2.20243 4.7905 4.95109 6.73871 6.72272C4.79682 8.39078 1.79146 11.2401 0.789609 12.1955C0.771926 12.1317 0.749988 12.0693 0.749988 12ZM16.5 12.75H1.50001C1.44011 12.75 1.38684 12.7291 1.33091 12.7158C2.36616 11.7289 5.39065 8.86314 7.2984 7.23108C7.5471 7.45668 7.77428 7.66237 7.95336 7.82374C8.26246 8.10281 8.62425 8.25001 9 8.25001C9.37575 8.25001 9.73754 8.10278 10.0463 7.82409C10.2254 7.66266 10.4528 7.45678 10.7016 7.23108C12.6095 8.86296 15.6335 11.7285 16.6691 12.7158C16.6132 12.7291 16.56 12.75 16.5 12.75ZM17.25 12C17.25 12.0693 17.2281 12.1317 17.2104 12.1955C16.2082 11.2396 13.2032 8.3906 11.2613 6.72275C13.2096 4.95113 16.2137 2.20271 17.208 1.29266C17.2279 1.35981 17.25 1.4265 17.25 1.49998V12Z" fill="#9F9F9F"/>
</symbol><symbol id="fan" viewBox="0 0 66 66">
<path d="M60.8438 6.44531C60.8438 7.15732 60.2667 7.73438 59.5547 7.73438C58.8427 7.73438 58.2656 7.15732 58.2656 6.44531C58.2656 5.73331 58.8427 5.15625 59.5547 5.15625C60.2667 5.15625 60.8438 5.73331 60.8438 6.44531Z" fill="#3D6A66"/>
<path d="M60.8438 59.5547C60.8438 60.2667 60.2667 60.8438 59.5547 60.8438C58.8427 60.8438 58.2656 60.2667 58.2656 59.5547C58.2656 58.8427 58.8427 58.2656 59.5547 58.2656C60.2667 58.2656 60.8438 58.8427 60.8438 59.5547Z" fill="#3D6A66"/>
<path d="M33 8.50781C33.7014 8.50781 34.2709 7.94838 34.2891 7.25098C34.2891 7.24091 34.2891 7.22882 34.2891 7.21875C34.2891 6.50725 33.7115 5.92969 33 5.92969C32.2885 5.92969 31.7109 6.50725 31.7109 7.21875V7.25098C31.7291 7.94838 32.2986 8.50781 33 8.50781Z" fill="#3D6A66"/>
<path d="M7.73438 6.44531C7.73438 7.15732 7.15732 7.73438 6.44531 7.73438C5.73331 7.73438 5.15625 7.15732 5.15625 6.44531C5.15625 5.73331 5.73331 5.15625 6.44531 5.15625C7.15732 5.15625 7.73438 5.73331 7.73438 6.44531Z" fill="#3D6A66"/>
<path d="M7.73438 59.5547C7.73438 60.2667 7.15732 60.8438 6.44531 60.8438C5.73331 60.8438 5.15625 60.2667 5.15625 59.5547C5.15625 58.8427 5.73331 58.2656 6.44531 58.2656C7.15732 58.2656 7.73438 58.8427 7.73438 59.5547Z" fill="#3D6A66"/>
<path d="M62.1328 0H3.86719C1.7347 0 0 1.7347 0 3.86719V62.1328C0 64.2653 1.7347 66 3.86719 66H62.1328C64.2653 66 66 64.2653 66 62.1328V3.86719C66 1.7347 64.2653 0 62.1328 0ZM63.4219 62.1328C63.4219 62.8438 62.8438 63.4219 62.1328 63.4219H3.86719C3.15619 63.4219 2.57812 62.8438 2.57812 62.1328V3.86719C2.57812 3.15619 3.15619 2.57812 3.86719 2.57812H62.1328C62.8438 2.57812 63.4219 3.15619 63.4219 3.86719V62.1328Z" fill="#3D6A66"/>
<path d="M39.4453 17.5312C39.4453 13.9773 36.554 11.0859 33 11.0859C29.446 11.0859 26.5547 13.9773 26.5547 17.5312C26.5547 19.3908 27.0915 19.8511 29.6792 27.4757C28.7733 28.0185 28.0185 28.7733 27.4757 29.6792C20.0202 27.1489 19.3984 26.5547 17.5312 26.5547C13.9773 26.5547 11.0859 29.446 11.0859 33C11.0859 36.554 13.9773 39.4453 17.5312 39.4453C19.3908 39.4453 19.8511 38.9085 27.4757 36.3208C28.0185 37.2267 28.7733 37.9815 29.6792 38.5243C27.1489 45.9798 26.5547 46.6016 26.5547 48.4688C26.5547 52.0227 29.446 54.9141 33 54.9141C36.554 54.9141 39.4453 52.0227 39.4453 48.4688C39.4453 46.6092 38.9085 46.1489 36.3208 38.5243C37.2267 37.9815 37.9815 37.2267 38.5243 36.3208C45.9798 38.8511 46.6016 39.4453 48.4688 39.4453C52.0227 39.4453 54.9141 36.554 54.9141 33C54.9141 29.446 52.0227 26.5547 48.4688 26.5547C46.6092 26.5547 46.1489 27.0915 38.5238 29.6792C37.981 28.7733 37.2267 28.0185 36.3208 27.4757C38.8511 20.0202 39.4453 19.3984 39.4453 17.5312ZM36.8672 33C36.8672 35.1854 35.0539 36.9357 32.8711 36.8642C30.7779 36.7957 29.1328 35.0701 29.1328 33C29.1328 30.8549 30.8796 29.1328 33 29.1328C35.1365 29.1328 36.8672 30.8685 36.8672 33ZM17.5312 36.8672C15.3988 36.8672 13.6641 35.1325 13.6641 33C13.6641 30.8675 15.3988 29.1328 17.5312 29.1328C18.6884 29.1328 18.6934 29.3801 26.6166 32.1097C26.5758 32.4033 26.5547 32.7004 26.5547 33C26.5547 33.2996 26.5758 33.5967 26.6166 33.8903C18.6813 36.624 18.6879 36.8672 17.5312 36.8672ZM36.8672 48.4688C36.8672 50.6012 35.1325 52.3359 33 52.3359C30.8675 52.3359 29.1328 50.6012 29.1328 48.4688C29.1328 47.3116 29.3801 47.3066 32.1097 39.3834C32.4033 39.4237 32.7004 39.4453 33 39.4453C33.2996 39.4453 33.5967 39.4237 33.8903 39.3834C36.624 47.3187 36.8672 47.3121 36.8672 48.4688ZM48.4688 29.1328C50.6012 29.1328 52.3359 30.8675 52.3359 33C52.3359 35.1325 50.6012 36.8672 48.4688 36.8672C47.3116 36.8672 47.3066 36.6199 39.3834 33.8903C39.4237 33.5967 39.4453 33.2996 39.4453 33C39.4453 32.7004 39.4237 32.4033 39.3834 32.1097C47.3187 29.376 47.3121 29.1328 48.4688 29.1328ZM33.8903 26.6166C33.5967 26.5763 33.2996 26.5547 33 26.5547C32.7004 26.5547 32.4033 26.5763 32.1097 26.6166C29.376 18.6813 29.1328 18.6879 29.1328 17.5312C29.1328 15.3988 30.8675 13.6641 33 13.6641C35.1325 13.6641 36.8672 15.3988 36.8672 17.5312C36.8672 18.6884 36.6199 18.6934 33.8903 26.6166Z" fill="#3D6A66"/>
<path d="M38.402 6.46903C37.7051 6.31948 37.0203 6.7631 36.8712 7.45899C36.7222 8.15539 37.1653 8.8407 37.8617 8.98975C49.4199 11.4667 57.4922 21.3401 57.4922 33.0001C57.4922 46.505 46.5049 57.4922 33 57.4922C19.4951 57.4922 8.50781 46.505 8.50781 33.0001C8.50781 21.3401 16.5801 11.4667 28.1383 8.98975C28.8342 8.8407 29.2778 8.15539 29.1288 7.45899C28.9797 6.7631 28.2939 6.31948 27.598 6.46853C14.9909 9.17052 5.92969 19.8526 5.92969 33.0001C5.92969 47.9265 18.0736 60.0704 33 60.0704C47.9264 60.0704 60.0703 47.9265 60.0703 33.0001C60.0703 19.7101 50.8631 9.1393 38.402 6.46903Z" fill="#3D6A66"/>
</symbol><symbol id="generator-2" viewBox="0 0 68 68">
<path d="M64.1337 29.4371C63.1695 23.0474 60.1439 17.0454 55.5494 12.4509C53.9764 10.8779 52.2377 9.49033 50.3758 8.30466V2.27646C50.3758 1.02117 49.3546 0 48.0993 0H19.9006C18.6454 0 17.6242 1.02117 17.6242 2.27646V8.30466C15.7626 9.49018 14.0242 10.8777 12.4515 12.4502C7.85657 17.0448 4.83064 23.0472 3.86631 29.4371C1.67577 29.8009 0 31.708 0 34C0 36.292 1.67577 38.1991 3.86631 38.5629C4.8305 44.9527 7.85628 50.9548 12.4509 55.5494C13.6217 56.7202 14.8845 57.7882 16.2212 58.7473H14.0259C12.7706 58.7473 11.7495 59.7685 11.7495 61.0238V65.7235C11.7495 66.9788 12.7706 68 14.0259 68H53.9741C55.2294 68 56.2505 66.9788 56.2505 65.7235V61.0238C56.2505 59.7685 55.2294 58.7473 53.9741 58.7473H51.7787C53.1153 57.7882 54.3783 56.7201 55.5491 55.5494C60.1437 50.9548 63.1695 44.9527 64.1337 38.5629C66.3242 38.1991 68 36.292 68 34C68 31.708 66.3242 29.8009 64.1337 29.4371ZM53.9916 14.0087C58.1603 18.1774 60.9375 23.5939 61.8944 29.3736H56.9687C56.1358 25.2026 54.2014 21.3867 51.3247 18.2331L52.2261 17.3318C52.6562 16.9016 52.6562 16.2041 52.2261 15.7741C51.7959 15.3439 51.0984 15.3439 50.6684 15.7741L49.767 16.6754C46.6133 13.7986 42.7974 11.8642 38.6263 11.0313V6.10561C44.4062 7.06245 49.8228 9.83988 53.9916 14.0087ZM24.1722 25.7298C23.2635 26.808 22.5286 28.037 22.011 29.3736H13.2866C14.0781 25.7993 15.7685 22.5262 18.2368 19.7945L24.1722 25.7298ZM19.7945 18.2366C22.5262 15.7685 25.7993 14.0779 29.3736 13.2864V22.0108C28.037 22.5284 26.808 23.2633 25.7298 24.172L19.7945 18.2366ZM24.1722 42.2701L18.2368 48.2055C15.7685 45.4738 14.0781 42.2007 13.2866 38.6263H22.011C22.5286 39.963 23.2635 41.192 24.1722 42.2701ZM25.7298 43.8278C26.808 44.7365 28.037 45.4714 29.3736 45.989V54.7134C25.7993 53.9219 22.5262 52.2315 19.7945 49.7632L25.7298 43.8278ZM23.3521 34C23.3521 28.1286 28.1286 23.3521 34 23.3521C39.8713 23.3521 44.6479 28.1286 44.6479 34C44.6479 39.8713 39.8713 44.6479 34 44.6479C28.1286 44.6479 23.3521 39.8713 23.3521 34ZM38.6263 22.011V13.2866C42.2007 14.0781 45.4738 15.7685 48.2055 18.2368L42.27 24.1723C41.192 23.2635 39.963 22.5286 38.6263 22.011ZM38.6263 45.989C39.963 45.4714 41.192 44.7365 42.2701 43.8278L48.2057 49.7634C45.4739 52.2315 42.2008 53.9221 38.6265 54.7136V45.989H38.6263ZM43.8278 42.2701C44.7365 41.192 45.4714 39.963 45.989 38.6263H54.7134C53.9219 42.2007 52.2315 45.4738 49.7632 48.2055L43.8278 42.2701ZM43.8278 25.7298L49.7634 19.7943C52.2316 22.5261 53.9221 25.7992 54.7136 29.3735H45.9891C45.4714 28.037 44.7365 26.808 43.8278 25.7298ZM48.0993 2.20302C48.1399 2.20302 48.1728 2.23592 48.1728 2.27646V7.02676C45.1754 5.45072 41.923 4.37344 38.5629 3.86631C38.463 3.26503 38.2474 2.70267 37.9389 2.20302H48.0993ZM31.5767 4.62635C31.5767 3.29014 32.6638 2.20302 34 2.20302C35.3362 2.20302 36.4233 3.29014 36.4233 4.62635V21.3792C35.6382 21.2288 34.8283 21.149 34 21.149C33.1717 21.149 32.3618 21.2288 31.5767 21.3792V4.62635ZM19.8272 2.27646C19.8272 2.23592 19.8601 2.20302 19.9006 2.20302H30.0611C29.7526 2.70267 29.537 3.26503 29.4371 3.86631C26.077 4.37344 22.8245 5.45072 19.8272 7.02676V2.27646ZM14.0092 14.008C18.1777 9.83958 23.5942 7.06245 29.3736 6.10561V11.0313C25.2026 11.8642 21.3867 13.7986 18.2331 16.6753L17.3318 15.7739C16.9016 15.3438 16.2041 15.3438 15.7741 15.7739C15.3439 16.2041 15.3439 16.9016 15.7741 17.3316L16.6754 18.233C13.7987 21.3867 11.8643 25.2026 11.0314 29.3736H6.10561C7.06245 23.5936 9.84017 18.1769 14.0092 14.008ZM2.20302 34C2.20302 32.6638 3.29014 31.5767 4.62635 31.5767H21.3792C21.2288 32.3618 21.149 33.1717 21.149 34C21.149 34.8283 21.2288 35.6382 21.3792 36.4233H4.62635C3.29014 36.4233 2.20302 35.3362 2.20302 34ZM14.0087 53.9916C9.83988 49.8228 7.06245 44.4062 6.10561 38.6263H11.0313C11.8642 42.7974 13.7986 46.6133 16.6753 49.7669L15.7739 50.6682C15.3438 51.0984 15.3438 51.7959 15.7739 52.2259C15.989 52.4409 16.2709 52.5486 16.5528 52.5486C16.8346 52.5486 17.1166 52.4411 17.3316 52.2259L18.233 51.3246C21.3867 54.2014 25.2026 56.1357 29.3736 56.9687V61.8944C23.5939 60.9375 18.1774 58.1603 14.0087 53.9916ZM14.0259 65.797C13.9854 65.797 13.9525 65.7641 13.9525 65.7235V61.0238C13.9525 60.9832 13.9854 60.9503 14.0259 60.9503H19.7836C22.7929 62.5388 26.0607 63.6242 29.4371 64.1337C29.537 64.735 29.7526 65.2973 30.0611 65.797H14.0259ZM36.4233 63.3736C36.4233 64.7099 35.3362 65.797 34 65.797C32.6638 65.797 31.5767 64.7099 31.5767 63.3736V46.6208C32.3618 46.7712 33.1717 46.851 34 46.851C34.8283 46.851 35.6382 46.7712 36.4233 46.6208V63.3736ZM53.9741 60.9503C54.0146 60.9503 54.0475 60.9832 54.0475 61.0238V65.7235C54.0475 65.7641 54.0146 65.797 53.9741 65.797H37.9389C38.2474 65.2973 38.463 64.735 38.5629 64.1337C41.9394 63.6242 45.2071 62.5388 48.2164 60.9503H53.9741ZM53.9913 53.9916C49.8226 58.1603 44.4061 60.9375 38.6263 61.8944V56.9687C42.7974 56.1358 46.6133 54.2014 49.7669 51.3247L50.6682 52.2261C50.8832 52.4411 51.1652 52.5487 51.4471 52.5487C51.7289 52.5487 52.0109 52.4412 52.2259 52.2261C52.6561 51.7959 52.6561 51.0984 52.2259 50.6684L51.3246 49.767C54.2014 46.6133 56.1357 42.7974 56.9687 38.6263H61.8944C60.9375 44.4062 58.1601 49.8228 53.9913 53.9916ZM63.3736 36.4233H46.6208C46.7712 35.6382 46.851 34.8283 46.851 34C46.851 33.1717 46.7712 32.3618 46.6208 31.5767H63.3736C64.7099 31.5767 65.797 32.6638 65.797 34C65.797 35.3362 64.7099 36.4233 63.3736 36.4233Z" fill="#3D6A66"/>
<path d="M34.0001 25.8486C29.5055 25.8486 25.8489 29.5052 25.8489 33.9998C25.8489 38.4944 29.5055 42.151 34.0001 42.151C38.4947 42.151 42.1513 38.4944 42.1513 33.9998C42.1513 29.5052 38.4947 25.8486 34.0001 25.8486ZM34.0001 39.948C30.7202 39.948 28.0519 37.2797 28.0519 33.9998C28.0519 30.72 30.7202 28.0517 34.0001 28.0517C37.2799 28.0517 39.9482 30.72 39.9482 33.9998C39.9482 37.2797 37.2799 39.948 34.0001 39.948Z" fill="#3D6A66"/>
<path d="M34.0001 29.3738C31.4492 29.3738 29.3738 31.4492 29.3738 34.0001C29.3738 36.5511 31.4492 38.6265 34.0001 38.6265C36.5511 38.6265 38.6265 36.5511 38.6265 34.0001C38.6265 31.4492 36.5511 29.3738 34.0001 29.3738ZM34.0001 36.4235C32.6639 36.4235 31.5768 35.3363 31.5768 34.0001C31.5768 32.6639 32.6639 31.5768 34.0001 31.5768C35.3363 31.5768 36.4235 32.6639 36.4235 34.0001C36.4235 35.3363 35.3363 36.4235 34.0001 36.4235Z" fill="#3D6A66"/>
</symbol><symbol id="generator" viewBox="0 0 68 68">
<path d="M52.3936 19.4883H50.1641V48.23H52.3936V19.4883Z" fill="#3D6A66"/>
<path d="M16.7212 19.4883H14.4917V48.23H16.7212V19.4883Z" fill="#3D6A66"/>
<path d="M21.1802 5.11768H18.9507V7.32861H21.1802V5.11768Z" fill="#3D6A66"/>
<path d="M47.9343 5.11768H45.7048V7.32861H47.9343V5.11768Z" fill="#3D6A66"/>
<path d="M42.3605 19.4883H24.5245C23.0467 19.49 21.6301 20.0729 20.5852 21.1091C19.5403 22.1453 18.9525 23.5502 18.9507 25.0155V42.7027C18.9525 44.1681 19.5403 45.573 20.5852 46.6091C21.6301 47.6453 23.0467 48.2282 24.5245 48.23H42.3605C43.8382 48.2282 45.2549 47.6453 46.2998 46.6091C47.3447 45.573 47.9325 44.1681 47.9343 42.7027V25.0155C47.9325 23.5502 47.3447 22.1453 46.2998 21.1091C45.2549 20.0729 43.8382 19.49 42.3605 19.4883ZM45.7048 42.7027C45.7048 43.5823 45.3524 44.4258 44.7253 45.0477C44.0981 45.6697 43.2475 46.0191 42.3605 46.0191H24.5245C23.6375 46.0191 22.7869 45.6697 22.1597 45.0477C21.5325 44.4258 21.1802 43.5823 21.1802 42.7027V25.0155C21.1802 24.136 21.5325 23.2925 22.1597 22.6705C22.7869 22.0486 23.6375 21.6992 24.5245 21.6992H42.3605C43.2475 21.6992 44.0981 22.0486 44.7253 22.6705C45.3524 23.2925 45.7048 24.136 45.7048 25.0155V42.7027Z" fill="#3D6A66"/>
<path d="M67.3757 60.5114L55.9384 54.8294C56.1205 54.7994 56.2919 54.7237 56.4363 54.6095C56.5806 54.4954 56.6932 54.3466 56.7633 54.1772L60.1967 46.0189V49.3353C60.1967 49.6285 60.3142 49.9096 60.5232 50.117C60.7323 50.3243 61.0158 50.4407 61.3115 50.4407H65.7705C66.0661 50.4407 66.3497 50.3243 66.5587 50.117C66.7678 49.9096 66.8852 49.6285 66.8852 49.3353V18.3827C66.8852 18.0895 66.7678 17.8084 66.5587 17.6011C66.3497 17.3937 66.0661 17.2773 65.7705 17.2773H61.3115C61.0158 17.2773 60.7323 17.3937 60.5232 17.6011C60.3142 17.8084 60.1967 18.0895 60.1967 18.3827V21.6991L56.7633 13.5409C56.6813 13.3379 56.5397 13.164 56.3568 13.0418C56.1739 12.9196 55.9582 12.8547 55.7377 12.8555H53.3967L52.3823 3.8903C52.3606 3.63958 52.25 3.40459 52.0702 3.22703L49.8407 1.01614C49.6281 0.812518 49.3447 0.697739 49.0492 0.695557H17.8361C17.5405 0.697739 17.2572 0.812518 17.0446 1.01614L14.8151 3.22703C14.6353 3.40459 14.5247 3.63958 14.503 3.8903L13.4885 12.8555H11.1475C10.927 12.8547 10.7113 12.9196 10.5285 13.0418C10.3456 13.164 10.204 13.3379 10.122 13.5409L6.68852 21.6991V18.3827C6.68852 18.0895 6.57108 17.8084 6.36202 17.6011C6.15296 17.3937 5.86942 17.2773 5.57377 17.2773H1.11475C0.819103 17.2773 0.535561 17.3937 0.326504 17.6011C0.117447 17.8084 0 18.0895 0 18.3827V49.3353C0 49.6285 0.117447 49.9096 0.326504 50.117C0.535561 50.3243 0.819103 50.4407 1.11475 50.4407H5.57377C5.86942 50.4407 6.15296 50.3243 6.36202 50.117C6.57108 49.9096 6.68852 49.6285 6.68852 49.3353V46.0189L10.122 54.1772C10.204 54.3802 10.3456 54.554 10.5285 54.6763C10.7113 54.7985 10.927 54.8634 11.1475 54.8625H11.9948L0.624262 60.5114C0.438341 60.6017 0.28146 60.7416 0.1712 60.9154C0.0609403 61.0891 0.00165909 61.2899 0 61.4952V65.917C0 66.2102 0.117447 66.4914 0.326504 66.6987C0.535561 66.906 0.819103 67.0225 1.11475 67.0225H66.8852C67.1809 67.0225 67.4644 66.906 67.6735 66.6987C67.8826 66.4914 68 66.2102 68 65.917V61.4952C67.9983 61.2899 67.9391 61.0891 67.8288 60.9154C67.7185 60.7416 67.5617 60.6017 67.3757 60.5114ZM61.3115 28.3318C61.4951 28.3308 61.6756 28.2849 61.837 28.1981C61.9984 28.1114 62.1357 27.9864 62.2367 27.8343C62.3558 27.6538 62.4179 27.4421 62.4151 27.2263H62.4262V19.4882H64.6557V48.2298H62.4262V40.4917H62.4151C62.4179 40.276 62.3558 40.0643 62.2367 39.8837C62.1357 39.7316 61.9984 39.6067 61.837 39.5199C61.6756 39.4331 61.4951 39.3872 61.3115 39.3862H56.8525V28.3318H61.3115ZM16.6767 4.52041L18.2931 2.90645H48.5921L50.2085 4.52041L51.1449 12.8555H15.7403L16.6767 4.52041ZM5.57377 39.3862C5.39016 39.3872 5.20963 39.4331 5.04822 39.5199C4.88681 39.6067 4.74951 39.7316 4.64852 39.8837C4.5294 40.0643 4.4673 40.276 4.47016 40.4917H4.45902V48.2298H2.22951V19.4882H4.45902V27.2263H4.47016C4.4673 27.4421 4.5294 27.6538 4.64852 27.8343C4.74951 27.9864 4.88681 28.1114 5.04822 28.1981C5.20963 28.2849 5.39016 28.3308 5.57377 28.3318H10.0328V39.3862H5.57377ZM11.8944 52.6516L7.2459 41.5971H11.1475C11.4432 41.5971 11.7267 41.4807 11.9358 41.2734C12.1448 41.0661 12.2623 40.7849 12.2623 40.4917V27.2263C12.2623 26.9331 12.1448 26.652 11.9358 26.4446C11.7267 26.2373 11.4432 26.1209 11.1475 26.1209H7.2459L11.8944 15.0664H54.9908L59.6393 26.1209H55.7377C55.4421 26.1209 55.1585 26.2373 54.9495 26.4446C54.7404 26.652 54.623 26.9331 54.623 27.2263V40.4917C54.623 40.7849 54.7404 41.0661 54.9495 41.2734C55.1585 41.4807 55.4421 41.5971 55.7377 41.5971H59.6393L54.9908 52.6516H11.8944ZM16.9889 54.8625H51.0111L62.1587 60.3898H5.84131L16.9889 54.8625ZM65.7705 64.8116H2.22951V62.6007H65.7705V64.8116Z" fill="#3D6A66"/>
<path d="M37.9017 30.5429H34.5574V26.1211C34.5577 25.8719 34.473 25.6299 34.3171 25.4344C34.1612 25.2389 33.9432 25.1014 33.6986 25.0442C33.454 24.987 33.1971 25.0134 32.9695 25.1192C32.7419 25.225 32.5571 25.4039 32.445 25.627L27.986 34.4705C27.901 34.639 27.861 34.8263 27.8695 35.0146C27.8781 35.2029 27.9351 35.3858 28.0351 35.5461C28.1351 35.7064 28.2747 35.8386 28.4407 35.9303C28.6067 36.022 28.7936 36.0701 28.9837 36.07H32.3279V41.5972C32.3277 41.8506 32.4153 42.0964 32.576 42.2934C32.7368 42.4904 32.9609 42.6267 33.2108 42.6794C33.2872 42.6947 33.3648 42.7025 33.4427 42.7026C33.6584 42.7027 33.8694 42.6406 34.0503 42.5241C34.2311 42.4075 34.374 42.2415 34.4616 42.046L38.9206 32.0971C38.996 31.9288 39.0278 31.7445 39.0131 31.5609C38.9984 31.3773 38.9377 31.2002 38.8365 31.0458C38.7352 30.8914 38.5967 30.7645 38.4335 30.6767C38.2702 30.5888 38.0874 30.5428 37.9017 30.5429ZM34.5574 36.3884V34.9646C34.5574 34.6714 34.44 34.3902 34.2309 34.1829C34.0219 33.9756 33.7383 33.8592 33.4427 33.8592H30.7874L32.3279 30.8037V31.6483C32.3279 31.9415 32.4454 32.2226 32.6544 32.43C32.8635 32.6373 33.147 32.7537 33.4427 32.7537H36.1861L34.5574 36.3884Z" fill="#3D6A66"/>
</symbol><symbol id="logo" viewBox="0 0 266 48">
<path d="M99.814 13.5352C101.106 13.5352 102.265 13.8329 103.291 14.4282C104.33 15.0109 105.14 15.8216 105.723 16.8602C106.306 17.8989 106.597 19.0706 106.597 20.3752C106.597 21.6799 106.306 22.8516 105.723 23.8902C105.14 24.9289 104.33 25.7459 103.291 26.3412C102.265 26.9239 101.106 27.2152 99.814 27.2152C98.6867 27.2152 97.6607 27.0252 96.736 26.6452C95.824 26.2652 95.064 25.7142 94.456 24.9922L96.014 23.4722C96.9893 24.5236 98.2117 25.0492 99.681 25.0492C100.821 25.0492 101.784 24.7009 102.569 24.0042C103.367 23.3076 103.855 22.3892 104.032 21.2492H98.085V19.2922H103.994C103.779 18.2156 103.278 17.3479 102.493 16.6892C101.72 16.0306 100.783 15.7012 99.681 15.7012C98.2117 15.7012 96.9893 16.2269 96.014 17.2782L94.456 15.7582C95.064 15.0362 95.824 14.4852 96.736 14.1052C97.6607 13.7252 98.6867 13.5352 99.814 13.5352ZM121.169 13.7252V27.0252H118.699V21.3252H111.821V27.0252H109.351V13.7252H111.821V19.2162H118.699V13.7252H121.169ZM134.875 24.9542V27.0252H124.9V13.7252H134.609V15.7962H127.37V19.2542H133.792V21.2872H127.37V24.9542H134.875ZM143.101 13.7252C144.253 13.7252 145.254 13.9152 146.103 14.2952C146.964 14.6752 147.623 15.2199 148.079 15.9292C148.535 16.6386 148.763 17.4809 148.763 18.4562C148.763 19.4189 148.535 20.2612 148.079 20.9832C147.623 21.6926 146.964 22.2372 146.103 22.6172C145.254 22.9972 144.253 23.1872 143.101 23.1872H140.099V27.0252H137.629V13.7252H143.101ZM142.987 21.0972C144.063 21.0972 144.88 20.8692 145.438 20.4132C145.995 19.9572 146.274 19.3049 146.274 18.4562C146.274 17.6076 145.995 16.9552 145.438 16.4992C144.88 16.0432 144.063 15.8152 142.987 15.8152H140.099V21.0972H142.987ZM160.124 15.8152H153.531L153.55 27.0252H151.118V13.7252H160.143L160.124 15.8152ZM166.848 27.2152C165.493 27.2152 164.27 26.9239 163.181 26.3412C162.092 25.7459 161.237 24.9289 160.616 23.8902C159.995 22.8389 159.685 21.6672 159.685 20.3752C159.685 19.0832 159.995 17.9179 160.616 16.8792C161.237 15.8279 162.092 15.0109 163.181 14.4282C164.27 13.8329 165.493 13.5352 166.848 13.5352C168.203 13.5352 169.426 13.8329 170.515 14.4282C171.604 15.0109 172.459 15.8216 173.08 16.8602C173.701 17.8989 174.011 19.0706 174.011 20.3752C174.011 21.6799 173.701 22.8516 173.08 23.8902C172.459 24.9289 171.604 25.7459 170.515 26.3412C169.426 26.9239 168.203 27.2152 166.848 27.2152ZM166.848 25.0492C167.735 25.0492 168.533 24.8529 169.242 24.4602C169.951 24.0549 170.509 23.4976 170.914 22.7882C171.319 22.0662 171.522 21.2619 171.522 20.3752C171.522 19.4886 171.319 18.6906 170.914 17.9812C170.509 17.2592 169.951 16.7019 169.242 16.3092C168.533 15.9039 167.735 15.7012 166.848 15.7012C165.961 15.7012 165.163 15.9039 164.454 16.3092C163.745 16.7019 163.187 17.2592 162.782 17.9812C162.377 18.6906 162.174 19.4886 162.174 20.3752C162.174 21.2619 162.377 22.0662 162.782 22.7882C163.187 23.4976 163.745 24.0549 164.454 24.4602C165.163 24.8529 165.961 25.0492 166.848 25.0492ZM182.86 27.2152C181.517 27.2152 180.301 26.9239 179.212 26.3412C178.135 25.7459 177.287 24.9289 176.666 23.8902C176.058 22.8516 175.754 21.6799 175.754 20.3752C175.754 19.0706 176.064 17.8989 176.685 16.8602C177.306 15.8216 178.154 15.0109 179.231 14.4282C180.32 13.8329 181.536 13.5352 182.879 13.5352C183.968 13.5352 184.963 13.7252 185.862 14.1052C186.761 14.4852 187.521 15.0362 188.142 15.7582L186.546 17.2592C185.583 16.2206 184.399 15.7012 182.993 15.7012C182.081 15.7012 181.264 15.9039 180.542 16.3092C179.82 16.7019 179.256 17.2529 178.851 17.9622C178.446 18.6716 178.243 19.4759 178.243 20.3752C178.243 21.2746 178.446 22.0789 178.851 22.7882C179.256 23.4976 179.82 24.0549 180.542 24.4602C181.264 24.8529 182.081 25.0492 182.993 25.0492C184.399 25.0492 185.583 24.5236 186.546 23.4722L188.142 24.9922C187.521 25.7142 186.755 26.2652 185.843 26.6452C184.944 27.0252 183.949 27.2152 182.86 27.2152ZM199.939 15.8152H195.531V27.0252H193.08V15.8152H188.691V13.7252H199.939V15.8152ZM210.217 23.9472H203.567L202.256 27.0252H199.71L205.695 13.7252H208.127L214.131 27.0252H211.547L210.217 23.9472ZM209.4 22.0092L206.892 16.1952L204.403 22.0092H209.4ZM216.19 13.7252H226.545V15.7582H218.622V19.0262H222.555C224.151 19.0262 225.36 19.3619 226.184 20.0332C227.02 20.6919 227.438 21.6482 227.438 22.9022C227.438 24.2196 226.982 25.2392 226.07 25.9612C225.158 26.6706 223.859 27.0252 222.175 27.0252H216.19V13.7252ZM222.042 25.1252C222.992 25.1252 223.714 24.9416 224.208 24.5742C224.702 24.2069 224.949 23.6749 224.949 22.9782C224.949 21.6102 223.98 20.9262 222.042 20.9262H218.622V25.1252H222.042Z" fill="#DDDDDD"/>
<path d="M98.56 36.4652C99.632 36.4652 100.472 36.7212 101.08 37.2332C101.688 37.7452 101.992 38.4492 101.992 39.3452C101.992 40.2412 101.688 40.9452 101.08 41.4572C100.472 41.9612 99.632 42.2132 98.56 42.2132H96.304V44.8652H95.416V36.4652H98.56ZM98.536 41.4332C99.368 41.4332 100.004 41.2532 100.444 40.8932C100.884 40.5252 101.104 40.0092 101.104 39.3452C101.104 38.6652 100.884 38.1452 100.444 37.7852C100.004 37.4172 99.368 37.2332 98.536 37.2332H96.304V41.4332H98.536ZM109.099 41.9732H103.819C103.867 42.6292 104.119 43.1612 104.575 43.5692C105.031 43.9692 105.607 44.1692 106.303 44.1692C106.695 44.1692 107.055 44.1012 107.383 43.9652C107.711 43.8212 107.995 43.6132 108.235 43.3412L108.715 43.8932C108.435 44.2292 108.083 44.4852 107.659 44.6612C107.243 44.8372 106.783 44.9252 106.279 44.9252C105.631 44.9252 105.055 44.7892 104.551 44.5172C104.055 44.2372 103.667 43.8532 103.387 43.3652C103.107 42.8772 102.967 42.3252 102.967 41.7092C102.967 41.0932 103.099 40.5412 103.363 40.0532C103.635 39.5652 104.003 39.1852 104.467 38.9132C104.939 38.6412 105.467 38.5052 106.051 38.5052C106.635 38.5052 107.159 38.6412 107.623 38.9132C108.087 39.1852 108.451 39.5652 108.715 40.0532C108.979 40.5332 109.111 41.0852 109.111 41.7092L109.099 41.9732ZM106.051 39.2372C105.443 39.2372 104.931 39.4332 104.515 39.8252C104.107 40.2092 103.875 40.7132 103.819 41.3372H108.295C108.239 40.7132 108.003 40.2092 107.587 39.8252C107.179 39.4332 106.667 39.2372 106.051 39.2372ZM118.053 38.5532V44.8652H117.273V39.8732L114.717 44.0972H114.333L111.777 39.8612V44.8652H110.997V38.5532H111.861L114.537 43.1012L117.261 38.5532H118.053ZM123.082 44.9252C122.474 44.9252 121.926 44.7892 121.438 44.5172C120.95 44.2372 120.566 43.8532 120.286 43.3652C120.006 42.8772 119.866 42.3252 119.866 41.7092C119.866 41.0932 120.006 40.5412 120.286 40.0532C120.566 39.5652 120.95 39.1852 121.438 38.9132C121.926 38.6412 122.474 38.5052 123.082 38.5052C123.69 38.5052 124.238 38.6412 124.726 38.9132C125.214 39.1852 125.594 39.5652 125.866 40.0532C126.146 40.5412 126.286 41.0932 126.286 41.7092C126.286 42.3252 126.146 42.8772 125.866 43.3652C125.594 43.8532 125.214 44.2372 124.726 44.5172C124.238 44.7892 123.69 44.9252 123.082 44.9252ZM123.082 44.1692C123.53 44.1692 123.93 44.0692 124.282 43.8692C124.642 43.6612 124.922 43.3692 125.122 42.9932C125.322 42.6172 125.422 42.1892 125.422 41.7092C125.422 41.2292 125.322 40.8012 125.122 40.4252C124.922 40.0492 124.642 39.7612 124.282 39.5612C123.93 39.3532 123.53 39.2492 123.082 39.2492C122.634 39.2492 122.23 39.3532 121.87 39.5612C121.518 39.7612 121.238 40.0492 121.03 40.4252C120.83 40.8012 120.73 41.2292 120.73 41.7092C120.73 42.1892 120.83 42.6172 121.03 42.9932C121.238 43.3692 121.518 43.6612 121.87 43.8692C122.23 44.0692 122.634 44.1692 123.082 44.1692ZM128.107 38.5532H128.959V41.3492H132.931V38.5532H133.783V44.8652H132.931V42.0812H128.959V44.8652H128.107V38.5532ZM140.644 39.3092H138.256V44.8652H137.404V39.3092H135.016V38.5532H140.644V39.3092ZM146.733 38.5052C147.365 38.5052 147.933 38.6452 148.437 38.9252C148.949 39.1972 149.349 39.5772 149.637 40.0652C149.933 40.5532 150.081 41.1012 150.081 41.7092C150.081 42.3172 149.933 42.8692 149.637 43.3652C149.349 43.8532 148.949 44.2372 148.437 44.5172C147.933 44.7972 147.365 44.9372 146.733 44.9372C146.205 44.9372 145.721 44.8572 145.281 44.6972C144.841 44.5292 144.469 44.2892 144.165 43.9772L144.669 43.4732C145.205 43.9772 145.881 44.2292 146.697 44.2292C147.153 44.2292 147.565 44.1332 147.933 43.9412C148.309 43.7492 148.613 43.4812 148.845 43.1372C149.085 42.7932 149.225 42.4092 149.265 41.9852H145.893V41.3372H149.253C149.165 40.7052 148.885 40.1932 148.413 39.8012C147.941 39.4012 147.369 39.2012 146.697 39.2012C145.881 39.2012 145.205 39.4532 144.669 39.9572L144.165 39.4652C144.469 39.1532 144.841 38.9172 145.281 38.7572C145.721 38.5892 146.205 38.5052 146.733 38.5052ZM156.997 38.5532V44.8652H156.145V39.3092H153.121L153.037 40.8692C152.973 42.1812 152.821 43.1892 152.581 43.8932C152.341 44.5972 151.913 44.9492 151.297 44.9492C151.129 44.9492 150.925 44.9172 150.685 44.8532L150.745 44.1212C150.889 44.1532 150.989 44.1692 151.045 44.1692C151.373 44.1692 151.621 44.0172 151.789 43.7132C151.957 43.4092 152.069 43.0332 152.125 42.5852C152.181 42.1372 152.229 41.5452 152.269 40.8092L152.377 38.5532H156.997ZM164.939 41.9732H159.659C159.707 42.6292 159.959 43.1612 160.415 43.5692C160.871 43.9692 161.447 44.1692 162.143 44.1692C162.535 44.1692 162.895 44.1012 163.223 43.9652C163.551 43.8212 163.835 43.6132 164.075 43.3412L164.555 43.8932C164.275 44.2292 163.923 44.4852 163.499 44.6612C163.083 44.8372 162.623 44.9252 162.119 44.9252C161.471 44.9252 160.895 44.7892 160.391 44.5172C159.895 44.2372 159.507 43.8532 159.227 43.3652C158.947 42.8772 158.807 42.3252 158.807 41.7092C158.807 41.0932 158.939 40.5412 159.203 40.0532C159.475 39.5652 159.843 39.1852 160.307 38.9132C160.779 38.6412 161.307 38.5052 161.891 38.5052C162.475 38.5052 162.999 38.6412 163.463 38.9132C163.927 39.1852 164.291 39.5652 164.555 40.0532C164.819 40.5332 164.951 41.0852 164.951 41.7092L164.939 41.9732ZM161.891 39.2372C161.283 39.2372 160.771 39.4332 160.355 39.8252C159.947 40.2092 159.715 40.7132 159.659 41.3372H164.135C164.079 40.7132 163.843 40.2092 163.427 39.8252C163.019 39.4332 162.507 39.2372 161.891 39.2372ZM169.129 42.0572H167.689V44.8652H166.837V38.5532H167.689V41.3252H169.141L171.361 38.5532H172.285L169.801 41.6132L172.465 44.8652H171.457L169.129 42.0572ZM178.121 39.3092H175.733V44.8652H174.881V39.3092H172.493V38.5532H178.121V39.3092ZM182.605 38.5052C183.197 38.5052 183.733 38.6412 184.213 38.9132C184.693 39.1772 185.069 39.5532 185.341 40.0412C185.613 40.5292 185.749 41.0852 185.749 41.7092C185.749 42.3412 185.613 42.9012 185.341 43.3892C185.069 43.8772 184.693 44.2572 184.213 44.5292C183.741 44.7932 183.205 44.9252 182.605 44.9252C182.093 44.9252 181.629 44.8212 181.213 44.6132C180.805 44.3972 180.469 44.0852 180.205 43.6772V47.1932H179.353V38.5532H180.169V39.8012C180.425 39.3852 180.761 39.0652 181.177 38.8412C181.601 38.6172 182.077 38.5052 182.605 38.5052ZM182.545 44.1692C182.985 44.1692 183.385 44.0692 183.745 43.8692C184.105 43.6612 184.385 43.3692 184.585 42.9932C184.793 42.6172 184.897 42.1892 184.897 41.7092C184.897 41.2292 184.793 40.8052 184.585 40.4372C184.385 40.0612 184.105 39.7692 183.745 39.5612C183.385 39.3532 182.985 39.2492 182.545 39.2492C182.097 39.2492 181.693 39.3532 181.333 39.5612C180.981 39.7692 180.701 40.0612 180.493 40.4372C180.293 40.8052 180.193 41.2292 180.193 41.7092C180.193 42.1892 180.293 42.6172 180.493 42.9932C180.701 43.3692 180.981 43.6612 181.333 43.8692C181.693 44.0692 182.097 44.1692 182.545 44.1692ZM190.183 44.9252C189.575 44.9252 189.027 44.7892 188.539 44.5172C188.051 44.2372 187.667 43.8532 187.387 43.3652C187.107 42.8772 186.967 42.3252 186.967 41.7092C186.967 41.0932 187.107 40.5412 187.387 40.0532C187.667 39.5652 188.051 39.1852 188.539 38.9132C189.027 38.6412 189.575 38.5052 190.183 38.5052C190.791 38.5052 191.339 38.6412 191.827 38.9132C192.315 39.1852 192.695 39.5652 192.967 40.0532C193.247 40.5412 193.387 41.0932 193.387 41.7092C193.387 42.3252 193.247 42.8772 192.967 43.3652C192.695 43.8532 192.315 44.2372 191.827 44.5172C191.339 44.7892 190.791 44.9252 190.183 44.9252ZM190.183 44.1692C190.631 44.1692 191.031 44.0692 191.383 43.8692C191.743 43.6612 192.023 43.3692 192.223 42.9932C192.423 42.6172 192.523 42.1892 192.523 41.7092C192.523 41.2292 192.423 40.8012 192.223 40.4252C192.023 40.0492 191.743 39.7612 191.383 39.5612C191.031 39.3532 190.631 39.2492 190.183 39.2492C189.735 39.2492 189.331 39.3532 188.971 39.5612C188.619 39.7612 188.339 40.0492 188.131 40.4252C187.931 40.8012 187.831 41.2292 187.831 41.7092C187.831 42.1892 187.931 42.6172 188.131 42.9932C188.339 43.3692 188.619 43.6612 188.971 43.8692C189.331 44.0692 189.735 44.1692 190.183 44.1692ZM201.329 44.1212V46.3892H200.525V44.8652H194.873V46.3892H194.069V44.1212H194.429C194.853 44.0972 195.141 43.7852 195.293 43.1852C195.445 42.5852 195.549 41.7452 195.605 40.6652L195.689 38.5532H200.345V44.1212H201.329ZM196.385 40.7132C196.345 41.6092 196.269 42.3492 196.157 42.9332C196.045 43.5092 195.845 43.9052 195.557 44.1212H199.493V39.3092H196.457L196.385 40.7132ZM207.009 41.6012C207.865 41.8012 208.293 42.3172 208.293 43.1492C208.293 43.7012 208.089 44.1252 207.681 44.4212C207.273 44.7172 206.665 44.8652 205.857 44.8652H202.989V38.5532H205.773C206.493 38.5532 207.057 38.6932 207.465 38.9732C207.873 39.2532 208.077 39.6532 208.077 40.1732C208.077 40.5172 207.981 40.8132 207.789 41.0612C207.605 41.3012 207.345 41.4812 207.009 41.6012ZM203.817 41.3612H205.713C206.201 41.3612 206.573 41.2692 206.829 41.0852C207.093 40.9012 207.225 40.6332 207.225 40.2812C207.225 39.9292 207.093 39.6652 206.829 39.4892C206.573 39.3132 206.201 39.2252 205.713 39.2252H203.817V41.3612ZM205.821 44.1932C206.365 44.1932 206.773 44.1052 207.045 43.9292C207.317 43.7532 207.453 43.4772 207.453 43.1012C207.453 42.7252 207.329 42.4492 207.081 42.2732C206.833 42.0892 206.441 41.9972 205.905 41.9972H203.817V44.1932H205.821ZM210.29 38.5532H211.142V43.5692L215.354 38.5532H216.11V44.8652H215.258V39.8492L211.058 44.8652H210.29V38.5532ZM223.016 39.3092H219.404V44.8652H218.552V38.5532H223.016V39.3092ZM226.419 38.5052C227.243 38.5052 227.875 38.7132 228.315 39.1292C228.755 39.5372 228.975 40.1452 228.975 40.9532V44.8652H228.159V43.8812C227.967 44.2092 227.683 44.4652 227.307 44.6492C226.939 44.8332 226.499 44.9252 225.987 44.9252C225.283 44.9252 224.723 44.7572 224.307 44.4212C223.891 44.0852 223.683 43.6412 223.683 43.0892C223.683 42.5532 223.875 42.1212 224.259 41.7932C224.651 41.4652 225.271 41.3012 226.119 41.3012H228.123V40.9172C228.123 40.3732 227.971 39.9612 227.667 39.6812C227.363 39.3932 226.919 39.2492 226.335 39.2492C225.935 39.2492 225.551 39.3172 225.183 39.4532C224.815 39.5812 224.499 39.7612 224.235 39.9932L223.851 39.3572C224.171 39.0852 224.555 38.8772 225.003 38.7332C225.451 38.5812 225.923 38.5052 226.419 38.5052ZM226.119 44.2532C226.599 44.2532 227.011 44.1452 227.355 43.9292C227.699 43.7052 227.955 43.3852 228.123 42.9692V41.9372H226.143C225.063 41.9372 224.523 42.3132 224.523 43.0652C224.523 43.4332 224.663 43.7252 224.943 43.9412C225.223 44.1492 225.615 44.2532 226.119 44.2532ZM235.683 39.3092H233.295V44.8652H232.443V39.3092H230.055V38.5532H235.683V39.3092ZM242.142 41.9732H236.862C236.91 42.6292 237.162 43.1612 237.618 43.5692C238.074 43.9692 238.65 44.1692 239.346 44.1692C239.738 44.1692 240.098 44.1012 240.426 43.9652C240.754 43.8212 241.038 43.6132 241.278 43.3412L241.758 43.8932C241.478 44.2292 241.126 44.4852 240.702 44.6612C240.286 44.8372 239.826 44.9252 239.322 44.9252C238.674 44.9252 238.098 44.7892 237.594 44.5172C237.098 44.2372 236.71 43.8532 236.43 43.3652C236.15 42.8772 236.01 42.3252 236.01 41.7092C236.01 41.0932 236.142 40.5412 236.406 40.0532C236.678 39.5652 237.046 39.1852 237.51 38.9132C237.982 38.6412 238.51 38.5052 239.094 38.5052C239.678 38.5052 240.202 38.6412 240.666 38.9132C241.13 39.1852 241.494 39.5652 241.758 40.0532C242.022 40.5332 242.154 41.0852 242.154 41.7092L242.142 41.9732ZM239.094 39.2372C238.486 39.2372 237.974 39.4332 237.558 39.8252C237.15 40.2092 236.918 40.7132 236.862 41.3372H241.338C241.282 40.7132 241.046 40.2092 240.63 39.8252C240.222 39.4332 239.71 39.2372 239.094 39.2372ZM249.071 38.5532V44.8652H248.219V39.3092H245.195L245.111 40.8692C245.047 42.1812 244.895 43.1892 244.655 43.8932C244.415 44.5972 243.987 44.9492 243.371 44.9492C243.203 44.9492 242.999 44.9172 242.759 44.8532L242.819 44.1212C242.963 44.1532 243.063 44.1692 243.119 44.1692C243.447 44.1692 243.695 44.0172 243.863 43.7132C244.031 43.4092 244.143 43.0332 244.199 42.5852C244.255 42.1372 244.303 41.5452 244.343 40.8092L244.451 38.5532H249.071ZM257.013 41.9732H251.733C251.781 42.6292 252.033 43.1612 252.489 43.5692C252.945 43.9692 253.521 44.1692 254.217 44.1692C254.609 44.1692 254.969 44.1012 255.297 43.9652C255.625 43.8212 255.909 43.6132 256.149 43.3412L256.629 43.8932C256.349 44.2292 255.997 44.4852 255.573 44.6612C255.157 44.8372 254.697 44.9252 254.193 44.9252C253.545 44.9252 252.969 44.7892 252.465 44.5172C251.969 44.2372 251.581 43.8532 251.301 43.3652C251.021 42.8772 250.881 42.3252 250.881 41.7092C250.881 41.0932 251.013 40.5412 251.277 40.0532C251.549 39.5652 251.917 39.1852 252.381 38.9132C252.853 38.6412 253.381 38.5052 253.965 38.5052C254.549 38.5052 255.073 38.6412 255.537 38.9132C256.001 39.1852 256.365 39.5652 256.629 40.0532C256.893 40.5332 257.025 41.0852 257.025 41.7092L257.013 41.9732ZM253.965 39.2372C253.357 39.2372 252.845 39.4332 252.429 39.8252C252.021 40.2092 251.789 40.7132 251.733 41.3372H256.209C256.153 40.7132 255.917 40.2092 255.501 39.8252C255.093 39.4332 254.581 39.2372 253.965 39.2372ZM258.911 38.5532H259.763V43.5692L263.975 38.5532H264.731V44.8652H263.879V39.8492L259.679 44.8652H258.911V38.5532ZM261.779 37.6412C261.235 37.6412 260.803 37.5052 260.483 37.2332C260.163 36.9612 259.999 36.5772 259.991 36.0812H260.603C260.611 36.3932 260.723 36.6452 260.939 36.8372C261.155 37.0212 261.435 37.1132 261.779 37.1132C262.123 37.1132 262.403 37.0212 262.619 36.8372C262.843 36.6452 262.959 36.3932 262.967 36.0812H263.579C263.571 36.5772 263.403 36.9612 263.075 37.2332C262.755 37.5052 262.323 37.6412 261.779 37.6412Z" fill="#DDDDDD"/>
<path fill-rule="evenodd" clip-rule="evenodd" d="M36.9941 0.0861221C35.7849 0.320819 34.6547 1.22198 34.1238 2.37462C33.5922 3.52907 33.7468 5.07354 34.5025 6.15431C34.8881 6.70596 35.8069 7.48417 36.1017 7.50877C36.1577 7.51341 35.9956 7.53857 35.7416 7.56462C35.3923 7.60043 35.2134 7.65564 35.0084 7.79086C34.607 8.05561 34.4874 8.24817 34.4429 8.70123L34.4041 9.09663L25.3749 9.12793C18.6263 9.15134 16.3029 9.17795 16.1763 9.23322C15.922 9.34428 15.6733 9.61316 15.5359 9.92523C15.4163 10.1971 15.4133 10.5854 15.4147 25.5017C15.4161 40.4675 15.4188 40.8052 15.5399 41.0682C15.6953 41.4057 15.8341 41.5628 16.1275 41.7333L16.359 41.8679L33.9609 41.869C43.6419 41.8697 52.9726 41.8699 54.6958 41.8696L57.8288 41.869L57.8126 25.5141L57.7964 9.15923L49.5545 9.14333L41.3125 9.12743L41.311 8.92422C41.3049 8.11251 40.7305 7.56925 39.8736 7.56481L39.495 7.56286L39.8464 7.38019C40.1623 7.21605 40.6362 6.85477 40.8241 6.63497C40.863 6.58946 40.9526 6.49105 41.0233 6.41624C41.3285 6.09327 41.7436 5.21696 41.8262 4.72134C41.9067 4.23867 41.9076 3.6914 41.829 3.22338C41.7691 2.86761 41.4715 2.05353 41.3785 1.99124C41.3528 1.97403 41.2945 1.88951 41.249 1.80343C41.1601 1.63541 41.1234 1.59265 40.7377 1.20871C40.0828 0.556643 39.4631 0.233426 38.5803 0.0834302C37.9211 -0.0285656 37.5819 -0.0279396 36.9941 0.0861221ZM38.9516 1.73401C39.5602 2.02962 39.8513 2.32735 40.1594 2.96903C40.3499 3.36606 40.3585 3.41764 40.3355 4.01919C40.3016 4.90576 40.1396 5.2132 39.3136 5.95817C39.2569 6.00932 39.0255 6.12701 38.7995 6.21973C38.4596 6.35908 38.2918 6.38825 37.8294 6.38832C37.3185 6.38832 37.2297 6.36897 36.7968 6.16345C36.2925 5.92393 35.8549 5.54612 35.6901 5.20801C35.6348 5.09445 35.5648 4.98652 35.5344 4.9683C35.4278 4.90407 35.3184 4.10658 35.3562 3.66799C35.4218 2.9053 35.9353 2.16121 36.6569 1.78328C37.1 1.55127 37.4056 1.49155 38.0198 1.51715C38.4571 1.53537 38.6214 1.57362 38.9516 1.73401ZM61.9254 9.04967L58.7282 9.06651L58.7131 12.3995C58.7048 14.2327 58.6996 15.9438 58.7016 16.202C58.7036 16.4602 58.7112 22.3564 58.7185 29.3046L58.7318 41.9377L62.7626 41.9177L66.7934 41.8976L67.3076 41.7231C68.3484 41.3698 68.8711 41.0675 69.5013 40.454C69.8956 40.0701 70.4244 39.3495 70.4244 39.196C70.4244 39.1512 70.4507 39.1145 70.483 39.1145C70.5152 39.1145 70.6041 38.9385 70.6805 38.7233C71.0122 37.7893 70.9979 38.3804 71 25.5298C71.0011 17.8481 70.9788 13.4032 70.9377 13.1567C70.9025 12.9451 70.8306 12.6916 70.7779 12.5933C70.7253 12.495 70.6821 12.3764 70.6818 12.3297C70.6813 12.2115 70.3942 11.6654 70.1224 11.2656C69.8926 10.9276 69.1178 10.1296 69.0193 10.1296C68.9901 10.1296 68.9157 10.0752 68.854 10.0088C68.7923 9.94239 68.6505 9.84297 68.5388 9.78794C68.4272 9.73292 68.2924 9.66249 68.2394 9.63144C67.9615 9.46873 67.5004 9.30259 67.1069 9.22333C66.5073 9.10257 65.6254 8.9994 65.3492 9.01775C65.2245 9.02607 63.6838 9.04041 61.9254 9.04967ZM11.5259 12.4191C11.2448 12.5615 11.0395 12.7623 10.9382 12.9939C10.8633 13.1653 10.8492 15.1493 10.8498 25.4886C10.8503 33.8807 10.8719 37.8374 10.9177 37.9619C10.9547 38.0621 11.1211 38.2426 11.2875 38.3629C11.454 38.4832 11.6107 38.6099 11.6359 38.6446C11.6635 38.6826 12.244 38.7152 13.0979 38.7266L14.5142 38.7457V25.5332V12.3207L13.1164 12.321C11.9758 12.3213 11.6832 12.3394 11.5259 12.4191ZM53.3943 13.8547V14.3239H37.1032H20.8121V13.8388V13.3536L37.1032 13.3695L53.3943 13.3854V13.8547ZM53.381 16.7498L53.3999 17.2036H37.106H20.8121V16.7759C20.8121 16.5406 20.8306 16.3301 20.8532 16.3081C20.8758 16.286 28.1996 16.2743 37.1282 16.282L53.3621 16.2959L53.381 16.7498ZM53.3392 19.6451C53.3266 19.8689 53.3025 20.0661 53.2857 20.0834C53.2688 20.1006 45.9554 20.1206 37.0336 20.1279L20.8121 20.1411V19.6739V19.2067L37.0871 19.2225L53.3621 19.2382L53.3392 19.6451ZM53.3943 22.5872V23.0883H37.1032H20.8121V22.591V22.0938L37.1032 22.09L53.3943 22.0861V22.5872ZM7.52541 22.5268C7.44585 22.558 7.37722 22.6407 7.37278 22.7107C7.36835 22.7806 7.35749 22.866 7.34868 22.9005C7.33988 22.9349 7.32902 22.9912 7.32458 23.0257C7.31931 23.0666 6.08408 23.0886 3.76593 23.0892C1.64276 23.0898 0.176561 23.1141 0.118916 23.1495C0.03685 23.2 0.019756 23.5321 0.00401116 25.3835C-0.00852043 26.8565 0.00818782 27.6116 0.0558722 27.7238L0.126242 27.8893L1.19323 27.9303C1.78003 27.9528 3.41138 27.9713 4.81846 27.9713C6.9933 27.9713 7.37156 27.9845 7.342 28.0595C7.32291 28.1081 7.35344 28.2348 7.40993 28.3413L7.51262 28.5347H8.69046H9.86831L9.90982 28.0557C9.96355 27.4366 9.96316 23.8654 9.90924 23.0726L9.86773 22.4623L8.76887 22.4662C8.16452 22.4684 7.60497 22.4957 7.52541 22.5268ZM53.3943 25.4963V25.968H37.1032H20.8121V25.5047V25.0414L37.1032 25.033L53.3943 25.0246V25.4963ZM39.2079 27.9711L53.3943 27.9713V28.4095V28.8477L41.682 28.8489C35.2404 28.8496 27.9166 28.856 25.407 28.8631L20.8442 28.876L20.8254 28.4255L20.8066 27.975L21.6287 27.9507C22.0809 27.9374 23.0292 27.9365 23.7362 27.9487C24.4431 27.9609 31.4053 27.971 39.2079 27.9711ZM53.3943 31.3205V31.79L46.7268 31.7936C43.0597 31.7955 35.7288 31.8026 30.4357 31.8092L20.8121 31.8213V31.3362V30.851H37.1032H53.3943V31.3205ZM53.3943 34.2321V34.7323H37.1032H20.8121V34.2321V33.7318H37.1032L53.3943 33.7318V34.2321ZM53.3943 37.1425V37.6121H37.1032H20.8121V37.1425V36.673H37.1032H53.3943V37.1425ZM20.8759 44.0445L20.8755 45.3435L20.3458 45.3475C19.8917 45.351 19.7793 45.3744 19.559 45.5116C18.9909 45.8651 18.8738 46.1625 18.8979 47.1902L18.9163 47.9728L19.5911 47.9827C21.6105 48.0125 58.4889 48.0008 58.5395 47.9703C58.6154 47.9246 58.6194 46.3957 58.5437 46.3501C58.513 46.3316 58.47 46.2295 58.4481 46.1232C58.4115 45.945 58.0944 45.5626 57.9831 45.5626C57.9567 45.5626 57.8837 45.5173 57.8209 45.462C57.7429 45.3931 57.533 45.3508 57.1572 45.3279L56.6075 45.2945V44.02V42.7455H38.7419H20.8764L20.8759 44.0445Z" fill="white"/>
</symbol><symbol id="open" viewBox="0 0 70 70">
<path d="M52.8226 56.9109C52.6176 56.9112 52.418 56.8448 52.2539 56.7218C52.0899 56.5988 51.9702 56.4258 51.913 56.2289C51.8558 56.032 51.8642 55.8218 51.9368 55.63C52.0094 55.4383 52.1423 55.2753 52.3156 55.1656L54.689 53.6625C54.7939 53.5949 54.9111 53.5486 55.034 53.5265C55.1569 53.5044 55.2829 53.5068 55.4048 53.5336C55.5267 53.5604 55.6421 53.6111 55.7444 53.6827C55.8466 53.7543 55.9337 53.8455 56.0006 53.9509C56.0674 54.0563 56.1127 54.174 56.1339 54.297C56.1551 54.42 56.1517 54.546 56.124 54.6677C56.0962 54.7894 56.0447 54.9045 55.9722 55.0062C55.8998 55.1079 55.808 55.1942 55.7021 55.2602L53.3277 56.7643C53.1766 56.8599 53.0015 56.9108 52.8226 56.9109Z" fill="#3D6A66"/>
<path d="M35.1145 66.4054C33.3998 66.4055 31.713 65.971 30.2117 65.1426L20.5167 59.8311C19.4078 59.2257 18.1718 58.8903 16.9091 58.8521C15.6463 58.814 14.3923 59.0742 13.249 59.6117L11.464 60.463C10.8198 60.7664 10.086 60.8201 9.40457 60.6137C8.72311 60.4074 8.1424 59.9556 7.77476 59.3458C5.03962 55 3.10459 50.1996 2.06125 45.1718C1.92863 44.5122 2.03173 43.8269 2.35258 43.2355C2.67342 42.6442 3.19166 42.1841 3.81693 41.9357L12.9926 38.3231C15.831 37.1655 18.9188 36.7548 21.9611 37.1303C23.6688 37.2878 25.3258 37.7947 26.8294 38.6194C28.333 39.4441 29.651 40.569 30.7017 41.9244C30.7963 42.0294 34.1827 45.8027 42.1958 45.203L43.1749 45.1727C44.3786 45.1385 45.5523 45.5513 46.4695 46.3314C47.3868 47.1116 47.9826 48.2038 48.1421 49.3973C48.1619 49.5241 48.1742 49.6726 48.1856 49.8211V50.0434C48.1934 51.3299 47.6909 52.5671 46.7882 53.4838C45.8855 54.4005 44.6563 54.922 43.3698 54.934C38.5161 55.0144 29.7765 54.8441 25.8367 52.7583C25.6204 52.6381 25.4599 52.438 25.3895 52.2008C25.319 51.9637 25.3443 51.7084 25.4599 51.4896C25.5754 51.2709 25.7721 51.1061 26.0076 51.0306C26.2432 50.9552 26.499 50.975 26.7202 51.0858C29.3244 52.4612 35.3727 53.1735 43.3367 53.0383C44.126 53.0315 44.8806 52.7121 45.4348 52.15C45.9891 51.5879 46.298 50.829 46.2937 50.0396V49.8883C46.2937 49.8618 46.2833 49.7644 46.2681 49.6669C46.1738 48.9339 45.8109 48.2619 45.2496 47.781C44.6883 47.3001 43.9686 47.0445 43.2298 47.0637L42.2952 47.0921C33.2898 47.7608 29.3821 43.2894 29.2203 43.0983C28.3225 41.9308 27.1907 40.9637 25.8975 40.2588C24.6043 39.554 23.1782 39.127 21.7104 39.0052C18.9881 38.6734 16.2262 39.0443 13.6879 40.0826L4.5122 43.6971C4.29871 43.7838 4.12256 43.9428 4.01463 44.1464C3.9067 44.35 3.87388 44.5851 3.92193 44.8104C4.92101 49.616 6.77209 54.2039 9.3876 58.3573C9.51219 58.568 9.71042 58.725 9.944 58.798C10.1776 58.871 10.4299 58.8549 10.6523 58.7527L12.4392 57.9014C13.8531 57.2373 15.4036 56.9159 16.9649 56.963C18.5263 57.0102 20.0545 57.4247 21.4257 58.1729L31.1217 63.4881C32.298 64.1375 33.6149 64.4901 34.9584 64.5155C36.3018 64.5409 37.6311 64.2383 38.8311 63.6338C38.9422 63.5769 39.0634 63.5424 39.1878 63.5325C39.3122 63.5226 39.4373 63.5375 39.5559 63.5761C39.6746 63.6148 39.7844 63.6766 39.8791 63.7579C39.9738 63.8391 40.0514 63.9384 40.1076 64.0498C40.1637 64.1613 40.1973 64.2827 40.2063 64.4072C40.2153 64.5316 40.1996 64.6567 40.1601 64.775C40.1206 64.8934 40.058 65.0028 39.9761 65.0969C39.8941 65.191 39.7943 65.2679 39.6825 65.3233C38.2653 66.036 36.7008 66.4066 35.1145 66.4054Z" fill="#3D6A66"/>
<path d="M44.8861 61.9245C44.6813 61.9244 44.4821 61.8579 44.3183 61.7349C44.1546 61.612 44.0352 61.4392 43.978 61.2426C43.9209 61.0459 43.9291 60.8361 44.0014 60.6445C44.0737 60.4529 44.2062 60.29 44.379 60.1802L46.7061 58.7045C46.811 58.6344 46.9288 58.586 47.0527 58.5621C47.1766 58.5383 47.304 58.5394 47.4274 58.5655C47.5509 58.5916 47.6678 58.6422 47.7714 58.7142C47.875 58.7862 47.9632 58.8782 48.0307 58.9848C48.0982 59.0913 48.1437 59.2103 48.1646 59.3348C48.1854 59.4592 48.1811 59.5866 48.152 59.7093C48.1229 59.8321 48.0695 59.9478 47.995 60.0496C47.9205 60.1514 47.8264 60.2373 47.7182 60.3022L45.3912 61.7779C45.2402 61.8738 45.065 61.9247 44.8861 61.9245Z" fill="#3D6A66"/>
<path d="M60.8063 51.8501C60.6015 51.8501 60.4023 51.7836 60.2386 51.6606C60.0749 51.5376 59.9554 51.3649 59.8983 51.1682C59.8411 50.9716 59.8493 50.7617 59.9216 50.5702C59.9939 50.3786 60.1265 50.2156 60.2993 50.1058L64.7821 47.268C65.4123 46.8773 65.8639 46.2549 66.04 45.5346C66.2161 44.8144 66.1025 44.0538 65.7236 43.4164C65.3448 42.7791 64.7309 42.3158 64.0141 42.1263C63.2973 41.9368 62.5347 42.0361 61.8904 42.403L47.6633 50.3489L47.5687 50.3972C47.4575 50.4538 47.3361 50.4879 47.2117 50.4975C47.0872 50.507 46.9621 50.4919 46.8435 50.4528C46.7249 50.4138 46.6152 50.3516 46.5208 50.27C46.4263 50.1884 46.3489 50.0888 46.2931 49.9772C46.2373 49.8655 46.2042 49.7439 46.1956 49.6193C46.187 49.4948 46.2032 49.3698 46.2431 49.2515C46.2831 49.1332 46.3461 49.024 46.4285 48.9302C46.5108 48.8364 46.611 48.7598 46.7231 48.7049L60.9681 40.7514C62.0427 40.146 63.3115 39.985 64.5032 40.303C65.6949 40.6209 66.7149 41.3925 67.3451 42.4527C67.9753 43.513 68.1657 44.7777 67.8755 45.9764C67.5853 47.1752 66.8377 48.2129 65.7924 48.8676L61.3114 51.7054C61.1604 51.801 60.9851 51.8512 60.8063 51.8501Z" fill="#3D6A66"/>
<path d="M45.6106 40.9121H41.4163C41.0555 40.9122 40.7073 40.7794 40.4384 40.5389C40.1694 40.2984 39.9986 39.9672 39.9586 39.6086L39.7618 37.8605C38.1254 37.4719 36.5611 36.8256 35.1276 35.9459L33.7522 37.0413C33.4707 37.2669 33.1158 37.3805 32.7556 37.3605C32.3955 37.3404 32.0554 37.188 31.8007 36.9325L28.8352 33.9594C28.5801 33.7045 28.428 33.3646 28.4077 33.0046C28.3875 32.6446 28.5006 32.2898 28.7255 32.0079L29.8218 30.6335C28.941 29.1997 28.2935 27.6352 27.9034 25.9983L26.1544 25.8006C25.7959 25.7606 25.4648 25.5897 25.2245 25.3207C24.9841 25.0518 24.8514 24.7036 24.8518 24.3429V20.1543C24.8515 19.7934 24.9843 19.4451 25.2248 19.1762C25.4654 18.9072 25.7967 18.7364 26.1553 18.6966L27.9034 18.4998C28.2936 16.863 28.9411 15.2985 29.8218 13.8647L28.7255 12.4864C28.5006 12.2046 28.3875 11.8497 28.4077 11.4897C28.428 11.1297 28.5801 10.7898 28.8352 10.5349L31.8007 7.56941C32.0555 7.31368 32.3957 7.16111 32.7561 7.14103C33.1165 7.12095 33.4716 7.23478 33.7532 7.46062L35.1276 8.55603C36.561 7.67454 38.1257 7.02697 39.7628 6.63765L39.9595 4.8886C40.0019 4.53199 40.1736 4.20331 40.4421 3.96482C40.7105 3.72633 41.0572 3.59458 41.4163 3.59454H45.6106C45.9712 3.59459 46.3191 3.72742 46.588 3.96768C46.8569 4.20795 47.0278 4.53881 47.0683 4.89711L47.2651 6.64616C48.9022 7.03548 50.4668 7.68305 51.9002 8.56454L53.2747 7.46346C53.5563 7.238 53.9112 7.1245 54.2714 7.14475C54.6316 7.16501 54.9716 7.31758 55.2261 7.57319L58.1917 10.5387C58.4467 10.7936 58.5989 11.1335 58.6191 11.4935C58.6394 11.8535 58.5263 12.2084 58.3014 12.4902L57.2051 13.8647C58.0858 15.2985 58.7333 16.863 59.1234 18.4998L60.8725 18.6966C61.231 18.7366 61.5621 18.9075 61.8024 19.1764C62.0427 19.4454 62.1754 19.7936 62.1751 20.1543V24.3477C62.1754 24.7085 62.0426 25.0568 61.802 25.3258C61.5615 25.5947 61.2302 25.7655 60.8715 25.8054L59.1234 26.0031C58.7334 27.6399 58.0859 29.2045 57.2051 30.6382L58.3014 32.0126C58.5263 32.2945 58.6394 32.6493 58.6191 33.0093C58.5989 33.3693 58.4467 33.7093 58.1917 33.9641L55.2261 36.9297C54.971 37.1847 54.6308 37.3367 54.2707 37.3568C53.9105 37.3768 53.5556 37.2635 53.2737 37.0385L51.8992 35.9459C50.4656 36.8267 48.901 37.4739 47.2641 37.8633L47.0674 39.6124C47.0265 39.9701 46.8554 40.3003 46.5867 40.54C46.3181 40.7796 45.9706 40.9121 45.6106 40.9121ZM41.7965 39.0202H45.2303L45.4611 36.9732C45.4836 36.7736 45.5691 36.5863 45.7052 36.4385C45.8412 36.2907 46.0208 36.1901 46.2179 36.1512C48.0822 35.7929 49.8542 35.0594 51.4263 33.9954C51.5932 33.8826 51.7918 33.8262 51.9931 33.8342C52.1944 33.8422 52.3878 33.9142 52.5453 34.0398L54.1534 35.3225L56.5807 32.8943L55.298 31.2862C55.1724 31.1287 55.1004 30.9352 55.0924 30.7339C55.0844 30.5326 55.1409 30.3341 55.2536 30.1671C56.3179 28.5951 57.0513 26.8231 57.4094 24.9587C57.4483 24.7617 57.5489 24.5821 57.6967 24.446C57.8445 24.31 58.0318 24.2245 58.2314 24.202L60.2794 23.9712V20.5374L58.2314 20.3056C58.0318 20.2831 57.8445 20.1976 57.6967 20.0616C57.5489 19.9255 57.4483 19.7459 57.4094 19.5489C57.0514 17.6848 56.3179 15.9131 55.2536 14.3414C55.1409 14.1745 55.0844 13.9759 55.0924 13.7746C55.1004 13.5733 55.1724 13.3799 55.298 13.2224L56.5807 11.6143L54.1572 9.17562L52.5491 10.4583C52.3916 10.5839 52.1982 10.656 51.9969 10.664C51.7956 10.672 51.597 10.6155 51.4301 10.5028C49.858 9.43882 48.0859 8.70568 46.2217 8.34792C46.0245 8.30896 45.8448 8.20818 45.7087 8.0602C45.5726 7.91222 45.4872 7.72474 45.4649 7.52495L45.2303 5.48644H41.7965L41.5657 7.53346C41.5434 7.73325 41.458 7.92073 41.3219 8.06871C41.1859 8.21669 41.0062 8.31747 40.809 8.35643C38.9447 8.71419 37.1727 9.44733 35.6006 10.5113C35.4336 10.624 35.2351 10.6805 35.0338 10.6725C34.8325 10.6645 34.639 10.5924 34.4815 10.4668L32.8696 9.17562L30.4423 11.6039L31.7251 13.212C31.8506 13.3695 31.9227 13.5629 31.9307 13.7642C31.9387 13.9655 31.8822 14.1641 31.7695 14.331C30.7051 15.9026 29.9717 17.6744 29.6137 19.5385C29.5748 19.7355 29.4741 19.9151 29.3264 20.0512C29.1786 20.1872 28.9913 20.2727 28.7917 20.2952L26.7437 20.527V23.9608L28.7917 24.1916C28.9913 24.2141 29.1786 24.2996 29.3264 24.4356C29.4741 24.5717 29.5748 24.7512 29.6137 24.9483C29.9717 26.8127 30.7052 28.5847 31.7695 30.1567C31.8822 30.3237 31.9387 30.5222 31.9307 30.7235C31.9227 30.9248 31.8506 31.1183 31.7251 31.2758L30.4423 32.8839L32.8696 35.3121L34.4778 34.0294C34.6352 33.9038 34.8287 33.8318 35.03 33.8238C35.2313 33.8158 35.4299 33.8722 35.5968 33.9849C37.1689 35.049 38.9409 35.7825 40.8052 36.1408C41.0023 36.1797 41.1818 36.2803 41.3179 36.4281C41.454 36.5759 41.5394 36.7632 41.5619 36.9628L41.7965 39.0202Z" fill="#3D6A66"/>
<path d="M43.5135 33.3436C41.3195 33.3436 39.1748 32.693 37.3505 31.4741C35.5263 30.2552 34.1044 28.5227 33.2648 26.4957C32.4252 24.4687 32.2055 22.2382 32.6336 20.0864C33.0616 17.9345 34.1181 15.9579 35.6695 14.4065C37.2209 12.8551 39.1975 11.7986 41.3494 11.3706C43.5012 10.9425 45.7317 11.1622 47.7587 12.0018C49.7857 12.8414 51.5182 14.2633 52.7371 16.0875C53.956 17.9118 54.6066 20.0565 54.6066 22.2505C54.6031 25.1915 53.4333 28.0111 51.3537 30.0907C49.2741 32.1703 46.4545 33.3401 43.5135 33.3436ZM43.5135 13.054C41.6937 13.054 39.9147 13.5937 38.4015 14.6048C36.8884 15.6159 35.709 17.053 35.0126 18.7343C34.3162 20.4157 34.1341 22.2658 34.4892 24.0507C34.8443 25.8356 35.7207 27.4751 37.0076 28.7618C38.2945 30.0486 39.9341 30.9249 41.719 31.2798C43.504 31.6347 45.3541 31.4524 47.0353 30.7558C48.7166 30.0592 50.1536 28.8797 51.1645 27.3665C52.1755 25.8532 52.7149 24.0742 52.7148 22.2543C52.7117 19.815 51.7413 17.4765 50.0164 15.7517C48.2915 14.027 45.9528 13.0568 43.5135 13.054Z" fill="#F27039"/>
</symbol><symbol id="phone" viewBox="0 0 18 18">
<path d="M3.56589 18C3.3414 18 3.20633 17.9856 3.17169 17.9814C3.11267 17.9746 3.05535 17.9494 3.00922 17.9054C3.00725 17.9035 3.00527 17.9015 3.00339 17.8997L1.63404 16.5304C1.11587 16.0123 1.11587 15.1692 1.63404 14.6512L4.23249 12.0527C4.48353 11.8017 4.81711 11.6635 5.17206 11.6635C5.52702 11.6635 5.86069 11.8018 6.11163 12.0527L7.39505 13.3361C7.79368 13.3069 9.30629 13.0794 11.0558 11.33C12.8177 9.56815 12.9995 8.10702 13.0153 7.72393L11.7281 6.43637C11.2099 5.9183 11.2099 5.0753 11.7281 4.55714L14.3265 1.95868C14.8446 1.44051 15.6877 1.44051 16.2058 1.95868L17.575 3.32794C17.5769 3.32973 17.5786 3.33151 17.5803 3.3333C17.5804 3.3334 17.5803 3.3334 17.5807 3.33368C17.6239 3.37895 17.6491 3.43505 17.6564 3.49294C17.6864 3.71489 18.161 7.86258 12.8748 13.1487C8.42724 17.5963 4.75217 18 3.56589 18ZM7.40173 13.9022L3.8863 17.4176C5.23739 17.325 8.55892 16.6659 12.4754 12.7493C16.3935 8.83114 17.0221 5.53812 17.1005 4.20341L13.5804 7.72355C13.5653 8.1955 13.365 9.81947 11.4553 11.7292C9.53709 13.6475 7.87265 13.8773 7.40173 13.9022ZM5.17216 12.2285C4.97647 12.2285 4.78078 12.303 4.63187 12.452L2.03342 15.0505C1.88912 15.1947 1.80968 15.3867 1.80968 15.5907C1.80968 15.7948 1.88912 15.9867 2.03342 16.1311L3.20388 17.3016L6.88291 13.6226L5.71244 12.452C5.56354 12.303 5.36785 12.2285 5.17216 12.2285ZM15.2662 2.13413C15.0621 2.13413 14.8702 2.21357 14.7259 2.35787L12.1274 4.95633C11.9832 5.10072 11.9037 5.29255 11.9037 5.49661C11.9037 5.70068 11.9832 5.8926 12.1274 6.0369L13.2979 7.20736L16.977 3.52833L15.8066 2.35787C15.6622 2.21367 15.4703 2.13413 15.2662 2.13413ZM4.76911 9.05186C4.61314 9.05186 4.48673 8.92545 4.48673 8.76948C4.48673 6.23127 6.55168 4.16632 9.08989 4.16632C9.24586 4.16632 9.37227 4.29273 9.37227 4.4487C9.37227 4.60467 9.24586 4.73108 9.08989 4.73108C6.86314 4.73108 5.05149 6.54273 5.05149 8.76948C5.05149 8.92545 4.92498 9.05186 4.76911 9.05186ZM2.66058 9.05186C2.50461 9.05186 2.3782 8.92545 2.3782 8.76948C2.3782 5.06871 5.38903 2.05779 9.08989 2.05779C9.24586 2.05779 9.37227 2.18421 9.37227 2.34017C9.37227 2.49614 9.24586 2.62255 9.08989 2.62255C5.70049 2.62255 2.94296 5.37999 2.94296 8.76948C2.94296 8.92545 2.81655 9.05186 2.66058 9.05186ZM0.602692 9.05186C0.446724 9.05186 0.320312 8.92545 0.320312 8.76948C0.320313 3.93402 4.25433 0 9.08989 0C9.24586 0 9.37227 0.126412 9.37227 0.28238C9.37227 0.438347 9.24586 0.564759 9.08989 0.564759C4.5657 0.564759 0.885072 4.24539 0.885072 8.76948C0.885072 8.92545 0.75866 9.05186 0.602692 9.05186Z" fill="#9F9F9F"/>
</symbol><symbol id="shield" viewBox="0 0 70 70">
<path d="M10.4054 45.8216C10.1545 45.8216 9.91393 45.722 9.73653 45.5446C9.55913 45.3672 9.45947 45.1266 9.45947 44.8757V42.0662C9.45947 41.8154 9.55913 41.5748 9.73653 41.3974C9.91393 41.22 10.1545 41.1203 10.4054 41.1203C10.6563 41.1203 10.8969 41.22 11.0743 41.3974C11.2517 41.5748 11.3514 41.8154 11.3514 42.0662V44.8757C11.3514 45.1266 11.2517 45.3672 11.0743 45.5446C10.8969 45.722 10.6563 45.8216 10.4054 45.8216Z" fill="#3D6A66"/>
<path d="M59.5946 68.1081H10.4054C10.1545 68.1081 9.91393 68.0084 9.73653 67.831C9.55913 67.6536 9.45947 67.413 9.45947 67.1621V51.4973C9.45947 51.2464 9.55913 51.0058 9.73653 50.8284C9.91393 50.651 10.1545 50.5513 10.4054 50.5513C10.6563 50.5513 10.8969 50.651 11.0743 50.8284C11.2517 51.0058 11.3514 51.2464 11.3514 51.4973V66.2162H58.6487V18.5925L43.8314 3.78374H11.3514V26.0702C11.3514 26.3211 11.2517 26.5617 11.0743 26.7391C10.8969 26.9165 10.6563 27.0162 10.4054 27.0162C10.1545 27.0162 9.91393 26.9165 9.73653 26.7391C9.55913 26.5617 9.45947 26.3211 9.45947 26.0702V2.83779C9.45947 2.58691 9.55913 2.34631 9.73653 2.16891C9.91393 1.99151 10.1545 1.89185 10.4054 1.89185H44.223C44.4737 1.89165 44.7143 1.991 44.8918 2.16806L60.2634 17.5312C60.4408 17.7085 60.5405 17.9491 60.5406 18.2V67.1621C60.5406 67.413 60.4409 67.6536 60.2635 67.831C60.0861 68.0084 59.8455 68.1081 59.5946 68.1081Z" fill="#3D6A66"/>
<path d="M10.4054 36.3905C10.1545 36.3905 9.91393 36.2908 9.73653 36.1134C9.55913 35.936 9.45947 35.6954 9.45947 35.4446V32.6919C9.45947 32.441 9.55913 32.2004 9.73653 32.023C9.91393 31.8456 10.1545 31.7459 10.4054 31.7459C10.6563 31.7459 10.8969 31.8456 11.0743 32.023C11.2517 32.2004 11.3514 32.441 11.3514 32.6919V35.4446C11.3514 35.6954 11.2517 35.936 11.0743 36.1134C10.8969 36.2908 10.6563 36.3905 10.4054 36.3905Z" fill="#3D6A66"/>
<path d="M59.5947 19.1459H44.223C43.9722 19.1459 43.7316 19.0462 43.5542 18.8688C43.3768 18.6914 43.2771 18.4508 43.2771 18.2V2.83779C43.2771 2.58691 43.3768 2.34631 43.5542 2.16891C43.7316 1.99151 43.9722 1.89185 44.223 1.89185C44.4739 1.89185 44.7145 1.99151 44.8919 2.16891C45.0693 2.34631 45.169 2.58691 45.169 2.83779V17.254H59.5947C59.8456 17.254 60.0862 17.3537 60.2636 17.5311C60.441 17.7085 60.5406 17.9491 60.5406 18.2C60.5406 18.4508 60.441 18.6914 60.2636 18.8688C60.0862 19.0462 59.8456 19.1459 59.5947 19.1459Z" fill="#3D6A66"/>
<path d="M37.838 13.2432H16.0812C15.8303 13.2432 15.5897 13.1435 15.4123 12.9661C15.2349 12.7888 15.1353 12.5481 15.1353 12.2973C15.1353 12.0464 15.2349 11.8058 15.4123 11.6284C15.5897 11.451 15.8303 11.3513 16.0812 11.3513H37.838C38.0888 11.3513 38.3295 11.451 38.5069 11.6284C38.6843 11.8058 38.7839 12.0464 38.7839 12.2973C38.7839 12.5481 38.6843 12.7888 38.5069 12.9661C38.3295 13.1435 38.0888 13.2432 37.838 13.2432Z" fill="#3D6A66"/>
<path d="M37.838 19.8649H16.0812C15.8303 19.8649 15.5897 19.7652 15.4123 19.5878C15.2349 19.4104 15.1353 19.1698 15.1353 18.9189C15.1353 18.668 15.2349 18.4274 15.4123 18.25C15.5897 18.0726 15.8303 17.973 16.0812 17.973H37.838C38.0888 17.973 38.3295 18.0726 38.5069 18.25C38.6843 18.4274 38.7839 18.668 38.7839 18.9189C38.7839 19.1698 38.6843 19.4104 38.5069 19.5878C38.3295 19.7652 38.0888 19.8649 37.838 19.8649Z" fill="#3D6A66"/>
<path d="M35.0001 60.1887C34.8291 60.1889 34.6613 60.1425 34.5148 60.0544C26.2094 55.0872 21.998 48.3379 21.998 39.9937V32.4507C21.9981 32.2529 22.0602 32.0601 22.1756 31.8994C22.291 31.7387 22.4539 31.6182 22.6413 31.5549L34.6974 27.4873C34.8936 27.4202 35.1066 27.4202 35.3028 27.4873L47.3589 31.5549C47.5463 31.6182 47.7091 31.7387 47.8245 31.8994C47.9399 32.0601 48.002 32.2529 48.0021 32.4507V39.9937C48.0021 48.3388 43.7908 55.0872 35.4853 60.0544C35.3388 60.1425 35.171 60.1889 35.0001 60.1887ZM23.8899 33.1346V39.9984C23.8899 47.4714 27.6274 53.5699 35.0001 58.1398C42.3728 53.5699 46.1102 47.4685 46.1102 39.9984V33.1299L35.0001 29.3773L23.8899 33.1346Z" fill="#F27039"/>
<path d="M32.5822 47.0211C32.3315 47.0213 32.091 46.9219 31.9135 46.7449L28.9252 43.7557C28.7529 43.5773 28.6575 43.3383 28.6597 43.0903C28.6619 42.8423 28.7613 42.605 28.9367 42.4296C29.1121 42.2542 29.3494 42.1547 29.5974 42.1526C29.8454 42.1504 30.0844 42.2458 30.2628 42.4181L32.5822 44.7376L39.7374 37.5824C39.8253 37.4946 39.9296 37.4249 40.0444 37.3774C40.1592 37.3299 40.2822 37.3055 40.4065 37.3055C40.5307 37.3056 40.6538 37.3301 40.7685 37.3777C40.8833 37.4253 40.9876 37.495 41.0754 37.5829C41.1632 37.6708 41.2329 37.7751 41.2804 37.8899C41.3279 38.0047 41.3523 38.1278 41.3523 38.252C41.3523 38.3763 41.3277 38.4993 41.2801 38.6141C41.2326 38.7288 41.1628 38.8331 41.0749 38.9209L33.251 46.7449C33.0735 46.9219 32.833 47.0213 32.5822 47.0211Z" fill="#3D6A66"/>
</symbol><symbol id="time" viewBox="0 0 70 70">
<path d="M38.8064 68.1081H31.1935C30.7284 68.1082 30.2797 67.9371 29.9328 67.6274C29.5859 67.3177 29.3652 66.8911 29.3129 66.429L28.8939 62.7095C25.6337 62 22.5264 60.7142 19.7182 58.9125L16.7943 61.2443C16.4318 61.533 15.9759 61.6786 15.5131 61.6535C15.0503 61.6284 14.6129 61.4343 14.2837 61.1081L8.89185 55.7162C8.56309 55.3873 8.367 54.9488 8.341 54.4845C8.315 54.0202 8.46092 53.5626 8.7509 53.199L11.0817 50.2751C9.28074 47.4666 7.99524 44.3594 7.28563 41.0994L3.56617 40.6804C3.10609 40.6271 2.68153 40.4069 2.37294 40.0615C2.06435 39.7162 1.89317 39.2696 1.89185 38.8064V31.1935C1.89168 30.7284 2.06279 30.2797 2.3725 29.9328C2.68222 29.5859 3.10883 29.3652 3.5709 29.3129L7.29036 28.8939C7.99997 25.6339 9.28547 22.5267 11.0864 19.7182L8.75563 16.7981C8.46584 16.4353 8.31958 15.9786 8.3447 15.5149C8.36981 15.0513 8.56456 14.6131 8.89185 14.2837L14.2837 8.89752C14.6125 8.56863 15.0509 8.37236 15.5152 8.34619C15.9795 8.32002 16.4372 8.46577 16.8009 8.75563L19.7248 11.0874C22.533 9.28574 25.6403 7.99989 28.9005 7.29036L29.3186 3.57185C29.3706 3.11058 29.5903 2.68452 29.9361 2.37474C30.2818 2.06497 30.7293 1.8931 31.1935 1.89185H38.8064C39.2715 1.89168 39.7203 2.06279 40.0671 2.3725C40.414 2.68222 40.6347 3.10883 40.687 3.5709L41.106 7.29036C44.3662 7.99989 47.4735 9.28574 50.2817 11.0874L53.2056 8.75563C53.5681 8.4669 54.024 8.32127 54.4868 8.34638C54.9496 8.37149 55.387 8.56558 55.7162 8.89185L61.1081 14.2837C61.4368 14.6126 61.6329 15.0511 61.6589 15.5154C61.6849 15.9797 61.539 16.4373 61.249 16.8009L58.9135 19.722C60.7144 22.5304 61.9999 25.6377 62.7095 28.8977L66.429 29.3167C66.8904 29.369 67.3165 29.5891 67.6262 29.9352C67.9358 30.2812 68.1073 30.7291 68.1081 31.1935V38.8064C68.1082 39.2715 67.9371 39.7203 67.6274 40.0671C67.3177 40.414 66.8911 40.6347 66.429 40.687L62.7095 41.106C61.9999 44.366 60.7144 47.4732 58.9135 50.2817L61.2443 53.2056C61.533 53.5681 61.6786 54.024 61.6535 54.4868C61.6284 54.9496 61.4343 55.387 61.1081 55.7162L55.7162 61.1024C55.3874 61.4313 54.949 61.6275 54.4847 61.6537C54.0204 61.6799 53.5627 61.5341 53.199 61.2443L50.2751 58.9125C47.4669 60.7142 44.3596 62 41.0994 62.7095L40.6813 66.4281C40.6293 66.8893 40.4096 67.3154 40.0639 67.6252C39.7182 67.9349 39.2706 68.1068 38.8064 68.1081ZM19.6681 56.7993C19.8569 56.7994 20.0414 56.8561 20.1978 56.962C23.139 58.9516 26.4538 60.3229 29.941 60.9927C30.1383 61.0316 30.3179 61.1324 30.454 61.2804C30.5901 61.4284 30.6755 61.6158 30.6978 61.8156L31.1935 66.2162H38.8064L39.3021 61.8156C39.3244 61.6158 39.4098 61.4284 39.5459 61.2804C39.682 61.1324 39.8617 61.0316 40.0589 60.9927C43.5461 60.3229 46.8609 58.9516 49.8021 56.962C49.9691 56.8493 50.1677 56.7928 50.3689 56.8008C50.5702 56.8088 50.7637 56.8808 50.9212 57.0064L54.3805 59.7648L59.7658 54.3814L57.0064 50.9221C56.8806 50.7645 56.8085 50.5709 56.8005 50.3694C56.7925 50.1679 56.8491 49.9692 56.962 49.8021C58.9516 46.8608 60.3232 43.5461 60.9936 40.0589C61.0325 39.8618 61.1332 39.6822 61.281 39.5462C61.4287 39.4101 61.616 39.3246 61.8156 39.3021L66.2162 38.8064V31.1935L61.8156 30.6968C61.616 30.6743 61.4287 30.5889 61.281 30.4528C61.1332 30.3167 61.0325 30.1372 60.9936 29.9401C60.3226 26.4545 58.951 23.1415 56.962 20.2016C56.8491 20.0345 56.7925 19.8358 56.8005 19.6343C56.8085 19.4328 56.8806 19.2391 57.0064 19.0816L59.7648 15.6223L54.3814 10.2351L50.9212 12.9935C50.7637 13.1191 50.5702 13.1911 50.3689 13.1991C50.1677 13.2071 49.9691 13.1506 49.8021 13.0379C46.8609 11.0483 43.5461 9.67701 40.0589 9.00725C39.8617 8.96829 39.682 8.86751 39.5459 8.71953C39.4098 8.57155 39.3244 8.38407 39.3021 8.18428L38.8064 3.78374H31.1935L30.6978 8.18428C30.6755 8.38407 30.5901 8.57155 30.454 8.71953C30.3179 8.86751 30.1383 8.96829 29.941 9.00725C26.4538 9.67701 23.139 11.0483 20.1978 13.0379C20.0308 13.1506 19.8323 13.2071 19.631 13.1991C19.4297 13.1911 19.2362 13.1191 19.0787 12.9935L15.6194 10.2351L10.2341 15.6185L12.9935 19.0778C13.1193 19.2354 13.1915 19.429 13.1994 19.6305C13.2074 19.832 13.1509 20.0307 13.0379 20.1978C11.0489 23.1377 9.67731 26.4508 9.00631 29.9363C8.96739 30.1334 8.86675 30.313 8.71896 30.449C8.57117 30.5851 8.3839 30.6706 8.18428 30.6931L3.78374 31.1935V38.8064L8.18428 39.3031C8.3839 39.3256 8.57117 39.4111 8.71896 39.5471C8.86675 39.6832 8.96739 39.8627 9.00631 40.0598C9.6767 43.547 11.0483 46.8617 13.0379 49.8031C13.1509 49.9701 13.2074 50.1689 13.1994 50.3704C13.1915 50.5718 13.1193 50.7655 12.9935 50.9231L10.2351 54.3814L15.6185 59.7648L19.0787 57.0064C19.2461 56.8726 19.4538 56.7996 19.6681 56.7993Z" fill="#3D6A66"/>
<path d="M38.3856 55.5175C38.1479 55.5178 37.9187 55.4286 37.7437 55.2675C37.5688 55.1065 37.4609 54.8855 37.4416 54.6485C37.4223 54.4115 37.4929 54.1759 37.6395 53.9886C37.786 53.8014 37.9977 53.6762 38.2324 53.6379C39.1441 53.4877 40.0427 53.2663 40.9198 52.9758C41.0378 52.937 41.1623 52.9218 41.2862 52.9311C41.4101 52.9404 41.531 52.974 41.6419 53.03C41.7527 53.086 41.8515 53.1632 41.9326 53.2574C42.0136 53.3516 42.0753 53.4608 42.1141 53.5788C42.1529 53.6968 42.1681 53.8213 42.1588 53.9452C42.1495 54.0691 42.1159 54.1899 42.0599 54.3008C42.0039 54.4117 41.9266 54.5105 41.8324 54.5915C41.7383 54.6726 41.6291 54.7343 41.511 54.7731C40.5416 55.0949 39.5485 55.3407 38.5408 55.5081C38.4894 55.5154 38.4375 55.5186 38.3856 55.5175Z" fill="#3D6A66"/>
<path d="M30.328 55.2528C30.2528 55.2529 30.1779 55.244 30.1048 55.2263C26.3085 54.3075 22.8475 52.339 20.1174 49.5458C17.3873 46.7526 15.4984 43.2475 14.6666 39.4313C13.8348 35.615 14.0938 31.6418 15.4139 27.9658C16.7339 24.2898 19.0619 21.0595 22.1314 18.6443C25.201 16.2291 28.8883 14.7265 32.7716 14.3083C36.655 13.89 40.5776 14.5731 44.0911 16.2793C47.6045 17.9855 50.5669 20.6461 52.6394 23.9567C54.7119 27.2672 55.811 31.0943 55.8108 35.0001C55.8196 37.8486 55.2353 40.6677 54.0949 43.278C54.0478 43.3956 53.9776 43.5026 53.8883 43.5925C53.7991 43.6824 53.6928 43.7535 53.5756 43.8016C53.4584 43.8496 53.3327 43.8736 53.206 43.8722C53.0794 43.8708 52.9543 43.8439 52.8382 43.7932C52.7221 43.7425 52.6174 43.669 52.5303 43.5771C52.4431 43.4852 52.3753 43.3767 52.3309 43.258C52.2865 43.1394 52.2663 43.0131 52.2717 42.8865C52.277 42.76 52.3077 42.6358 52.3619 42.5213C53.3971 40.1494 53.9274 37.588 53.9189 35.0001C53.919 31.4494 52.9199 27.9704 51.0358 24.9608C49.1518 21.9512 46.4588 19.5326 43.2648 17.9815C40.0709 16.4303 36.5049 15.8093 32.9746 16.1895C29.4444 16.5696 26.0923 17.9355 23.3018 20.131C20.5113 22.3265 18.3949 25.263 17.1947 28.6047C15.9945 31.9463 15.7589 35.5583 16.5149 39.0276C17.2708 42.4969 18.9878 45.6834 21.4695 48.2228C23.9512 50.7621 27.0974 52.5519 30.5484 53.3874C30.7733 53.4417 30.9704 53.5766 31.1026 53.7665C31.2347 53.9564 31.2927 54.1881 31.2655 54.4178C31.2384 54.6476 31.128 54.8594 30.9552 55.0133C30.7825 55.1671 30.5593 55.2523 30.328 55.2528Z" fill="#3D6A66"/>
<path d="M47.0902 51.7054C46.8917 51.7054 46.6982 51.643 46.5371 51.5269C46.3761 51.4108 46.2556 51.247 46.1928 51.0586C46.13 50.8703 46.1281 50.6669 46.1873 50.4774C46.2465 50.2879 46.3638 50.1219 46.5227 50.0027C47.236 49.4625 47.9061 48.8676 48.5271 48.2234C48.702 48.0487 48.9382 47.9494 49.1854 47.9467C49.4326 47.9439 49.671 48.0381 49.8496 48.2089C50.0282 48.3798 50.1329 48.6137 50.1412 48.8608C50.1495 49.1078 50.0608 49.3483 49.894 49.5307C49.204 50.2503 48.4585 50.9145 47.6644 51.5172C47.4988 51.641 47.2971 51.7072 47.0902 51.7054Z" fill="#3D6A66"/>
<path d="M35.0001 22.0405C34.7493 22.0405 34.5087 21.9409 34.3313 21.7635C34.1539 21.5861 34.0542 21.3455 34.0542 21.0946V20.1013C34.0542 19.8505 34.1539 19.6099 34.3313 19.4325C34.5087 19.2551 34.7493 19.1554 35.0001 19.1554C35.251 19.1554 35.4916 19.2551 35.669 19.4325C35.8464 19.6099 35.9461 19.8505 35.9461 20.1013V21.0946C35.9461 21.3455 35.8464 21.5861 35.669 21.7635C35.4916 21.9409 35.251 22.0405 35.0001 22.0405Z" fill="#F27039"/>
<path d="M25.167 26.1137C24.9161 26.1137 24.6756 26.014 24.4982 25.8366L23.7963 25.1337C23.624 24.9553 23.5286 24.7164 23.5308 24.4684C23.533 24.2203 23.6324 23.9831 23.8078 23.8077C23.9832 23.6323 24.2205 23.5328 24.4685 23.5307C24.7165 23.5285 24.9555 23.6239 25.1339 23.7962L25.8358 24.499C25.968 24.6313 26.0581 24.7998 26.0946 24.9833C26.131 25.1668 26.1123 25.3569 26.0407 25.5298C25.9691 25.7026 25.8479 25.8503 25.6924 25.9543C25.5369 26.0582 25.354 26.1137 25.167 26.1137Z" fill="#F27039"/>
<path d="M21.0945 35.946H20.1012C19.8503 35.946 19.6097 35.8463 19.4323 35.6689C19.2549 35.4915 19.1553 35.2509 19.1553 35C19.1553 34.7491 19.2549 34.5085 19.4323 34.3311C19.6097 34.1537 19.8503 34.0541 20.1012 34.0541H21.0945C21.3453 34.0541 21.586 34.1537 21.7634 34.3311C21.9407 34.5085 22.0404 34.7491 22.0404 35C22.0404 35.2509 21.9407 35.4915 21.7634 35.6689C21.586 35.8463 21.3453 35.946 21.0945 35.946Z" fill="#F27039"/>
<path d="M24.465 46.481C24.278 46.4809 24.0951 46.4254 23.9396 46.3215C23.7841 46.2175 23.6629 46.0698 23.5913 45.897C23.5197 45.7242 23.501 45.534 23.5375 45.3505C23.5739 45.1671 23.664 44.9985 23.7962 44.8662L24.4981 44.1643C24.5844 44.0705 24.6888 43.995 24.805 43.9425C24.9212 43.89 25.0469 43.8615 25.1743 43.8587C25.3018 43.856 25.4286 43.8791 25.5469 43.9266C25.6653 43.9741 25.7728 44.045 25.863 44.1351C25.9532 44.2252 26.0243 44.3326 26.072 44.4509C26.1197 44.5692 26.1429 44.6959 26.1404 44.8234C26.1378 44.9509 26.1095 45.0766 26.0572 45.1928C26.0048 45.3091 25.9295 45.4136 25.8357 45.5L25.1338 46.2019C25.0464 46.2904 24.9422 46.3606 24.8274 46.4085C24.7126 46.4564 24.5894 46.4811 24.465 46.481Z" fill="#F27039"/>
<path d="M35.0001 50.8446C34.7493 50.8446 34.5087 50.7449 34.3313 50.5675C34.1539 50.3901 34.0542 50.1495 34.0542 49.8987V48.9054C34.0542 48.6545 34.1539 48.4139 34.3313 48.2365C34.5087 48.0591 34.7493 47.9595 35.0001 47.9595C35.251 47.9595 35.4916 48.0591 35.669 48.2365C35.8464 48.4139 35.9461 48.6545 35.9461 48.9054V49.8987C35.9461 50.1495 35.8464 50.3901 35.669 50.5675C35.4916 50.7449 35.251 50.8446 35.0001 50.8446Z" fill="#F27039"/>
<path d="M45.5349 46.481C45.284 46.4809 45.0435 46.3812 44.8661 46.2038L44.1642 45.501C44.0703 45.4147 43.9949 45.3103 43.9423 45.1941C43.8898 45.0779 43.8613 44.9523 43.8586 44.8248C43.8559 44.6973 43.879 44.5706 43.9265 44.4522C43.9739 44.3339 44.0449 44.2264 44.135 44.1361C44.2251 44.0459 44.3325 43.9748 44.4508 43.9271C44.5691 43.8795 44.6958 43.8562 44.8233 43.8588C44.9508 43.8613 45.0764 43.8896 45.1927 43.942C45.309 43.9943 45.4135 44.0697 45.4999 44.1634L46.2018 44.8663C46.334 44.9986 46.4241 45.1671 46.4606 45.3506C46.4971 45.534 46.4783 45.7242 46.4068 45.897C46.3352 46.0698 46.214 46.2176 46.0584 46.3215C45.9029 46.4255 45.7201 46.481 45.533 46.481H45.5349Z" fill="#F27039"/>
<path d="M49.8987 35.946H48.9054C48.6545 35.946 48.4139 35.8463 48.2365 35.6689C48.0591 35.4915 47.9595 35.2509 47.9595 35C47.9595 34.7491 48.0591 34.5085 48.2365 34.3311C48.4139 34.1537 48.6545 34.0541 48.9054 34.0541H49.8987C50.1495 34.0541 50.3902 34.1537 50.5676 34.3311C50.745 34.5085 50.8446 34.7491 50.8446 35C50.8446 35.2509 50.745 35.4915 50.5676 35.6689C50.3902 35.8463 50.1495 35.946 49.8987 35.946Z" fill="#F27039"/>
<path d="M44.8378 26.1129C44.6508 26.1129 44.4679 26.0574 44.3124 25.9534C44.1569 25.8495 44.0357 25.7018 43.9641 25.5289C43.8925 25.3561 43.8738 25.1659 43.9103 24.9825C43.9467 24.799 44.0368 24.6305 44.1691 24.4982L44.8709 23.7963C44.9582 23.7059 45.0626 23.6339 45.178 23.5843C45.2934 23.5347 45.4175 23.5086 45.5431 23.5075C45.6687 23.5065 45.7933 23.5304 45.9096 23.5779C46.0258 23.6255 46.1314 23.6958 46.2202 23.7846C46.3091 23.8734 46.3793 23.979 46.4269 24.0953C46.4744 24.2115 46.4984 24.3361 46.4973 24.4617C46.4962 24.5873 46.4701 24.7114 46.4205 24.8268C46.3709 24.9422 46.2989 25.0466 46.2085 25.1339L45.5066 25.8358C45.3293 26.0132 45.0887 26.1129 44.8378 26.1129Z" fill="#F27039"/>
<path d="M35 38.553C34.2973 38.553 33.6104 38.3447 33.0261 37.9542C32.4418 37.5638 31.9864 37.0089 31.7175 36.3597C31.4486 35.7105 31.3782 34.9961 31.5153 34.3069C31.6524 33.6177 31.9908 32.9846 32.4877 32.4877C32.9846 31.9908 33.6176 31.6524 34.3068 31.5154C34.9961 31.3783 35.7104 31.4486 36.3597 31.7175C37.0089 31.9865 37.5638 32.4418 37.9542 33.0261C38.3446 33.6104 38.553 34.2973 38.553 35.0001C38.5517 35.942 38.177 36.845 37.5109 37.511C36.8449 38.177 35.9419 38.5518 35 38.553ZM35 33.339C34.6715 33.339 34.3503 33.4364 34.0771 33.6189C33.804 33.8014 33.5911 34.0609 33.4654 34.3644C33.3396 34.6679 33.3067 35.0019 33.3708 35.3241C33.4349 35.6463 33.5931 35.9423 33.8254 36.1746C34.0577 36.4069 34.3537 36.5651 34.6759 36.6292C34.9982 36.6933 35.3321 36.6604 35.6357 36.5347C35.9392 36.409 36.1986 36.1961 36.3811 35.9229C36.5637 35.6497 36.6611 35.3286 36.6611 35.0001C36.6603 34.5597 36.4851 34.1377 36.1737 33.8263C35.8624 33.515 35.4403 33.3397 35 33.339Z" fill="#F27039"/>
<path d="M33.1564 34.1023C32.9056 34.1023 32.665 34.0026 32.4876 33.8252L29.0699 30.4084C28.8924 30.2309 28.7927 29.9902 28.7927 29.7391C28.7927 29.4881 28.8924 29.2474 29.0699 29.0699C29.2474 28.8924 29.4882 28.7927 29.7392 28.7927C29.9902 28.7927 30.231 28.8924 30.4085 29.0699L33.8252 32.4876C33.9575 32.6199 34.0475 32.7884 34.084 32.9719C34.1205 33.1553 34.1018 33.3455 34.0302 33.5183C33.9586 33.6912 33.8374 33.8389 33.6819 33.9428C33.5263 34.0468 33.3435 34.1023 33.1564 34.1023Z" fill="#F27039"/>
<path d="M44.8379 35.946H37.6071C37.3562 35.946 37.1156 35.8463 36.9382 35.6689C36.7608 35.4915 36.6611 35.2509 36.6611 35C36.6611 34.7491 36.7608 34.5085 36.9382 34.3311C37.1156 34.1537 37.3562 34.0541 37.6071 34.0541H44.8379C45.0888 34.0541 45.3294 34.1537 45.5068 34.3311C45.6842 34.5085 45.7838 34.7491 45.7838 35C45.7838 35.2509 45.6842 35.4915 45.5068 35.6689C45.3294 35.8463 45.0888 35.946 44.8379 35.946Z" fill="#F27039"/>
</symbol></svg>